<svg width="127" height="20" viewBox="0 0 127 20" fill="none" xmlns="http://www.w3.org/2000/svg">
<path opacity="0.7" d="M6.077 15.294C4.257 15.294 2.801 14.79 1.709 13.782C0.631 12.76 0.092 11.297 0.092 9.393V5.907C0.092 4.003 0.631 2.547 1.709 1.539C2.801 0.516999 4.257 0.00599903 6.077 0.00599903C7.911 0.00599903 9.367 0.516999 10.445 1.539C11.523 2.547 12.062 4.003 12.062 5.907V9.393C12.062 11.297 11.523 12.76 10.445 13.782C9.367 14.79 7.911 15.294 6.077 15.294ZM6.077 13.026C7.169 13.026 8.016 12.711 8.618 12.081C9.234 11.437 9.542 10.569 9.542 9.477V5.823C9.542 4.731 9.234 3.87 8.618 3.24C8.016 2.596 7.169 2.274 6.077 2.274C4.999 2.274 4.152 2.596 3.536 3.24C2.934 3.87 2.633 4.731 2.633 5.823V9.477C2.633 10.569 2.934 11.437 3.536 12.081C4.152 12.711 4.999 13.026 6.077 13.026ZM18.6524 15.168C17.8544 15.168 17.1474 14.993 16.5314 14.643C15.9154 14.279 15.4394 13.775 15.1034 13.131C14.7674 12.473 14.5994 11.71 14.5994 10.842V4.626H16.9934V10.653C16.9934 11.493 17.1964 12.116 17.6024 12.522C18.0224 12.928 18.6104 13.131 19.3664 13.131C20.2204 13.131 20.8924 12.851 21.3824 12.291C21.8864 11.731 22.1384 10.926 22.1384 9.876V4.626H24.5324V15H22.1804V13.551H21.8234C21.6414 13.929 21.3054 14.293 20.8154 14.643C20.3394 14.993 19.6184 15.168 18.6524 15.168ZM27.6033 15V4.626H29.9763V5.823H30.3333C30.4873 5.389 30.7463 5.074 31.1103 4.878C31.4743 4.682 31.9083 4.584 32.4123 4.584H33.6723V6.726H32.3703C31.6703 6.726 31.1033 6.915 30.6693 7.293C30.2353 7.657 30.0183 8.224 30.0183 8.994V15H27.6033ZM41.159 19.2V4.626H43.532V5.991H43.889C44.127 5.557 44.505 5.172 45.023 4.836C45.555 4.5 46.311 4.332 47.291 4.332C48.131 4.332 48.908 4.542 49.622 4.962C50.35 5.368 50.931 5.97 51.365 6.768C51.799 7.566 52.016 8.525 52.016 9.645V9.981C52.016 11.101 51.799 12.06 51.365 12.858C50.931 13.656 50.357 14.265 49.643 14.685C48.929 15.091 48.145 15.294 47.291 15.294C46.633 15.294 46.08 15.217 45.632 15.063C45.198 14.909 44.841 14.706 44.561 14.454C44.295 14.202 44.085 13.95 43.931 13.698H43.574V19.2H41.159ZM46.577 13.194C47.459 13.194 48.18 12.914 48.74 12.354C49.314 11.78 49.601 10.968 49.601 9.918V9.708C49.601 8.644 49.314 7.832 48.74 7.272C48.166 6.712 47.445 6.432 46.577 6.432C45.709 6.432 44.981 6.712 44.393 7.272C43.819 7.832 43.532 8.644 43.532 9.708V9.918C43.532 10.968 43.819 11.78 44.393 12.354C44.981 12.914 45.709 13.194 46.577 13.194ZM57.7841 15.294C57.0561 15.294 56.3981 15.168 55.8101 14.916C55.2221 14.65 54.7531 14.272 54.4031 13.782C54.0671 13.292 53.8991 12.69 53.8991 11.976C53.8991 11.276 54.0671 10.688 54.4031 10.212C54.7531 9.736 55.2291 9.379 55.8311 9.141C56.4331 8.889 57.1191 8.763 57.8891 8.763H60.8921V8.133C60.8921 7.587 60.7241 7.146 60.3881 6.81C60.0521 6.46 59.5271 6.285 58.8131 6.285C58.1131 6.285 57.5811 6.453 57.2171 6.789C56.8671 7.111 56.6361 7.531 56.5241 8.049L54.2981 7.314C54.4661 6.768 54.7321 6.271 55.0961 5.823C55.4741 5.375 55.9711 5.018 56.5871 4.752C57.2031 4.472 57.9591 4.332 58.8551 4.332C60.2131 4.332 61.2771 4.675 62.0471 5.361C62.8311 6.033 63.2231 7.013 63.2231 8.301V12.375C63.2231 12.795 63.4191 13.005 63.8111 13.005H64.6931V15H62.9921C62.4881 15 62.0751 14.874 61.7531 14.622C61.4311 14.37 61.2701 14.027 61.2701 13.593V13.551H60.9131C60.8291 13.747 60.6821 13.985 60.4721 14.265C60.2621 14.545 59.9401 14.79 59.5061 15C59.0861 15.196 58.5121 15.294 57.7841 15.294ZM58.1831 13.32C58.9811 13.32 59.6321 13.096 60.1361 12.648C60.6401 12.186 60.8921 11.57 60.8921 10.8V10.59H58.0361C57.5181 10.59 57.0981 10.702 56.7761 10.926C56.4541 11.15 56.2931 11.479 56.2931 11.913C56.2931 12.333 56.4611 12.676 56.7971 12.942C57.1331 13.194 57.5951 13.32 58.1831 13.32ZM66.6912 15V4.626H69.0642V5.823H69.4212C69.5752 5.389 69.8342 5.074 70.1982 4.878C70.5622 4.682 70.9962 4.584 71.5002 4.584H72.7602V6.726H71.4582C70.7582 6.726 70.1912 6.915 69.7572 7.293C69.3232 7.657 69.1062 8.224 69.1062 8.994V15H66.6912ZM78.8423 15C78.1703 15 77.6313 14.804 77.2253 14.412C76.8333 14.006 76.6373 13.46 76.6373 12.774V6.621H73.9283V4.626H76.6373V1.287H79.0523V4.626H82.0343V6.621H79.0523V12.375C79.0523 12.795 79.2483 13.005 79.6403 13.005H81.7193V15H78.8423ZM84.492 15V4.626H86.865V6.075H87.222C87.404 5.683 87.733 5.312 88.209 4.962C88.685 4.612 89.406 4.437 90.372 4.437C91.17 4.437 91.877 4.619 92.493 4.983C93.109 5.347 93.585 5.851 93.921 6.495C94.271 7.139 94.446 7.902 94.446 8.784V15H92.031V8.973C92.031 8.133 91.821 7.51 91.401 7.104C90.995 6.684 90.414 6.474 89.658 6.474C88.804 6.474 88.132 6.761 87.642 7.335C87.152 7.895 86.907 8.7 86.907 9.75V15H84.492ZM102.158 15.294C101.122 15.294 100.205 15.077 99.4069 14.643C98.6229 14.195 98.0069 13.572 97.5589 12.774C97.1249 11.962 96.9079 11.017 96.9079 9.939V9.687C96.9079 8.595 97.1249 7.65 97.5589 6.852C97.9929 6.054 98.6019 5.438 99.3859 5.004C100.17 4.556 101.073 4.332 102.095 4.332C103.103 4.332 103.985 4.556 104.741 5.004C105.497 5.438 106.085 6.054 106.505 6.852C106.925 7.65 107.135 8.581 107.135 9.645V10.506H99.3439C99.3719 11.318 99.6589 11.969 100.205 12.459C100.751 12.949 101.423 13.194 102.221 13.194C103.005 13.194 103.586 13.026 103.964 12.69C104.342 12.34 104.629 11.948 104.825 11.514L106.82 12.543C106.624 12.921 106.337 13.327 105.959 13.761C105.595 14.181 105.105 14.545 104.489 14.853C103.873 15.147 103.096 15.294 102.158 15.294ZM99.3649 8.679H104.678C104.622 7.993 104.356 7.447 103.88 7.041C103.418 6.635 102.816 6.432 102.074 6.432C101.304 6.432 100.688 6.635 100.226 7.041C99.7639 7.447 99.4769 7.993 99.3649 8.679ZM109.614 15V4.626H111.987V5.823H112.344C112.498 5.389 112.757 5.074 113.121 4.878C113.485 4.682 113.919 4.584 114.423 4.584H115.683V6.726H114.381C113.681 6.726 113.114 6.915 112.68 7.293C112.246 7.657 112.029 8.224 112.029 8.994V15H109.614ZM121.876 15.294C120.532 15.294 119.426 15 118.558 14.412C117.69 13.824 117.165 12.963 116.983 11.829L119.209 11.262C119.307 11.794 119.482 12.214 119.734 12.522C119.986 12.83 120.294 13.047 120.658 13.173C121.036 13.299 121.442 13.362 121.876 13.362C122.534 13.362 123.024 13.243 123.346 13.005C123.682 12.767 123.85 12.466 123.85 12.102C123.85 11.724 123.689 11.444 123.367 11.262C123.059 11.08 122.583 10.926 121.939 10.8L121.288 10.695C120.574 10.555 119.923 10.366 119.335 10.128C118.747 9.876 118.271 9.54 117.907 9.12C117.557 8.686 117.382 8.14 117.382 7.482C117.382 6.474 117.753 5.697 118.495 5.151C119.251 4.605 120.238 4.332 121.456 4.332C122.618 4.332 123.577 4.591 124.333 5.109C125.089 5.627 125.579 6.32 125.803 7.188L123.577 7.86C123.465 7.272 123.22 6.859 122.842 6.621C122.464 6.369 122.002 6.243 121.456 6.243C120.896 6.243 120.462 6.341 120.154 6.537C119.86 6.733 119.713 7.013 119.713 7.377C119.713 7.741 119.867 8.014 120.175 8.196C120.483 8.378 120.896 8.511 121.414 8.595L122.065 8.721C122.835 8.861 123.528 9.043 124.144 9.267C124.774 9.491 125.271 9.813 125.635 10.233C125.999 10.653 126.181 11.22 126.181 11.934C126.181 13.012 125.789 13.845 125.005 14.433C124.235 15.007 123.192 15.294 121.876 15.294Z" fill="#162042"/>
</svg>
