<svg width="143" height="29" viewBox="0 0 143 29" fill="none" xmlns="http://www.w3.org/2000/svg">
<g clip-path="url(#clip0_184_1051)">
<mask id="mask0_184_1051" style="mask-type:luminance" maskUnits="userSpaceOnUse" x="0" y="0" width="143" height="29">
<path d="M143 0.5H0V28.5H143V0.5Z" fill="white"/>
</mask>
<g mask="url(#mask0_184_1051)">
<path opacity="0.7" d="M138.981 2.39C138.981 3.412 139.886 4.266 140.991 4.266C142.094 4.266 143 3.412 143 2.39C143 1.368 142.094 0.5 140.991 0.5C139.886 0.5 138.981 1.34 138.981 2.39ZM139.377 22.942H142.561V6.758H139.377V22.942ZM126.922 18.406C126.922 17.286 127.559 16.656 128.592 16.278C129.088 16.096 129.697 15.956 130.263 15.886C131.295 15.746 133.631 15.606 134.211 15.018V17.104C134.211 18.364 133.546 19.568 132.301 20.24C131.664 20.59 130.928 20.772 130.036 20.772C128.196 20.772 126.922 19.974 126.922 18.406ZM129.328 23.306C131.126 23.306 132.357 22.746 133.221 21.934C133.631 21.542 133.942 21.15 134.141 20.73H134.267V22.942H137.381V12.204C137.381 8.116 134.536 6.562 130.942 6.562C127.347 6.562 124.616 8.2 124.474 11.672H127.686C127.857 9.992 128.847 9.096 130.914 9.096C133.164 9.096 134.211 10.146 134.211 11.994V12.064C134.211 12.82 133.687 13.1 132.47 13.24L130.078 13.52C126.781 13.912 123.809 14.766 123.809 18.364C123.809 20.506 124.87 21.934 126.526 22.704C127.347 23.11 128.295 23.306 129.328 23.306ZM103.896 23.152C104.66 23.152 105.155 23.04 105.283 22.942V20.212C105.17 20.254 104.759 20.324 104.306 20.324C102.834 20.324 102.311 19.666 102.311 18.238V9.292H105.241V6.758H102.311V2.88H99.1263V6.758H96.2958V9.292H99.1263V18.896C99.1263 21.878 101.277 23.166 103.896 23.152ZM82.27 22.942H85.455V13.338C85.455 11.616 86.1627 10.384 87.3089 9.754C87.875 9.432 88.5399 9.278 89.2615 9.278C91.4271 9.278 92.7289 10.678 92.7289 13.03V22.942H95.9139V12.652C95.9139 9.992 94.9513 8.158 93.267 7.234C92.4178 6.786 91.4551 6.548 90.3377 6.548C87.875 6.548 86.2614 7.668 85.5111 9.39H85.3135V6.758H82.256L82.27 22.942ZM69.7875 18.406C69.7875 17.286 70.4244 16.656 71.4575 16.278C71.9529 16.096 72.5614 15.956 73.1275 15.886C74.161 15.746 76.4962 15.606 77.0763 15.018V17.104C77.0763 18.364 76.4107 19.568 75.1657 20.24C74.5288 20.59 73.7924 20.772 72.9011 20.772C71.0613 20.772 69.7875 19.974 69.7875 18.406ZM72.2076 23.306C73.9907 23.306 75.2364 22.746 76.1136 21.934C76.5242 21.542 76.836 21.15 77.0335 20.73H77.161V22.942H80.2746V12.204C80.2746 8.116 77.4301 6.562 73.8352 6.562C70.2404 6.562 67.4806 8.2 67.3532 11.672H70.5659C70.7358 9.992 71.7264 9.096 73.7924 9.096C76.0428 9.096 77.0903 10.146 77.0903 11.994V12.064C77.0903 12.82 76.5669 13.1 75.3492 13.24L72.9577 13.52C69.6602 13.912 66.688 14.766 66.688 18.364C66.688 20.506 67.7495 21.934 69.4053 22.704C70.2263 23.11 71.1603 23.306 72.2076 23.306ZM64.2537 23.152C65.0181 23.152 65.5134 23.04 65.6408 22.942V20.212C65.5275 20.254 65.1171 20.324 64.6642 20.324C63.1923 20.324 62.6686 19.666 62.6686 18.238V9.292H65.5983V6.758H62.6686V2.88H59.4842V6.758H56.6537V9.292H59.4842V18.896C59.4701 21.878 61.6355 23.166 64.2537 23.152ZM50.2142 23.278C53.6675 23.278 56.7811 21.584 56.7811 18.266C56.7811 15.984 55.3233 14.584 52.3088 13.898L49.7047 13.31C47.9356 12.89 47.1289 12.26 47.1289 11.21C47.1289 9.908 48.3885 9.04 50.1151 9.04C51.7286 9.04 52.9457 9.796 53.1014 11.42H56.2858C56.0027 8.326 53.6816 6.548 50.1717 6.548C46.8741 6.548 43.9445 8.13 43.9445 11.378C43.9445 13.646 45.3598 15.186 48.4168 15.844L51.1907 16.446C52.7475 16.782 53.4976 17.482 53.4976 18.476C53.4976 19.764 52.3513 20.716 50.2 20.716C48.0488 20.716 46.959 19.75 46.8458 18.07H43.5907C43.7181 21.444 46.4212 23.278 50.2142 23.278ZM38.6514 2.39C38.6514 3.412 39.5571 4.266 40.661 4.266C41.7649 4.266 42.6708 3.412 42.6708 2.39C42.6708 1.368 41.7791 0.5 40.661 0.5C39.543 0.5 38.6514 1.34 38.6514 2.39ZM39.0618 22.942H42.2461V6.758H39.0618V22.942ZM30.9522 23.278C34.4055 23.278 37.5191 21.584 37.5191 18.266C37.5191 15.984 36.0614 14.584 33.0468 13.898L30.4427 13.31C28.6877 12.89 27.881 12.26 27.881 11.21C27.881 9.908 29.1407 9.04 30.8673 9.04C32.4807 9.04 33.6837 9.796 33.8536 11.42H37.0379C36.7548 8.326 34.4338 6.548 30.9239 6.548C27.6263 6.548 24.6967 8.13 24.6967 11.378C24.6967 13.646 26.1119 15.186 29.169 15.844L31.9429 16.446C33.4997 16.782 34.2498 17.482 34.2498 18.476C34.2498 19.764 33.1034 20.716 30.9522 20.716C28.8009 20.716 27.7112 19.75 27.598 18.07H24.3428C24.4702 21.444 27.1734 23.278 30.9522 23.278ZM11.6195 13.436C11.7044 11.938 12.4403 10.608 13.6858 9.796C14.3509 9.362 15.1293 9.152 16.021 9.152C17.6769 9.152 18.9364 9.936 19.6158 11.224C19.9554 11.868 20.1253 12.61 20.1253 13.436H11.6195ZM16.2191 23.278C20.2669 23.278 22.602 21.052 22.9842 18.084H19.7714C19.5025 19.638 18.3137 20.674 16.1484 20.674C13.3603 20.674 11.7044 18.784 11.6053 15.802H23.2389V14.682C23.2389 11.742 22.3897 9.712 21.0169 8.424C19.6441 7.122 17.8467 6.548 16.0069 6.548C12.9781 6.548 10.6429 8.046 9.39746 10.58C8.77474 11.84 8.44924 13.31 8.44924 14.962C8.43508 19.82 11.2515 23.264 16.2191 23.278ZM0 22.942H3.18438V13.058C3.18438 11.658 3.92033 10.51 5.09501 9.88C5.67528 9.572 6.34046 9.418 7.09056 9.418C7.74161 9.418 8.49169 9.53 8.74644 9.614V6.59C8.43508 6.548 7.78407 6.52 7.38779 6.52C5.47714 6.52 3.83541 7.598 3.22684 9.334H3.05701V6.758H0V22.942Z" fill="#162042"/>
<path opacity="0.7" d="M114.482 18.9234C115.502 18.9934 116.379 19.8334 116.45 20.8554L121.885 15.4794L119.932 13.5474L114.482 18.9234Z" fill="#162042"/>
<path opacity="0.7" d="M114.426 23.0963L119.889 28.5004L121.913 26.4984L116.464 21.1084C116.422 22.1724 115.502 23.0543 114.426 23.0963Z" fill="#162042"/>
<path opacity="0.7" d="M106.77 26.5531L108.737 28.4991L114.186 23.1091C113.153 23.0391 112.289 22.1851 112.218 21.1631L106.77 26.5531Z" fill="#162042"/>
<path opacity="0.7" d="M106.727 15.4799L112.203 20.8979C112.274 19.8479 113.166 18.9659 114.255 18.9239L108.736 13.4639L106.727 15.4799Z" fill="#162042"/>
</g>
</g>
<defs>
<clipPath id="clip0_184_1051">
<rect width="143" height="28" fill="white" transform="translate(0 0.5)"/>
</clipPath>
</defs>
</svg>
