<svg width="133" height="31" viewBox="0 0 133 31" fill="none" xmlns="http://www.w3.org/2000/svg">
<g clip-path="url(#clip0_184_1046)">
<path opacity="0.7" fill-rule="evenodd" clip-rule="evenodd" d="M6.19677 19.1382C6.19677 19.3927 6.40294 19.599 6.65718 19.599H11.1831C11.4374 19.599 11.6436 19.3927 11.6436 19.1382V16.8737H13.9066C14.1607 16.8737 14.367 16.6673 14.367 16.4129V14.6091C14.367 14.3546 14.1607 14.1484 13.9066 14.1484H6.65718C6.40294 14.1484 6.19677 14.3546 6.19677 14.6091V19.1382ZM6.19677 9.14285C6.19677 8.88843 5.99061 8.68213 5.73637 8.68213H1.2104C0.956166 8.68213 0.75 8.88843 0.75 9.14285V13.672C0.75 13.9265 0.956166 14.1327 1.2104 14.1327H3.01299C3.26722 14.1327 3.47338 13.9265 3.47338 13.672V11.4074H5.73637C5.99061 11.4074 6.19677 11.2012 6.19677 10.9467V9.14285ZM8.92016 25.4947C8.92016 25.2402 8.71399 25.034 8.45975 25.034H6.65718C6.40294 25.034 6.19677 25.2402 6.19677 25.4947V27.2985C6.19677 27.5529 6.40294 27.7593 6.65718 27.7593H8.45975C8.71399 27.7593 8.92016 27.5529 8.92016 27.2985V25.4947ZM41.1404 8.68213H36.6144C36.3602 8.68213 36.154 8.88843 36.154 9.14285V10.9467C36.154 11.2012 36.3602 11.4074 36.6144 11.4074H38.8774V13.672C38.8774 13.9265 39.0835 14.1327 39.3378 14.1327H41.1404C41.3947 14.1327 41.6008 13.9265 41.6008 13.672V9.14285C41.6008 8.88843 41.3947 8.68213 41.1404 8.68213ZM35.6936 14.1327H28.4443C28.19 14.1327 27.9838 14.3391 27.9838 14.5935V16.3973C27.9838 16.6517 28.19 16.858 28.4443 16.858H30.7073V19.1227C30.7073 19.377 30.9134 19.5833 31.1677 19.5833H35.6936C35.9478 19.5833 36.154 19.377 36.154 19.1227V14.5935C36.154 14.3391 35.9478 14.1327 35.6936 14.1327ZM32.9703 27.7748H30.7073V25.5103C30.7073 25.2559 30.5011 25.0495 30.2469 25.0495H27.9838V20.0597C27.9838 19.8052 27.7777 19.599 27.5234 19.599H25.2605V14.6091C25.2605 14.3546 25.0543 14.1484 24.8001 14.1484H17.5507C17.2965 14.1484 17.0903 14.3546 17.0903 14.6091V19.599H14.8274C14.573 19.599 14.367 19.8052 14.367 20.0597V25.0495H12.104C11.8497 25.0495 11.6436 25.2559 11.6436 25.5103V27.7748H9.38056C9.12633 27.7748 8.92016 27.9812 8.92016 28.2356V30.0395C8.92016 30.2939 9.12633 30.5002 9.38056 30.5002H13.9066C14.1607 30.5002 14.367 30.2939 14.367 30.0395V27.7748H16.6299C16.8841 27.7748 17.0903 27.5686 17.0903 27.3142V22.3242H25.2605V27.3142C25.2605 27.5686 25.4667 27.7748 25.7208 27.7748H27.9838V30.0395C27.9838 30.2939 28.19 30.5002 28.4443 30.5002H32.9703C33.2244 30.5002 33.4307 30.2939 33.4307 30.0395V28.2356C33.4307 27.9812 33.2244 27.7748 32.9703 27.7748ZM35.6936 25.034H33.8911C33.6368 25.034 33.4307 25.2402 33.4307 25.4947V27.2985C33.4307 27.5529 33.6368 27.7593 33.8911 27.7593H35.6936C35.9478 27.7593 36.154 27.5529 36.154 27.2985V25.4947C36.154 25.2402 35.9478 25.034 35.6936 25.034Z" fill="#162042"/>
<path opacity="0.7" fill-rule="evenodd" clip-rule="evenodd" d="M12.103 8.68177H30.246C30.5001 8.68177 30.7063 8.47531 30.7063 8.22071V6.41557C30.7063 6.16089 30.5001 5.95451 30.246 5.95451H27.983V3.68831C27.983 3.43372 27.7768 3.22725 27.5226 3.22725H25.2595V0.961055C25.2595 0.706459 25.0534 0.5 24.7991 0.5H17.5498C17.2955 0.5 17.0894 0.706459 17.0894 0.961055V3.22725H14.8264C14.5721 3.22725 14.366 3.43372 14.366 3.68831V5.95451H12.103C11.8488 5.95451 11.6426 6.16089 11.6426 6.41557V8.22071C11.6426 8.47531 11.8488 8.68177 12.103 8.68177Z" fill="#162042"/>
<path opacity="0.7" fill-rule="evenodd" clip-rule="evenodd" d="M88.6123 11.8613C87.1796 11.8613 85.8853 12.4516 84.9747 13.3981C84.0849 12.4479 82.8177 11.854 81.4131 11.854C80.625 11.854 79.821 12.143 79.2009 12.5605V12.4222C79.2009 12.2226 79.0354 12.0708 78.843 12.0708H76.845C76.6538 12.0708 76.4871 12.2226 76.4871 12.4222V22.3898C76.4871 22.5894 76.6526 22.7412 76.845 22.7412H78.8478C79.0391 22.7412 79.2057 22.5894 79.2057 22.3898V16.7301C79.2057 15.5105 80.1948 14.5235 81.4131 14.5235C82.6326 14.5235 83.6204 15.5117 83.6204 16.7301V22.3898C83.6204 22.5894 83.7858 22.7412 83.9783 22.7412H85.9343C85.9392 22.7412 85.943 22.7412 85.9454 22.7412H85.9895C86.1807 22.7412 86.3474 22.5894 86.3474 22.3898V16.7337C86.3474 15.5202 87.3572 14.5283 88.6123 14.5283C89.8673 14.5283 90.8772 15.5202 90.8772 16.7337V22.3886C90.8772 22.5882 91.0427 22.74 91.2351 22.74H93.2451C93.4376 22.74 93.603 22.5882 93.603 22.3886V16.7337C93.6018 14.0386 91.3638 11.8613 88.6123 11.8613ZM103.596 17.2149C102.833 16.7509 101.854 16.528 101 16.3345L100.983 16.3309C100.364 16.1901 99.8189 16.0652 99.4266 15.8814C99.0381 15.7002 98.8621 15.4921 98.8621 15.2055C98.8621 14.9582 98.9548 14.739 99.1757 14.5663C99.4023 14.3888 99.7777 14.2516 100.357 14.2174C101.345 14.2174 102.11 14.2406 102.627 14.2639C102.887 14.2749 103.084 14.2871 103.215 14.2958C103.282 14.3006 103.331 14.3031 103.365 14.3055C103.382 14.3067 103.394 14.3079 103.402 14.3079L103.41 14.3092H103.413L103.421 14.3104H103.43C103.583 14.3104 103.723 14.281 103.818 14.1818C103.902 14.0936 103.92 13.981 103.928 13.9259C103.928 13.9223 103.929 13.9186 103.929 13.9162C103.932 13.8928 103.935 13.8757 103.938 13.8598L103.944 13.839V12.6108C103.944 12.4613 103.933 12.3242 103.876 12.2189C103.805 12.0879 103.686 12.0462 103.591 12.0254L103.581 12.0242L103.573 12.023H103.569L103.56 12.0218C103.551 12.0205 103.539 12.0193 103.523 12.0181C103.49 12.0144 103.441 12.0096 103.376 12.0034C103.244 11.9912 103.049 11.9753 102.784 11.9593C102.255 11.9274 101.451 11.8957 100.35 11.8957H100.346H100.342C98.9333 11.9483 97.8642 12.3401 97.1452 12.9597C96.4234 13.5806 96.0676 14.4182 96.0676 15.3243C96.0676 15.9206 96.2053 16.4093 96.4477 16.8121C96.6893 17.2137 97.0282 17.5187 97.4157 17.7575C98.1796 18.2264 99.157 18.453 100.009 18.6502L100.027 18.6538C100.647 18.7971 101.193 18.9244 101.585 19.1106C101.973 19.2942 102.153 19.5061 102.153 19.8012C102.153 20.0473 102.039 20.2665 101.763 20.4342C101.476 20.6081 101.012 20.7245 100.328 20.7245C99.5511 20.7245 98.703 20.6412 98.0458 20.5568C97.7172 20.5151 97.4391 20.4722 97.2416 20.4404C97.1433 20.4245 97.0656 20.411 97.0122 20.4024C96.9982 20.4 96.9851 20.3976 96.9748 20.3963C96.9664 20.395 96.957 20.3938 96.9514 20.3926L96.9364 20.3902L96.9317 20.3889L96.9149 20.3853H96.8971C96.7576 20.3853 96.6256 20.411 96.532 20.5053C96.4496 20.5873 96.4318 20.6963 96.4243 20.7465C96.4234 20.7502 96.4234 20.7539 96.4234 20.7563C96.4178 20.7833 96.414 20.8004 96.4103 20.8176L96.4056 20.8372L96.3288 22.2233V22.2282C96.3288 22.3188 96.3419 22.4266 96.3916 22.5233C96.4412 22.6262 96.532 22.718 96.6705 22.7535L96.6752 22.7547L96.6808 22.7559L96.6865 22.7242C96.6808 22.7559 96.6808 22.7559 96.6808 22.7559L96.6855 22.7572C96.6874 22.7584 96.693 22.7584 96.6986 22.7596C96.7099 22.7621 96.7267 22.7646 96.7492 22.7694C96.7932 22.778 96.8568 22.789 96.9411 22.8025C97.1105 22.8294 97.3567 22.865 97.676 22.9017C98.3107 22.9739 99.2272 23.045 100.354 23.045H100.364C100.502 23.0462 101.628 23.0547 102.728 22.642C103.279 22.4351 103.835 22.118 104.254 21.6307C104.678 21.1396 104.951 20.4845 104.951 19.6249C104.951 19.0346 104.812 18.5498 104.57 18.1506C104.325 17.7513 103.985 17.4501 103.596 17.2149ZM126.183 12.0769C125.065 12.0769 124.019 12.3916 123.141 12.9365V8.36954C123.141 8.16994 122.975 8.01807 122.782 8.01807H120.777C120.586 8.01807 120.419 8.16994 120.419 8.36954V22.3923C120.419 22.5919 120.585 22.7438 120.777 22.7438H122.782C122.974 22.7438 123.141 22.5919 123.141 22.3923V21.9257C123.969 22.5723 125.067 23.0438 126.183 23.0438C129.304 23.0438 131.843 20.5946 131.843 17.5603C131.843 14.5259 129.304 12.0769 126.183 12.0769ZM126.183 20.3963C124.566 20.3963 123.253 19.1265 123.253 17.5603C123.253 15.9941 124.565 14.7243 126.183 14.7243C127.801 14.7243 129.114 15.9941 129.114 17.5603C129.114 19.1265 127.803 20.3963 126.183 20.3963ZM117.335 12.0769H115.325C115.132 12.0769 114.966 12.2288 114.966 12.4283V18.2252C114.966 19.4215 113.959 20.4024 112.702 20.4024C112.696 20.4024 112.69 20.4024 112.685 20.4024C112.678 20.4024 112.673 20.4024 112.667 20.4024C111.41 20.4024 110.402 19.4215 110.402 18.2252V12.4283C110.402 12.2288 110.237 12.0769 110.045 12.0769H108.035C107.842 12.0769 107.676 12.2288 107.676 12.4283V18.2252C107.676 20.8922 109.917 23.0425 112.667 23.0425C112.673 23.0425 112.678 23.0425 112.685 23.0425C112.69 23.0425 112.696 23.0425 112.702 23.0425C115.451 23.0425 117.692 20.8922 117.692 18.2252V12.4283C117.692 12.2288 117.527 12.0769 117.335 12.0769ZM59.6762 17.2149C58.9126 16.7509 57.9334 16.528 57.0804 16.3345L57.0631 16.3309C56.443 16.1901 55.8988 16.0652 55.5067 15.8814C55.1182 15.7002 54.9417 15.4921 54.9417 15.2055C54.9417 14.9582 55.0348 14.739 55.2554 14.5663C55.4821 14.3888 55.8572 14.2516 56.4368 14.2174C57.4247 14.2174 58.1895 14.2406 58.7067 14.2639C58.9666 14.2749 59.1639 14.2871 59.295 14.2958C59.3612 14.3006 59.4114 14.3031 59.4446 14.3055C59.4617 14.3067 59.474 14.3079 59.4813 14.3079L59.4899 14.3092H59.4923L59.5009 14.3104H59.5095C59.6627 14.3104 59.8024 14.281 59.8981 14.1818C59.9826 14.0936 59.9997 13.981 60.0071 13.9259C60.0071 13.9223 60.0083 13.9186 60.0083 13.9162C60.012 13.8928 60.0144 13.8757 60.0182 13.8598L60.023 13.839V12.6108C60.023 12.4613 60.0132 12.3242 59.9556 12.2189C59.8846 12.0879 59.7657 12.0462 59.6701 12.0254L59.6615 12.0242L59.6529 12.023H59.6492L59.6394 12.0218C59.6309 12.0205 59.6186 12.0193 59.6026 12.0181C59.5696 12.0144 59.5205 12.0096 59.4555 12.0034C59.3245 11.9912 59.1283 11.9753 58.8636 11.9593C58.3342 11.9274 57.5301 11.8957 56.4295 11.8957H56.4259H56.4221C55.0127 11.9483 53.944 12.3401 53.2246 12.9597C52.5039 13.5806 52.1484 14.4182 52.1484 15.3243C52.1484 15.9206 52.2858 16.4093 52.5284 16.8121C52.7699 17.2137 53.1093 17.5187 53.4966 17.7575C54.2602 18.2264 55.2383 18.453 56.0901 18.6502L56.1072 18.6538C56.7286 18.7971 57.274 18.9244 57.6662 19.1106C58.0535 19.2942 58.2336 19.5061 58.2336 19.8012C58.2336 20.0473 58.1196 20.2665 57.8439 20.4342C57.5571 20.6081 57.0926 20.7245 56.4087 20.7245C55.6316 20.7245 54.7836 20.6412 54.1267 20.5568C53.7982 20.5151 53.5199 20.4722 53.3226 20.4404C53.2246 20.4245 53.1461 20.411 53.0934 20.4024C53.0787 20.4 53.0664 20.3976 53.0554 20.3963C53.0469 20.395 53.0383 20.3938 53.0322 20.3926L53.0174 20.3902L53.0125 20.3889L52.9954 20.3853H52.9769C52.8373 20.3853 52.7049 20.411 52.6117 20.5053C52.5296 20.5873 52.5113 20.6963 52.5039 20.7465C52.5027 20.7502 52.5027 20.7539 52.5027 20.7563C52.4978 20.7833 52.4941 20.8004 52.4904 20.8176L52.4856 20.8372L52.4059 22.222V22.227C52.4059 22.3176 52.4194 22.4254 52.4683 22.522C52.5186 22.625 52.6093 22.7168 52.7478 22.7523L52.7527 22.7535L52.7576 22.7547L52.7637 22.7229C52.7576 22.7547 52.7576 22.7547 52.7576 22.7547H52.7588L52.7625 22.7559C52.765 22.7572 52.7699 22.7572 52.776 22.7584C52.787 22.7608 52.8042 22.7633 52.8262 22.7682C52.8703 22.7768 52.9341 22.7878 53.0187 22.8012C53.1878 22.8282 53.4342 22.8638 53.7528 22.9004C54.3877 22.9727 55.3045 23.0438 56.432 23.0438H56.4406C56.579 23.045 57.7054 23.0535 58.8048 22.6408C59.3563 22.4339 59.9128 22.1168 60.3319 21.6294C60.7547 21.1384 61.028 20.4833 61.028 19.6237C61.028 19.0334 60.8896 18.5485 60.6469 18.1493C60.4041 17.7513 60.0647 17.4501 59.6762 17.2149ZM73.4062 12.0769H71.3963C71.2038 12.0769 71.0384 12.2288 71.0384 12.4283V18.2252C71.0384 19.4215 70.031 20.4024 68.7734 20.4024C68.7673 20.4024 68.7625 20.4024 68.7563 20.4024C68.7502 20.4024 68.7452 20.4024 68.7391 20.4024C67.4817 20.4024 66.4742 19.4215 66.4742 18.2252V12.4283C66.4742 12.2288 66.3088 12.0769 66.1163 12.0769H64.1063C63.9139 12.0769 63.7484 12.2288 63.7484 12.4283V18.2252C63.7484 20.8922 65.9889 23.0425 68.7391 23.0425C68.7452 23.0425 68.7502 23.0425 68.7563 23.0425C68.7625 23.0425 68.7673 23.0425 68.7734 23.0425C71.5225 23.0425 73.7641 20.8922 73.7641 18.2252V12.4283C73.7641 12.2288 73.5987 12.0769 73.4062 12.0769Z" fill="#162042"/>
</g>
<defs>
<clipPath id="clip0_184_1046">
<rect width="132" height="30" fill="white" transform="translate(0.75 0.5)"/>
</clipPath>
</defs>
</svg>
