<svg width="48" height="48" viewBox="0 0 48 48" fill="none" xmlns="http://www.w3.org/2000/svg">
<g clip-path="url(#clip0_162_988)">
<rect width="48" height="48" rx="24" fill="white"/>
<path d="M-5.45738 0.0102106C-9.07077 0.0102106 -12 2.91764 -12 6.50415V41.4958C-12 45.0823 -9.07077 47.9898 -5.45738 47.9898H12.0308C12.0308 31.9932 12.0308 15.9966 12.0308 0L-5.45738 0.0102106Z" fill="#D12C35"/>
<path d="M12.0098 0.0102539C12.0098 16.0068 12.0098 32.0034 12.0098 48H36.0508C36.0508 32.0034 36.0508 16.0068 36.0508 0.0102539H12.0098Z" fill="white"/>
<path d="M53.4566 0.0102539H36.0508C36.0508 16.0068 36.0508 32.0034 36.0508 48H53.4566C57.07 48 59.9992 45.0926 59.9992 41.5061V6.50419C59.9992 2.91769 57.07 0.0102539 53.4566 0.0102539Z" fill="#D12C35"/>
<path d="M24.6216 13.764C24.5477 13.4799 24.2896 13.2815 23.994 13.2815C23.6985 13.2815 23.4404 13.4799 23.3665 13.764L22.8522 14.785C22.6221 15.2778 22.3167 15.7325 21.9469 16.1328C21.4938 16.1118 21.0526 15.9822 20.661 15.755C20.3113 15.5712 20.1261 16.0103 20.2598 16.7761L20.733 19.2879C20.8644 19.8729 20.8644 20.4795 20.733 21.0645C20.6096 21.3198 19.7866 20.6765 19.2928 20.115L18.8402 19.6044C18.3464 19.0531 17.8629 18.8897 17.8115 19.2368C17.7377 19.5177 17.6378 19.7911 17.5132 20.0537C16.9291 20.1087 16.3398 20.0567 15.7746 19.9005H15.6306C15.3353 19.7457 14.9728 19.7999 14.7367 20.0343C14.5005 20.2687 14.4459 20.6285 14.6019 20.9216V21.085C14.7973 21.7895 15.0134 22.5655 15.0957 22.8003C14.9575 23.1794 14.6613 23.4808 14.283 23.6274C14.0052 23.7601 14.283 24.2502 14.8282 24.7301L17.6057 27.0071C18.0258 27.3209 18.4245 27.662 18.799 28.0282C18.8393 28.4212 18.7937 28.8182 18.6653 29.1922C18.5522 29.5802 19.0665 29.8252 19.8175 29.7435L21.9469 29.4985C22.4644 29.4226 22.9876 29.3918 23.5106 29.4066C23.6703 29.9112 23.7194 30.4438 23.6546 30.9688L23.5517 33.4908C23.4224 33.9635 23.5555 34.4689 23.9015 34.8182C24.2547 34.473 24.3993 33.9689 24.2821 33.4908L24.2204 30.979C24.1845 30.484 24.2122 29.9865 24.3027 29.4985C24.8403 29.404 25.3904 29.404 25.928 29.4985L28.0575 29.7435C28.8084 29.8354 29.3331 29.5802 29.2096 29.1922C29.1077 28.8772 29.0421 28.5518 29.0142 28.2222C29.3722 27.7018 29.8135 27.2431 30.3206 26.8642L33.0982 24.5872C33.6742 24.1175 33.9211 23.6172 33.6434 23.4844C33.3959 23.3744 33.1696 23.2223 32.9747 23.0352C32.9973 22.3218 33.1149 21.6145 33.3245 20.9318V20.7684C33.4805 20.4753 33.4259 20.1155 33.1897 19.8811C32.9536 19.6467 32.5911 19.5925 32.2958 19.7474H32.1518C31.6369 19.8772 31.1089 19.9491 30.5778 19.9618C30.3517 19.7138 30.1955 19.4108 30.1252 19.0837C30.0223 18.7263 29.5388 18.8999 29.0965 19.4513L28.6438 19.9618C28.2511 20.4358 27.786 20.8458 27.2654 21.1769C26.9979 21.2892 27.0905 19.8495 27.2654 19.1347L27.7386 16.6229C27.8723 15.9082 27.7386 15.4691 27.3374 15.6019C27.0047 15.7738 26.6611 15.9239 26.3087 16.0511C25.7759 15.7037 25.3602 15.2058 25.1153 14.6217L24.6216 13.764Z" fill="#D12C35"/>
</g>
<defs>
<clipPath id="clip0_162_988">
<rect width="48" height="48" rx="24" fill="white"/>
</clipPath>
</defs>
</svg>
