<svg width="654" height="548" viewBox="0 0 654 548" fill="none" xmlns="http://www.w3.org/2000/svg">
<path d="M372 360C372 351.163 379.163 344 388 344H574C582.837 344 590 351.163 590 360V460C590 486.51 568.51 508 542 508H388C379.163 508 372 500.837 372 492V360Z" fill="white"/>
<circle cx="416" cy="468" r="20" fill="#F3F4F7"/>
<path opacity="0.3" fill-rule="evenodd" clip-rule="evenodd" d="M416.191 458.111C415.729 458 415.249 458 414.614 458C413.971 458 413.329 458 412.687 458C412.377 458 412.068 458 411.759 458C410.954 458 410.289 458 409.748 458.044C409.186 458.09 408.669 458.189 408.184 458.436C407.431 458.82 406.82 459.431 406.436 460.184C406.189 460.669 406.09 461.186 406.044 461.748C406 462.289 406 462.954 406 463.759C406 464.71 406 465.662 406 466.614C406 467.249 406 467.729 406.111 468.191C406.209 468.599 406.37 468.99 406.59 469.347C406.838 469.753 407.178 470.092 407.627 470.541C408.7 471.613 409.772 472.685 410.844 473.758C411.372 474.286 411.9 474.814 412.428 475.342C412.997 475.912 413.467 476.381 413.881 476.733C414.311 477.098 414.746 477.393 415.264 477.562C416.067 477.823 416.933 477.823 417.736 477.562C418.254 477.393 418.689 477.098 419.119 476.733C419.533 476.381 420.003 475.911 420.572 475.342L423.342 472.572C423.911 472.003 424.381 471.533 424.733 471.119C425.098 470.689 425.393 470.254 425.562 469.736C425.823 468.933 425.823 468.067 425.562 467.264C425.393 466.746 425.098 466.311 424.733 465.881C424.381 465.467 423.912 464.997 423.342 464.428C422.814 463.9 422.286 463.372 421.758 462.844C420.686 461.772 419.613 460.7 418.541 459.627C418.092 459.178 417.753 458.838 417.347 458.59C416.99 458.37 416.599 458.209 416.191 458.111Z" fill="#162042"/>
<path d="M411 464.5C411.828 464.5 412.5 463.828 412.5 463C412.5 462.172 411.828 461.5 411 461.5C410.172 461.5 409.5 462.172 409.5 463C409.5 463.828 410.172 464.5 411 464.5Z" fill="#162042"/>
<circle cx="451" cy="468" r="21.5" fill="#F3F4F7" stroke="white" stroke-width="3"/>
<path opacity="0.3" fill-rule="evenodd" clip-rule="evenodd" d="M457.423 461.577C457.749 461.903 457.749 462.43 457.423 462.756L445.757 474.423C445.431 474.748 444.904 474.748 444.578 474.423C444.253 474.097 444.253 473.569 444.578 473.244L456.245 461.577C456.57 461.252 457.098 461.252 457.423 461.577Z" fill="black"/>
<path d="M444.334 463.833C444.334 462.453 445.453 461.333 446.834 461.333C448.215 461.333 449.334 462.453 449.334 463.833C449.334 465.214 448.215 466.333 446.834 466.333C445.453 466.333 444.334 465.214 444.334 463.833Z" fill="black"/>
<path d="M452.666 472.167C452.666 470.786 453.785 469.667 455.166 469.667C456.547 469.667 457.666 470.786 457.666 472.167C457.666 473.547 456.547 474.667 455.166 474.667C453.785 474.667 452.666 473.547 452.666 472.167Z" fill="black"/>
<circle cx="550" cy="468" r="20" fill="#162042"/>
<path d="M545 463L555 473M555 473V465.5M555 473H547.5" stroke="white" stroke-width="1.5" stroke-linecap="round" stroke-linejoin="round"/>
<path d="M398.64 400V372H416.24V376.8H403.92V383.56H415.28V388.36H403.92V400H398.64ZM429.051 400.56C427.078 400.56 425.331 400.147 423.811 399.32C422.318 398.467 421.144 397.28 420.291 395.76C419.464 394.213 419.051 392.4 419.051 390.32V389.84C419.051 387.76 419.464 385.96 420.291 384.44C421.118 382.893 422.278 381.707 423.771 380.88C425.264 380.027 426.998 379.6 428.971 379.6C430.918 379.6 432.611 380.04 434.051 380.92C435.491 381.773 436.611 382.973 437.411 384.52C438.211 386.04 438.611 387.813 438.611 389.84V391.56H424.171C424.224 392.92 424.731 394.027 425.691 394.88C426.651 395.733 427.824 396.16 429.211 396.16C430.624 396.16 431.664 395.853 432.331 395.24C432.998 394.627 433.504 393.947 433.851 393.2L437.971 395.36C437.598 396.053 437.051 396.813 436.331 397.64C435.638 398.44 434.704 399.133 433.531 399.72C432.358 400.28 430.864 400.56 429.051 400.56ZM424.211 387.8H433.491C433.384 386.653 432.918 385.733 432.091 385.04C431.291 384.347 430.238 384 428.931 384C427.571 384 426.491 384.347 425.691 385.04C424.891 385.733 424.398 386.653 424.211 387.8ZM452.137 400.56C450.164 400.56 448.417 400.147 446.897 399.32C445.404 398.467 444.23 397.28 443.377 395.76C442.55 394.213 442.137 392.4 442.137 390.32V389.84C442.137 387.76 442.55 385.96 443.377 384.44C444.204 382.893 445.364 381.707 446.857 380.88C448.35 380.027 450.084 379.6 452.057 379.6C454.004 379.6 455.697 380.04 457.137 380.92C458.577 381.773 459.697 382.973 460.497 384.52C461.297 386.04 461.697 387.813 461.697 389.84V391.56H447.257C447.31 392.92 447.817 394.027 448.777 394.88C449.737 395.733 450.91 396.16 452.297 396.16C453.71 396.16 454.75 395.853 455.417 395.24C456.084 394.627 456.59 393.947 456.937 393.2L461.057 395.36C460.684 396.053 460.137 396.813 459.417 397.64C458.724 398.44 457.79 399.133 456.617 399.72C455.444 400.28 453.95 400.56 452.137 400.56ZM447.297 387.8H456.577C456.47 386.653 456.004 385.733 455.177 385.04C454.377 384.347 453.324 384 452.017 384C450.657 384 449.577 384.347 448.777 385.04C447.977 385.733 447.484 386.653 447.297 387.8ZM474.423 400.56C471.836 400.56 469.716 400 468.063 398.88C466.409 397.76 465.409 396.16 465.063 394.08L469.703 392.88C469.889 393.813 470.196 394.547 470.623 395.08C471.076 395.613 471.623 396 472.263 396.24C472.929 396.453 473.649 396.56 474.423 396.56C475.596 396.56 476.463 396.36 477.023 395.96C477.583 395.533 477.863 395.013 477.863 394.4C477.863 393.787 477.596 393.32 477.063 393C476.529 392.653 475.676 392.373 474.503 392.16L473.383 391.96C471.996 391.693 470.729 391.333 469.583 390.88C468.436 390.4 467.516 389.747 466.823 388.92C466.129 388.093 465.783 387.027 465.783 385.72C465.783 383.747 466.503 382.24 467.943 381.2C469.383 380.133 471.276 379.6 473.623 379.6C475.836 379.6 477.676 380.093 479.143 381.08C480.609 382.067 481.569 383.36 482.023 384.96L477.343 386.4C477.129 385.387 476.689 384.667 476.023 384.24C475.383 383.813 474.583 383.6 473.623 383.6C472.663 383.6 471.929 383.773 471.423 384.12C470.916 384.44 470.663 384.893 470.663 385.48C470.663 386.12 470.929 386.6 471.463 386.92C471.996 387.213 472.716 387.44 473.623 387.6L474.743 387.8C476.236 388.067 477.583 388.427 478.783 388.88C480.009 389.307 480.969 389.933 481.663 390.76C482.383 391.56 482.743 392.653 482.743 394.04C482.743 396.12 481.983 397.733 480.463 398.88C478.969 400 476.956 400.56 474.423 400.56Z" fill="#162042"/>
<path opacity="0.7" d="M399.276 427V418.726H396.35V417.2H403.882V418.726H400.956V427H399.276ZM406.387 427.196C405.902 427.196 405.463 427.112 405.071 426.944C404.679 426.767 404.367 426.515 404.133 426.188C403.909 425.861 403.797 425.46 403.797 424.984C403.797 424.517 403.909 424.125 404.133 423.808C404.367 423.491 404.684 423.253 405.085 423.094C405.487 422.926 405.944 422.842 406.457 422.842H408.459V422.422C408.459 422.058 408.347 421.764 408.123 421.54C407.899 421.307 407.549 421.19 407.073 421.19C406.607 421.19 406.252 421.302 406.009 421.526C405.776 421.741 405.622 422.021 405.547 422.366L404.063 421.876C404.175 421.512 404.353 421.181 404.595 420.882C404.847 420.583 405.179 420.345 405.589 420.168C406 419.981 406.504 419.888 407.101 419.888C408.007 419.888 408.716 420.117 409.229 420.574C409.752 421.022 410.013 421.675 410.013 422.534V425.25C410.013 425.53 410.144 425.67 410.405 425.67H410.993V427H409.859C409.523 427 409.248 426.916 409.033 426.748C408.819 426.58 408.711 426.351 408.711 426.062V426.034H408.473C408.417 426.165 408.319 426.323 408.179 426.51C408.039 426.697 407.825 426.86 407.535 427C407.255 427.131 406.873 427.196 406.387 427.196ZM406.653 425.88C407.185 425.88 407.619 425.731 407.955 425.432C408.291 425.124 408.459 424.713 408.459 424.2V424.06H406.555C406.21 424.06 405.93 424.135 405.715 424.284C405.501 424.433 405.393 424.653 405.393 424.942C405.393 425.222 405.505 425.451 405.729 425.628C405.953 425.796 406.261 425.88 406.653 425.88ZM412.521 427V420.084H414.131V427H412.521ZM413.319 419.202C413.03 419.202 412.778 419.109 412.563 418.922C412.358 418.726 412.255 418.469 412.255 418.152C412.255 417.835 412.358 417.583 412.563 417.396C412.778 417.2 413.03 417.102 413.319 417.102C413.627 417.102 413.879 417.2 414.075 417.396C414.281 417.583 414.383 417.835 414.383 418.152C414.383 418.469 414.281 418.726 414.075 418.922C413.879 419.109 413.627 419.202 413.319 419.202ZM416.368 427V417.2H417.978V427H416.368ZM423.49 427.196C422.8 427.196 422.179 427.056 421.628 426.776C421.087 426.487 420.658 426.081 420.34 425.558C420.032 425.026 419.878 424.391 419.878 423.654V423.43C419.878 422.693 420.032 422.058 420.34 421.526C420.658 420.994 421.087 420.588 421.628 420.308C422.179 420.028 422.8 419.888 423.49 419.888C424.181 419.888 424.797 420.028 425.338 420.308C425.88 420.588 426.304 420.994 426.612 421.526C426.93 422.058 427.088 422.693 427.088 423.43V423.654C427.088 424.391 426.93 425.026 426.612 425.558C426.304 426.081 425.88 426.487 425.338 426.776C424.797 427.056 424.181 427.196 423.49 427.196ZM423.49 425.768C424.078 425.768 424.559 425.581 424.932 425.208C425.306 424.825 425.492 424.293 425.492 423.612V423.472C425.492 422.791 425.306 422.263 424.932 421.89C424.559 421.507 424.078 421.316 423.49 421.316C422.902 421.316 422.422 421.507 422.048 421.89C421.675 422.263 421.488 422.791 421.488 423.472V423.612C421.488 424.293 421.675 424.825 422.048 425.208C422.422 425.581 422.902 425.768 423.49 425.768ZM428.996 427V420.084H430.578V420.882H430.816C430.919 420.593 431.091 420.383 431.334 420.252C431.577 420.121 431.866 420.056 432.202 420.056H433.042V421.484H432.174C431.707 421.484 431.329 421.61 431.04 421.862C430.751 422.105 430.606 422.483 430.606 422.996V427H428.996ZM437.579 427.196C436.888 427.196 436.277 427.051 435.745 426.762C435.222 426.463 434.811 426.048 434.513 425.516C434.223 424.975 434.079 424.345 434.079 423.626V423.458C434.079 422.73 434.223 422.1 434.513 421.568C434.802 421.036 435.208 420.625 435.731 420.336C436.253 420.037 436.855 419.888 437.537 419.888C438.209 419.888 438.797 420.037 439.301 420.336C439.805 420.625 440.197 421.036 440.477 421.568C440.757 422.1 440.897 422.721 440.897 423.43V424.004H435.703C435.721 424.545 435.913 424.979 436.277 425.306C436.641 425.633 437.089 425.796 437.621 425.796C438.143 425.796 438.531 425.684 438.783 425.46C439.035 425.227 439.226 424.965 439.357 424.676L440.687 425.362C440.556 425.614 440.365 425.885 440.113 426.174C439.87 426.454 439.543 426.697 439.133 426.902C438.722 427.098 438.204 427.196 437.579 427.196ZM435.717 422.786H439.259C439.221 422.329 439.044 421.965 438.727 421.694C438.419 421.423 438.017 421.288 437.523 421.288C437.009 421.288 436.599 421.423 436.291 421.694C435.983 421.965 435.791 422.329 435.717 422.786ZM445.574 427.196C445.014 427.196 444.491 427.061 444.006 426.79C443.52 426.51 443.133 426.104 442.844 425.572C442.554 425.04 442.41 424.401 442.41 423.654V423.43C442.41 422.683 442.554 422.044 442.844 421.512C443.133 420.98 443.516 420.579 443.992 420.308C444.477 420.028 445.004 419.888 445.574 419.888C446.003 419.888 446.367 419.939 446.666 420.042C446.964 420.145 447.202 420.275 447.38 420.434C447.566 420.593 447.711 420.765 447.814 420.952H448.052V417.2H449.648V427H448.08V426.09H447.842C447.674 426.37 447.417 426.627 447.072 426.86C446.726 427.084 446.227 427.196 445.574 427.196ZM446.05 425.796C446.628 425.796 447.109 425.609 447.492 425.236C447.874 424.853 448.066 424.312 448.066 423.612V423.472C448.066 422.763 447.874 422.221 447.492 421.848C447.118 421.475 446.638 421.288 446.05 421.288C445.471 421.288 444.986 421.475 444.594 421.848C444.211 422.221 444.02 422.763 444.02 423.472V423.612C444.02 424.312 444.211 424.853 444.594 425.236C444.986 425.609 445.471 425.796 446.05 425.796ZM451.953 428.988V428.092H452.471C452.872 428.092 453.073 427.891 453.073 427.49V427.042H452.849C452.504 427.042 452.214 426.939 451.981 426.734C451.748 426.519 451.631 426.249 451.631 425.922C451.631 425.577 451.748 425.297 451.981 425.082C452.214 424.858 452.504 424.746 452.849 424.746C453.204 424.746 453.493 424.858 453.717 425.082C453.941 425.306 454.053 425.6 454.053 425.964V427.504C454.053 428.493 453.563 428.988 452.583 428.988H451.953ZM459.328 427V417.2H462.548L464.858 425.866H465.082V417.2H466.748V427H463.542L461.232 418.334H460.994V427H459.328ZM472.208 427.196C471.517 427.196 470.897 427.056 470.346 426.776C469.805 426.487 469.375 426.081 469.058 425.558C468.75 425.026 468.596 424.391 468.596 423.654V423.43C468.596 422.693 468.75 422.058 469.058 421.526C469.375 420.994 469.805 420.588 470.346 420.308C470.897 420.028 471.517 419.888 472.208 419.888C472.899 419.888 473.515 420.028 474.056 420.308C474.597 420.588 475.022 420.994 475.33 421.526C475.647 422.058 475.806 422.693 475.806 423.43V423.654C475.806 424.391 475.647 425.026 475.33 425.558C475.022 426.081 474.597 426.487 474.056 426.776C473.515 427.056 472.899 427.196 472.208 427.196ZM472.208 425.768C472.796 425.768 473.277 425.581 473.65 425.208C474.023 424.825 474.21 424.293 474.21 423.612V423.472C474.21 422.791 474.023 422.263 473.65 421.89C473.277 421.507 472.796 421.316 472.208 421.316C471.62 421.316 471.139 421.507 470.766 421.89C470.393 422.263 470.206 422.791 470.206 423.472V423.612C470.206 424.293 470.393 424.825 470.766 425.208C471.139 425.581 471.62 425.768 472.208 425.768ZM481.422 427V417.2H483.116V421.316H486.98V417.2H488.674V427H486.98V422.856H483.116V427H481.422ZM490.862 427V420.084H492.472V427H490.862ZM491.66 419.202C491.37 419.202 491.118 419.109 490.904 418.922C490.698 418.726 490.596 418.469 490.596 418.152C490.596 417.835 490.698 417.583 490.904 417.396C491.118 417.2 491.37 417.102 491.66 417.102C491.968 417.102 492.22 417.2 492.416 417.396C492.621 417.583 492.724 417.835 492.724 418.152C492.724 418.469 492.621 418.726 492.416 418.922C492.22 419.109 491.968 419.202 491.66 419.202ZM497.536 427.196C496.976 427.196 496.453 427.061 495.968 426.79C495.483 426.51 495.095 426.104 494.806 425.572C494.517 425.04 494.372 424.401 494.372 423.654V423.43C494.372 422.683 494.517 422.044 494.806 421.512C495.095 420.98 495.478 420.579 495.954 420.308C496.439 420.028 496.967 419.888 497.536 419.888C497.965 419.888 498.329 419.939 498.628 420.042C498.927 420.145 499.165 420.275 499.342 420.434C499.529 420.593 499.673 420.765 499.776 420.952H500.014V417.2H501.61V427H500.042V426.09H499.804C499.636 426.37 499.379 426.627 499.034 426.86C498.689 427.084 498.189 427.196 497.536 427.196ZM498.012 425.796C498.591 425.796 499.071 425.609 499.454 425.236C499.837 424.853 500.028 424.312 500.028 423.612V423.472C500.028 422.763 499.837 422.221 499.454 421.848C499.081 421.475 498.6 421.288 498.012 421.288C497.433 421.288 496.948 421.475 496.556 421.848C496.173 422.221 495.982 422.763 495.982 423.472V423.612C495.982 424.312 496.173 424.853 496.556 425.236C496.948 425.609 497.433 425.796 498.012 425.796ZM506.674 427.196C506.114 427.196 505.591 427.061 505.106 426.79C504.62 426.51 504.233 426.104 503.944 425.572C503.654 425.04 503.51 424.401 503.51 423.654V423.43C503.51 422.683 503.654 422.044 503.944 421.512C504.233 420.98 504.616 420.579 505.092 420.308C505.577 420.028 506.104 419.888 506.674 419.888C507.103 419.888 507.467 419.939 507.766 420.042C508.064 420.145 508.302 420.275 508.48 420.434C508.666 420.593 508.811 420.765 508.914 420.952H509.152V417.2H510.748V427H509.18V426.09H508.942C508.774 426.37 508.517 426.627 508.172 426.86C507.826 427.084 507.327 427.196 506.674 427.196ZM507.15 425.796C507.728 425.796 508.209 425.609 508.592 425.236C508.974 424.853 509.166 424.312 509.166 423.612V423.472C509.166 422.763 508.974 422.221 508.592 421.848C508.218 421.475 507.738 421.288 507.15 421.288C506.571 421.288 506.086 421.475 505.694 421.848C505.311 422.221 505.12 422.763 505.12 423.472V423.612C505.12 424.312 505.311 424.853 505.694 425.236C506.086 425.609 506.571 425.796 507.15 425.796ZM516.147 427.196C515.456 427.196 514.845 427.051 514.313 426.762C513.79 426.463 513.38 426.048 513.081 425.516C512.792 424.975 512.647 424.345 512.647 423.626V423.458C512.647 422.73 512.792 422.1 513.081 421.568C513.37 421.036 513.776 420.625 514.299 420.336C514.822 420.037 515.424 419.888 516.105 419.888C516.777 419.888 517.365 420.037 517.869 420.336C518.373 420.625 518.765 421.036 519.045 421.568C519.325 422.1 519.465 422.721 519.465 423.43V424.004H514.271C514.29 424.545 514.481 424.979 514.845 425.306C515.209 425.633 515.657 425.796 516.189 425.796C516.712 425.796 517.099 425.684 517.351 425.46C517.603 425.227 517.794 424.965 517.925 424.676L519.255 425.362C519.124 425.614 518.933 425.885 518.681 426.174C518.438 426.454 518.112 426.697 517.701 426.902C517.29 427.098 516.772 427.196 516.147 427.196ZM514.285 422.786H517.827C517.79 422.329 517.612 421.965 517.295 421.694C516.987 421.423 516.586 421.288 516.091 421.288C515.578 421.288 515.167 421.423 514.859 421.694C514.551 421.965 514.36 422.329 514.285 422.786ZM521.314 427V420.084H522.896V421.05H523.134C523.255 420.789 523.474 420.541 523.792 420.308C524.109 420.075 524.59 419.958 525.234 419.958C525.766 419.958 526.237 420.079 526.648 420.322C527.058 420.565 527.376 420.901 527.6 421.33C527.833 421.759 527.95 422.268 527.95 422.856V427H526.34V422.982C526.34 422.422 526.2 422.007 525.92 421.736C525.649 421.456 525.262 421.316 524.758 421.316C524.188 421.316 523.74 421.507 523.414 421.89C523.087 422.263 522.924 422.8 522.924 423.5V427H521.314Z" fill="#162042"/>
<path d="M40 128C40 119.163 47.1634 112 56 112H266C274.837 112 282 119.163 282 128V188C282 196.837 274.837 204 266 204H72C54.3269 204 40 189.673 40 172V128Z" fill="white"/>
<rect x="206" y="128" width="60" height="60" rx="30" fill="#F3F4F7"/>
<path opacity="0.3" d="M229.549 146H239.785C240.488 146 241.094 146 241.593 146.041C242.121 146.084 242.645 146.179 243.149 146.436C243.902 146.819 244.514 147.431 244.897 148.184C245.154 148.689 245.249 149.213 245.293 149.74C245.299 149.824 245.305 149.91 245.31 150H232C229.791 150 228 151.791 228 154V166C228 166.061 228.001 166.121 228.004 166.182L225.917 167.199C225.504 167.4 225.016 167.374 224.627 167.131C224.237 166.887 224 166.46 224 166V151.549C224 150.846 224 150.239 224.041 149.74C224.084 149.213 224.179 148.689 224.436 148.184C224.819 147.431 225.431 146.819 226.184 146.436C226.689 146.179 227.213 146.084 227.74 146.041C228.239 146 228.846 146 229.549 146Z" fill="#162042"/>
<path d="M243.784 152.667H236.215C235.512 152.667 234.905 152.667 234.406 152.708C233.879 152.751 233.355 152.846 232.85 153.103C232.097 153.486 231.485 154.098 231.102 154.851C230.845 155.355 230.75 155.88 230.707 156.407C230.666 156.906 230.666 157.512 230.666 158.215V161.785C230.666 162.488 230.666 163.094 230.707 163.593C230.75 164.121 230.845 164.645 231.102 165.149C231.485 165.902 232.097 166.514 232.85 166.897C233.355 167.154 233.879 167.25 234.406 167.293C234.905 167.333 235.512 167.333 236.215 167.333H242.707C243.234 167.333 243.337 167.338 243.426 167.354C243.529 167.372 243.629 167.403 243.725 167.445C243.809 167.481 243.897 167.534 244.335 167.826L247.26 169.776C247.669 170.049 248.195 170.074 248.629 169.842C249.062 169.61 249.333 169.158 249.333 168.667V158.215C249.333 157.513 249.333 156.906 249.292 156.407C249.249 155.88 249.154 155.355 248.897 154.851C248.513 154.098 247.901 153.486 247.149 153.103C246.644 152.846 246.12 152.751 245.593 152.708C245.093 152.667 244.487 152.667 243.784 152.667Z" fill="#162042"/>
<path d="M65.346 159V156.312C65.346 154.755 65.602 153.464 66.114 152.44C66.626 151.395 67.362 150.541 68.322 149.88C69.3033 149.197 70.498 148.643 71.906 148.216L74.05 147.544C74.8393 147.288 75.5006 146.979 76.034 146.616C76.5673 146.232 76.9726 145.773 77.25 145.24C77.5486 144.707 77.698 144.099 77.698 143.416V143.288C77.698 142.221 77.3353 141.379 76.61 140.76C75.8846 140.12 74.8926 139.8 73.634 139.8C72.3966 139.8 71.394 140.141 70.626 140.824C69.8793 141.485 69.506 142.445 69.506 143.704V144.28H65.41V143.768C65.41 142.147 65.7726 140.771 66.498 139.64C67.2233 138.509 68.2046 137.645 69.442 137.048C70.7006 136.451 72.098 136.152 73.634 136.152C75.17 136.152 76.5566 136.451 77.794 137.048C79.0313 137.624 80.002 138.445 80.706 139.512C81.4313 140.557 81.794 141.795 81.794 143.224V143.544C81.794 144.973 81.4953 146.189 80.898 147.192C80.322 148.173 79.5326 148.984 78.53 149.624C77.5273 150.243 76.386 150.755 75.106 151.16L73.058 151.8C72.1406 152.077 71.426 152.387 70.914 152.728C70.402 153.048 70.0393 153.411 69.826 153.816C69.634 154.2 69.538 154.669 69.538 155.224V155.352H81.602V159H65.346ZM94.3107 159V154.456H83.3027V149.72L91.0467 136.6H98.4067V150.808H102.119V154.456H98.4067V159H94.3107ZM87.2067 150.808H94.3107V139.224H93.7347L87.2067 150.296V150.808ZM102.302 165.4L111.71 136.6H115.742L106.334 165.4H102.302ZM119.413 159V158.168C119.413 157.336 119.477 156.632 119.605 156.056C119.733 155.459 120.01 154.787 120.437 154.04L127.957 140.76V140.248H116.053V136.6H132.181V141.464L124.245 155.64C123.967 156.131 123.775 156.568 123.669 156.952C123.562 157.336 123.509 157.805 123.509 158.36V159H119.413Z" fill="#162042"/>
<path opacity="0.7" d="M64.968 181V171.2H71.212V172.726H66.662V175.302H70.82V176.828H66.662V179.474H71.282V181H64.968ZM72.3973 181L74.9733 177.514L72.4393 174.084H74.3153L76.0093 176.478H76.2473L77.9413 174.084H79.8033L77.2693 177.514L79.8453 181H77.9553L76.2473 178.564H76.0093L74.3013 181H72.3973ZM81.4804 183.8V174.084H83.0624V174.994H83.3004C83.4591 174.705 83.7111 174.448 84.0564 174.224C84.4111 174 84.9151 173.888 85.5684 173.888C86.1284 173.888 86.6464 174.028 87.1224 174.308C87.6077 174.579 87.9951 174.98 88.2844 175.512C88.5737 176.044 88.7184 176.683 88.7184 177.43V177.654C88.7184 178.401 88.5737 179.04 88.2844 179.572C87.9951 180.104 87.6124 180.51 87.1364 180.79C86.6604 181.061 86.1377 181.196 85.5684 181.196C85.1297 181.196 84.7611 181.145 84.4624 181.042C84.1731 180.939 83.9351 180.804 83.7484 180.636C83.5711 180.468 83.4311 180.3 83.3284 180.132H83.0904V183.8H81.4804ZM85.0924 179.796C85.6804 179.796 86.1611 179.609 86.5344 179.236C86.9171 178.853 87.1084 178.312 87.1084 177.612V177.472C87.1084 176.763 86.9171 176.221 86.5344 175.848C86.1517 175.475 85.6711 175.288 85.0924 175.288C84.5137 175.288 84.0284 175.475 83.6364 175.848C83.2537 176.221 83.0624 176.763 83.0624 177.472V177.612C83.0624 178.312 83.2537 178.853 83.6364 179.236C84.0284 179.609 84.5137 179.796 85.0924 179.796ZM93.7818 181.196C93.0911 181.196 92.4798 181.051 91.9478 180.762C91.4251 180.463 91.0145 180.048 90.7158 179.516C90.4265 178.975 90.2818 178.345 90.2818 177.626V177.458C90.2818 176.73 90.4265 176.1 90.7158 175.568C91.0051 175.036 91.4111 174.625 91.9338 174.336C92.4565 174.037 93.0585 173.888 93.7398 173.888C94.4118 173.888 94.9998 174.037 95.5038 174.336C96.0078 174.625 96.3998 175.036 96.6798 175.568C96.9598 176.1 97.0998 176.721 97.0998 177.43V178.004H91.9058C91.9245 178.545 92.1158 178.979 92.4798 179.306C92.8438 179.633 93.2918 179.796 93.8238 179.796C94.3465 179.796 94.7338 179.684 94.9858 179.46C95.2378 179.227 95.4291 178.965 95.5598 178.676L96.8898 179.362C96.7591 179.614 96.5678 179.885 96.3158 180.174C96.0731 180.454 95.7465 180.697 95.3358 180.902C94.9251 181.098 94.4071 181.196 93.7818 181.196ZM91.9198 176.786H95.4618C95.4245 176.329 95.2471 175.965 94.9298 175.694C94.6218 175.423 94.2205 175.288 93.7258 175.288C93.2125 175.288 92.8018 175.423 92.4938 175.694C92.1858 175.965 91.9945 176.329 91.9198 176.786ZM98.9486 181V174.084H100.531V174.882H100.769C100.871 174.593 101.044 174.383 101.287 174.252C101.529 174.121 101.819 174.056 102.155 174.056H102.995V175.484H102.127C101.66 175.484 101.282 175.61 100.993 175.862C100.703 176.105 100.559 176.483 100.559 176.996V181H98.9486ZM107.245 181C106.797 181 106.438 180.869 106.167 180.608C105.906 180.337 105.775 179.973 105.775 179.516V175.414H103.969V174.084H105.775V171.858H107.385V174.084H109.373V175.414H107.385V179.25C107.385 179.53 107.516 179.67 107.777 179.67H109.163V181H107.245ZM117.828 181.196C116.932 181.196 116.195 181 115.616 180.608C115.037 180.216 114.687 179.642 114.566 178.886L116.05 178.508C116.115 178.863 116.232 179.143 116.4 179.348C116.568 179.553 116.773 179.698 117.016 179.782C117.268 179.866 117.539 179.908 117.828 179.908C118.267 179.908 118.593 179.829 118.808 179.67C119.032 179.511 119.144 179.311 119.144 179.068C119.144 178.816 119.037 178.629 118.822 178.508C118.617 178.387 118.299 178.284 117.87 178.2L117.436 178.13C116.96 178.037 116.526 177.911 116.134 177.752C115.742 177.584 115.425 177.36 115.182 177.08C114.949 176.791 114.832 176.427 114.832 175.988C114.832 175.316 115.079 174.798 115.574 174.434C116.078 174.07 116.736 173.888 117.548 173.888C118.323 173.888 118.962 174.061 119.466 174.406C119.97 174.751 120.297 175.213 120.446 175.792L118.962 176.24C118.887 175.848 118.724 175.573 118.472 175.414C118.22 175.246 117.912 175.162 117.548 175.162C117.175 175.162 116.885 175.227 116.68 175.358C116.484 175.489 116.386 175.675 116.386 175.918C116.386 176.161 116.489 176.343 116.694 176.464C116.899 176.585 117.175 176.674 117.52 176.73L117.954 176.814C118.467 176.907 118.929 177.029 119.34 177.178C119.76 177.327 120.091 177.542 120.334 177.822C120.577 178.102 120.698 178.48 120.698 178.956C120.698 179.675 120.437 180.23 119.914 180.622C119.401 181.005 118.705 181.196 117.828 181.196ZM125.17 181.112C124.638 181.112 124.166 180.995 123.756 180.762C123.345 180.519 123.028 180.183 122.804 179.754C122.58 179.315 122.468 178.807 122.468 178.228V174.084H124.064V178.102C124.064 178.662 124.199 179.077 124.47 179.348C124.75 179.619 125.142 179.754 125.646 179.754C126.215 179.754 126.663 179.567 126.99 179.194C127.326 178.821 127.494 178.284 127.494 177.584V174.084H129.09V181H127.522V180.034H127.284C127.162 180.286 126.938 180.529 126.612 180.762C126.294 180.995 125.814 181.112 125.17 181.112ZM131.333 183.8V174.084H132.915V174.994H133.153C133.312 174.705 133.564 174.448 133.909 174.224C134.264 174 134.768 173.888 135.421 173.888C135.981 173.888 136.499 174.028 136.975 174.308C137.46 174.579 137.848 174.98 138.137 175.512C138.426 176.044 138.571 176.683 138.571 177.43V177.654C138.571 178.401 138.426 179.04 138.137 179.572C137.848 180.104 137.465 180.51 136.989 180.79C136.513 181.061 135.99 181.196 135.421 181.196C134.982 181.196 134.614 181.145 134.315 181.042C134.026 180.939 133.788 180.804 133.601 180.636C133.424 180.468 133.284 180.3 133.181 180.132H132.943V183.8H131.333ZM134.945 179.796C135.533 179.796 136.014 179.609 136.387 179.236C136.77 178.853 136.961 178.312 136.961 177.612V177.472C136.961 176.763 136.77 176.221 136.387 175.848C136.004 175.475 135.524 175.288 134.945 175.288C134.366 175.288 133.881 175.475 133.489 175.848C133.106 176.221 132.915 176.763 132.915 177.472V177.612C132.915 178.312 133.106 178.853 133.489 179.236C133.881 179.609 134.366 179.796 134.945 179.796ZM140.47 183.8V174.084H142.052V174.994H142.29C142.449 174.705 142.701 174.448 143.046 174.224C143.401 174 143.905 173.888 144.558 173.888C145.118 173.888 145.636 174.028 146.112 174.308C146.598 174.579 146.985 174.98 147.274 175.512C147.564 176.044 147.708 176.683 147.708 177.43V177.654C147.708 178.401 147.564 179.04 147.274 179.572C146.985 180.104 146.602 180.51 146.126 180.79C145.65 181.061 145.128 181.196 144.558 181.196C144.12 181.196 143.751 181.145 143.452 181.042C143.163 180.939 142.925 180.804 142.738 180.636C142.561 180.468 142.421 180.3 142.318 180.132H142.08V183.8H140.47ZM144.082 179.796C144.67 179.796 145.151 179.609 145.524 179.236C145.907 178.853 146.098 178.312 146.098 177.612V177.472C146.098 176.763 145.907 176.221 145.524 175.848C145.142 175.475 144.661 175.288 144.082 175.288C143.504 175.288 143.018 175.475 142.626 175.848C142.244 176.221 142.052 176.763 142.052 177.472V177.612C142.052 178.312 142.244 178.853 142.626 179.236C143.018 179.609 143.504 179.796 144.082 179.796ZM152.884 181.196C152.193 181.196 151.572 181.056 151.022 180.776C150.48 180.487 150.051 180.081 149.734 179.558C149.426 179.026 149.272 178.391 149.272 177.654V177.43C149.272 176.693 149.426 176.058 149.734 175.526C150.051 174.994 150.48 174.588 151.022 174.308C151.572 174.028 152.193 173.888 152.884 173.888C153.574 173.888 154.19 174.028 154.732 174.308C155.273 174.588 155.698 174.994 156.006 175.526C156.323 176.058 156.482 176.693 156.482 177.43V177.654C156.482 178.391 156.323 179.026 156.006 179.558C155.698 180.081 155.273 180.487 154.732 180.776C154.19 181.056 153.574 181.196 152.884 181.196ZM152.884 179.768C153.472 179.768 153.952 179.581 154.326 179.208C154.699 178.825 154.886 178.293 154.886 177.612V177.472C154.886 176.791 154.699 176.263 154.326 175.89C153.952 175.507 153.472 175.316 152.884 175.316C152.296 175.316 151.815 175.507 151.442 175.89C151.068 176.263 150.882 176.791 150.882 177.472V177.612C150.882 178.293 151.068 178.825 151.442 179.208C151.815 179.581 152.296 179.768 152.884 179.768ZM158.39 181V174.084H159.972V174.882H160.21C160.312 174.593 160.485 174.383 160.728 174.252C160.97 174.121 161.26 174.056 161.596 174.056H162.436V175.484H161.568C161.101 175.484 160.723 175.61 160.434 175.862C160.144 176.105 160 176.483 160 176.996V181H158.39ZM166.686 181C166.238 181 165.879 180.869 165.608 180.608C165.347 180.337 165.216 179.973 165.216 179.516V175.414H163.41V174.084H165.216V171.858H166.826V174.084H168.814V175.414H166.826V179.25C166.826 179.53 166.957 179.67 167.218 179.67H168.604V181H166.686Z" fill="#162042"/>
<path d="M72 376C72 358.327 86.3269 344 104 344H301C309.837 344 317 351.163 317 360V420C317 428.837 309.837 436 301 436H88C79.1634 436 72 428.837 72 420V376Z" fill="white"/>
<path d="M104.44 386.336C103.16 386.336 102.024 386.112 101.032 385.664C100.056 385.2 99.288 384.536 98.728 383.672C98.168 382.808 97.888 381.752 97.888 380.504V379.88H100.744V380.504C100.744 381.608 101.08 382.432 101.752 382.976C102.424 383.52 103.32 383.792 104.44 383.792C105.576 383.792 106.432 383.56 107.008 383.096C107.584 382.632 107.872 382.032 107.872 381.296C107.872 380.8 107.736 380.4 107.464 380.096C107.192 379.776 106.792 379.52 106.264 379.328C105.752 379.136 105.128 378.952 104.392 378.776L103.672 378.632C102.568 378.376 101.608 378.056 100.792 377.672C99.992 377.272 99.376 376.76 98.944 376.136C98.512 375.512 98.296 374.696 98.296 373.688C98.296 372.68 98.536 371.816 99.016 371.096C99.496 370.376 100.176 369.824 101.056 369.44C101.936 369.056 102.968 368.864 104.152 368.864C105.336 368.864 106.392 369.064 107.32 369.464C108.248 369.864 108.976 370.464 109.504 371.264C110.048 372.064 110.32 373.064 110.32 374.264V375.056H107.464V374.264C107.464 373.576 107.328 373.024 107.056 372.608C106.784 372.192 106.4 371.888 105.904 371.696C105.408 371.504 104.824 371.408 104.152 371.408C103.16 371.408 102.408 371.6 101.896 371.984C101.384 372.368 101.128 372.912 101.128 373.616C101.128 374.064 101.24 374.448 101.464 374.768C101.704 375.072 102.048 375.328 102.496 375.536C102.96 375.728 103.536 375.896 104.224 376.04L104.944 376.208C106.096 376.464 107.104 376.792 107.968 377.192C108.832 377.576 109.504 378.088 109.984 378.728C110.48 379.368 110.728 380.2 110.728 381.224C110.728 382.232 110.464 383.12 109.936 383.888C109.424 384.656 108.696 385.256 107.752 385.688C106.824 386.12 105.72 386.336 104.44 386.336ZM117.914 386C117.146 386 116.53 385.776 116.066 385.328C115.618 384.864 115.394 384.24 115.394 383.456V376.424H112.298V374.144H115.394V370.328H118.154V374.144H121.562V376.424H118.154V383C118.154 383.48 118.378 383.72 118.826 383.72H121.202V386H117.914ZM124.418 386V374.144H127.13V375.512H127.538C127.714 375.016 128.01 374.656 128.426 374.432C128.842 374.208 129.338 374.096 129.914 374.096H131.354V376.544H129.866C129.066 376.544 128.418 376.76 127.922 377.192C127.426 377.608 127.178 378.256 127.178 379.136V386H124.418ZM138.377 386.192C137.465 386.192 136.657 385.992 135.953 385.592C135.249 385.176 134.705 384.6 134.321 383.864C133.937 383.112 133.745 382.24 133.745 381.248V374.144H136.481V381.032C136.481 381.992 136.713 382.704 137.177 383.168C137.657 383.632 138.329 383.864 139.193 383.864C140.169 383.864 140.937 383.544 141.497 382.904C142.073 382.264 142.361 381.344 142.361 380.144V374.144H145.097V386H142.409V384.344H142.001C141.793 384.776 141.409 385.192 140.849 385.592C140.305 385.992 139.481 386.192 138.377 386.192ZM154.199 386.336C153.047 386.336 152.007 386.096 151.079 385.616C150.151 385.136 149.415 384.44 148.871 383.528C148.343 382.616 148.079 381.52 148.079 380.24V379.904C148.079 378.624 148.343 377.528 148.871 376.616C149.415 375.704 150.151 375.008 151.079 374.528C152.007 374.048 153.047 373.808 154.199 373.808C155.335 373.808 156.303 374.008 157.103 374.408C157.919 374.808 158.575 375.36 159.071 376.064C159.567 376.752 159.887 377.528 160.031 378.392L157.367 378.944C157.303 378.448 157.151 378 156.911 377.6C156.671 377.184 156.327 376.856 155.879 376.616C155.447 376.376 154.911 376.256 154.271 376.256C153.615 376.256 153.023 376.4 152.495 376.688C151.983 376.96 151.575 377.376 151.271 377.936C150.983 378.496 150.839 379.168 150.839 379.952V380.192C150.839 380.976 150.983 381.648 151.271 382.208C151.575 382.752 151.983 383.168 152.495 383.456C153.023 383.744 153.615 383.888 154.271 383.888C155.247 383.888 155.983 383.64 156.479 383.144C156.991 382.632 157.311 381.976 157.439 381.176L160.103 381.8C159.911 382.632 159.567 383.392 159.071 384.08C158.575 384.768 157.919 385.32 157.103 385.736C156.303 386.136 155.335 386.336 154.199 386.336ZM166.949 386C166.181 386 165.565 385.776 165.101 385.328C164.653 384.864 164.429 384.24 164.429 383.456V376.424H161.333V374.144H164.429V370.328H167.189V374.144H170.597V376.424H167.189V383C167.189 383.48 167.413 383.72 167.861 383.72H170.237V386H166.949ZM177.99 386.192C177.078 386.192 176.27 385.992 175.566 385.592C174.862 385.176 174.318 384.6 173.934 383.864C173.55 383.112 173.358 382.24 173.358 381.248V374.144H176.094V381.032C176.094 381.992 176.326 382.704 176.79 383.168C177.27 383.632 177.942 383.864 178.806 383.864C179.782 383.864 180.55 383.544 181.11 382.904C181.686 382.264 181.974 381.344 181.974 380.144V374.144H184.71V386H182.022V384.344H181.614C181.406 384.776 181.022 385.192 180.462 385.592C179.918 385.992 179.094 386.192 177.99 386.192ZM188.268 386V374.144H190.98V375.512H191.388C191.564 375.016 191.86 374.656 192.276 374.432C192.692 374.208 193.188 374.096 193.764 374.096H195.204V376.544H193.716C192.916 376.544 192.268 376.76 191.772 377.192C191.276 377.608 191.028 378.256 191.028 379.136V386H188.268ZM202.693 386.336C201.509 386.336 200.461 386.088 199.549 385.592C198.653 385.08 197.949 384.368 197.437 383.456C196.941 382.528 196.693 381.448 196.693 380.216V379.928C196.693 378.68 196.941 377.6 197.437 376.688C197.933 375.776 198.629 375.072 199.525 374.576C200.421 374.064 201.453 373.808 202.621 373.808C203.773 373.808 204.781 374.064 205.645 374.576C206.509 375.072 207.181 375.776 207.661 376.688C208.141 377.6 208.381 378.664 208.381 379.88V380.864H199.477C199.509 381.792 199.837 382.536 200.461 383.096C201.085 383.656 201.853 383.936 202.765 383.936C203.661 383.936 204.325 383.744 204.757 383.36C205.189 382.96 205.517 382.512 205.741 382.016L208.021 383.192C207.797 383.624 207.469 384.088 207.037 384.584C206.621 385.064 206.061 385.48 205.357 385.832C204.653 386.168 203.765 386.336 202.693 386.336ZM199.501 378.776H205.573C205.509 377.992 205.205 377.368 204.661 376.904C204.133 376.44 203.445 376.208 202.597 376.208C201.717 376.208 201.013 376.44 200.485 376.904C199.957 377.368 199.629 377.992 199.501 378.776ZM216.11 386.336C215.15 386.336 214.254 386.104 213.422 385.64C212.59 385.16 211.926 384.464 211.43 383.552C210.934 382.64 210.686 381.544 210.686 380.264V379.88C210.686 378.6 210.934 377.504 211.43 376.592C211.926 375.68 212.582 374.992 213.398 374.528C214.23 374.048 215.134 373.808 216.11 373.808C216.846 373.808 217.47 373.896 217.982 374.072C218.494 374.248 218.902 374.472 219.206 374.744C219.526 375.016 219.774 375.312 219.95 375.632H220.358V369.2H223.094V386H220.406V384.44H219.998C219.71 384.92 219.27 385.36 218.678 385.76C218.086 386.144 217.23 386.336 216.11 386.336ZM216.926 383.936C217.918 383.936 218.742 383.616 219.398 382.976C220.054 382.32 220.382 381.392 220.382 380.192V379.952C220.382 378.736 220.054 377.808 219.398 377.168C218.758 376.528 217.934 376.208 216.926 376.208C215.934 376.208 215.102 376.528 214.43 377.168C213.774 377.808 213.446 378.736 213.446 379.952V380.192C213.446 381.392 213.774 382.32 214.43 382.976C215.102 383.616 215.934 383.936 216.926 383.936ZM239.019 386.336C236.971 386.336 235.339 385.76 234.123 384.608C232.907 383.44 232.299 381.768 232.299 379.592V375.608C232.299 373.432 232.907 371.768 234.123 370.616C235.339 369.448 236.971 368.864 239.019 368.864C241.067 368.864 242.643 369.424 243.747 370.544C244.867 371.664 245.427 373.2 245.427 375.152V375.296H242.595V375.08C242.595 374.024 242.299 373.16 241.707 372.488C241.131 371.8 240.235 371.456 239.019 371.456C237.835 371.456 236.899 371.824 236.211 372.56C235.539 373.28 235.203 374.28 235.203 375.56V379.64C235.203 380.904 235.539 381.904 236.211 382.64C236.899 383.376 237.835 383.744 239.019 383.744C240.235 383.744 241.131 383.408 241.707 382.736C242.299 382.048 242.595 381.176 242.595 380.12V379.712H245.427V380.048C245.427 382 244.867 383.536 243.747 384.656C242.643 385.776 241.067 386.336 239.019 386.336ZM248.273 386V369.2H251.033V386H248.273ZM260.003 386.336C258.819 386.336 257.771 386.088 256.859 385.592C255.963 385.08 255.259 384.368 254.747 383.456C254.251 382.528 254.003 381.448 254.003 380.216V379.928C254.003 378.68 254.251 377.6 254.747 376.688C255.243 375.776 255.939 375.072 256.835 374.576C257.731 374.064 258.763 373.808 259.931 373.808C261.083 373.808 262.091 374.064 262.955 374.576C263.819 375.072 264.491 375.776 264.971 376.688C265.451 377.6 265.691 378.664 265.691 379.88V380.864H256.787C256.819 381.792 257.147 382.536 257.771 383.096C258.395 383.656 259.163 383.936 260.075 383.936C260.971 383.936 261.635 383.744 262.067 383.36C262.499 382.96 262.827 382.512 263.051 382.016L265.331 383.192C265.107 383.624 264.779 384.088 264.347 384.584C263.931 385.064 263.371 385.48 262.667 385.832C261.963 386.168 261.075 386.336 260.003 386.336ZM256.811 378.776H262.883C262.819 377.992 262.515 377.368 261.971 376.904C261.443 376.44 260.755 376.208 259.907 376.208C259.027 376.208 258.323 376.44 257.795 376.904C257.267 377.368 256.939 377.992 256.811 378.776ZM272.244 386.336C271.412 386.336 270.66 386.192 269.988 385.904C269.316 385.6 268.78 385.168 268.38 384.608C267.996 384.048 267.804 383.36 267.804 382.544C267.804 381.744 267.996 381.072 268.38 380.528C268.78 379.984 269.324 379.576 270.012 379.304C270.7 379.016 271.484 378.872 272.364 378.872H275.796V378.152C275.796 377.528 275.604 377.024 275.22 376.64C274.836 376.24 274.236 376.04 273.42 376.04C272.62 376.04 272.012 376.232 271.596 376.616C271.196 376.984 270.932 377.464 270.804 378.056L268.26 377.216C268.452 376.592 268.756 376.024 269.172 375.512C269.604 375 270.172 374.592 270.876 374.288C271.58 373.968 272.444 373.808 273.468 373.808C275.02 373.808 276.236 374.2 277.116 374.984C278.012 375.752 278.46 376.872 278.46 378.344V383C278.46 383.48 278.684 383.72 279.132 383.72H280.14V386H278.196C277.62 386 277.148 385.856 276.78 385.568C276.412 385.28 276.228 384.888 276.228 384.392V384.344H275.82C275.724 384.568 275.556 384.84 275.316 385.16C275.076 385.48 274.708 385.76 274.212 386C273.732 386.224 273.076 386.336 272.244 386.336ZM272.7 384.08C273.612 384.08 274.356 383.824 274.932 383.312C275.508 382.784 275.796 382.08 275.796 381.2V380.96H272.532C271.94 380.96 271.46 381.088 271.092 381.344C270.724 381.6 270.54 381.976 270.54 382.472C270.54 382.952 270.732 383.344 271.116 383.648C271.5 383.936 272.028 384.08 272.7 384.08ZM282.472 386V374.144H285.184V375.512H285.592C285.768 375.016 286.064 374.656 286.48 374.432C286.896 374.208 287.392 374.096 287.968 374.096H289.408V376.544H287.92C287.12 376.544 286.472 376.76 285.976 377.192C285.48 377.608 285.232 378.256 285.232 379.136V386H282.472Z" fill="#162042"/>
<path opacity="0.7" d="M97.966 411V401.2H104.07V402.726H99.66V405.316H103.72V406.856H99.66V411H97.966ZM107.743 411.196C107.257 411.196 106.819 411.112 106.427 410.944C106.035 410.767 105.722 410.515 105.489 410.188C105.265 409.861 105.153 409.46 105.153 408.984C105.153 408.517 105.265 408.125 105.489 407.808C105.722 407.491 106.039 407.253 106.441 407.094C106.842 406.926 107.299 406.842 107.813 406.842H109.815V406.422C109.815 406.058 109.703 405.764 109.479 405.54C109.255 405.307 108.905 405.19 108.429 405.19C107.962 405.19 107.607 405.302 107.365 405.526C107.131 405.741 106.977 406.021 106.903 406.366L105.419 405.876C105.531 405.512 105.708 405.181 105.951 404.882C106.203 404.583 106.534 404.345 106.945 404.168C107.355 403.981 107.859 403.888 108.457 403.888C109.362 403.888 110.071 404.117 110.585 404.574C111.107 405.022 111.369 405.675 111.369 406.534V409.25C111.369 409.53 111.499 409.67 111.761 409.67H112.349V411H111.215C110.879 411 110.603 410.916 110.389 410.748C110.174 410.58 110.067 410.351 110.067 410.062V410.034H109.829C109.773 410.165 109.675 410.323 109.535 410.51C109.395 410.697 109.18 410.86 108.891 411C108.611 411.131 108.228 411.196 107.743 411.196ZM108.009 409.88C108.541 409.88 108.975 409.731 109.311 409.432C109.647 409.124 109.815 408.713 109.815 408.2V408.06H107.911C107.565 408.06 107.285 408.135 107.071 408.284C106.856 408.433 106.749 408.653 106.749 408.942C106.749 409.222 106.861 409.451 107.085 409.628C107.309 409.796 107.617 409.88 108.009 409.88ZM116.678 411.196C115.782 411.196 115.045 411 114.466 410.608C113.888 410.216 113.538 409.642 113.416 408.886L114.9 408.508C114.966 408.863 115.082 409.143 115.25 409.348C115.418 409.553 115.624 409.698 115.866 409.782C116.118 409.866 116.389 409.908 116.678 409.908C117.117 409.908 117.444 409.829 117.658 409.67C117.882 409.511 117.994 409.311 117.994 409.068C117.994 408.816 117.887 408.629 117.672 408.508C117.467 408.387 117.15 408.284 116.72 408.2L116.286 408.13C115.81 408.037 115.376 407.911 114.984 407.752C114.592 407.584 114.275 407.36 114.032 407.08C113.799 406.791 113.682 406.427 113.682 405.988C113.682 405.316 113.93 404.798 114.424 404.434C114.928 404.07 115.586 403.888 116.398 403.888C117.173 403.888 117.812 404.061 118.316 404.406C118.82 404.751 119.147 405.213 119.296 405.792L117.812 406.24C117.738 405.848 117.574 405.573 117.322 405.414C117.07 405.246 116.762 405.162 116.398 405.162C116.025 405.162 115.736 405.227 115.53 405.358C115.334 405.489 115.236 405.675 115.236 405.918C115.236 406.161 115.339 406.343 115.544 406.464C115.75 406.585 116.025 406.674 116.37 406.73L116.804 406.814C117.318 406.907 117.78 407.029 118.19 407.178C118.61 407.327 118.942 407.542 119.184 407.822C119.427 408.102 119.548 408.48 119.548 408.956C119.548 409.675 119.287 410.23 118.764 410.622C118.251 411.005 117.556 411.196 116.678 411.196ZM123.869 411C123.421 411 123.062 410.869 122.791 410.608C122.53 410.337 122.399 409.973 122.399 409.516V405.414H120.593V404.084H122.399V401.858H124.009V404.084H125.997V405.414H124.009V409.25C124.009 409.53 124.14 409.67 124.401 409.67H125.787V411H123.869ZM134.872 411.196C134.181 411.196 133.56 411.056 133.01 410.776C132.468 410.487 132.039 410.081 131.722 409.558C131.414 409.026 131.26 408.391 131.26 407.654V407.43C131.26 406.693 131.414 406.058 131.722 405.526C132.039 404.994 132.468 404.588 133.01 404.308C133.56 404.028 134.181 403.888 134.872 403.888C135.562 403.888 136.178 404.028 136.72 404.308C137.261 404.588 137.686 404.994 137.994 405.526C138.311 406.058 138.47 406.693 138.47 407.43V407.654C138.47 408.391 138.311 409.026 137.994 409.558C137.686 410.081 137.261 410.487 136.72 410.776C136.178 411.056 135.562 411.196 134.872 411.196ZM134.872 409.768C135.46 409.768 135.94 409.581 136.314 409.208C136.687 408.825 136.874 408.293 136.874 407.612V407.472C136.874 406.791 136.687 406.263 136.314 405.89C135.94 405.507 135.46 405.316 134.872 405.316C134.284 405.316 133.803 405.507 133.43 405.89C133.056 406.263 132.87 406.791 132.87 407.472V407.612C132.87 408.293 133.056 408.825 133.43 409.208C133.803 409.581 134.284 409.768 134.872 409.768ZM140.378 411V404.084H141.96V405.05H142.198C142.319 404.789 142.538 404.541 142.856 404.308C143.173 404.075 143.654 403.958 144.298 403.958C144.83 403.958 145.301 404.079 145.712 404.322C146.122 404.565 146.44 404.901 146.664 405.33C146.897 405.759 147.014 406.268 147.014 406.856V411H145.404V406.982C145.404 406.422 145.264 406.007 144.984 405.736C144.713 405.456 144.326 405.316 143.822 405.316C143.252 405.316 142.804 405.507 142.478 405.89C142.151 406.263 141.988 406.8 141.988 407.5V411H140.378ZM153.275 411.196C152.622 411.196 152.118 411.084 151.763 410.86C151.418 410.627 151.166 410.37 151.007 410.09H150.769V411H149.187V401.2H150.797V404.952H151.035C151.138 404.765 151.278 404.593 151.455 404.434C151.642 404.275 151.88 404.145 152.169 404.042C152.468 403.939 152.836 403.888 153.275 403.888C153.844 403.888 154.367 404.028 154.843 404.308C155.319 404.579 155.702 404.98 155.991 405.512C156.28 406.044 156.425 406.683 156.425 407.43V407.654C156.425 408.401 156.28 409.04 155.991 409.572C155.702 410.104 155.314 410.51 154.829 410.79C154.353 411.061 153.835 411.196 153.275 411.196ZM152.799 409.796C153.378 409.796 153.858 409.609 154.241 409.236C154.624 408.853 154.815 408.312 154.815 407.612V407.472C154.815 406.763 154.624 406.221 154.241 405.848C153.868 405.475 153.387 405.288 152.799 405.288C152.22 405.288 151.735 405.475 151.343 405.848C150.96 406.221 150.769 406.763 150.769 407.472V407.612C150.769 408.312 150.96 408.853 151.343 409.236C151.735 409.609 152.22 409.796 152.799 409.796ZM161.6 411.196C160.91 411.196 160.289 411.056 159.738 410.776C159.197 410.487 158.768 410.081 158.45 409.558C158.142 409.026 157.988 408.391 157.988 407.654V407.43C157.988 406.693 158.142 406.058 158.45 405.526C158.768 404.994 159.197 404.588 159.738 404.308C160.289 404.028 160.91 403.888 161.6 403.888C162.291 403.888 162.907 404.028 163.448 404.308C163.99 404.588 164.414 404.994 164.722 405.526C165.04 406.058 165.198 406.693 165.198 407.43V407.654C165.198 408.391 165.04 409.026 164.722 409.558C164.414 410.081 163.99 410.487 163.448 410.776C162.907 411.056 162.291 411.196 161.6 411.196ZM161.6 409.768C162.188 409.768 162.669 409.581 163.042 409.208C163.416 408.825 163.602 408.293 163.602 407.612V407.472C163.602 406.791 163.416 406.263 163.042 405.89C162.669 405.507 162.188 405.316 161.6 405.316C161.012 405.316 160.532 405.507 160.158 405.89C159.785 406.263 159.598 406.791 159.598 407.472V407.612C159.598 408.293 159.785 408.825 160.158 409.208C160.532 409.581 161.012 409.768 161.6 409.768ZM169.248 411.196C168.763 411.196 168.324 411.112 167.932 410.944C167.54 410.767 167.228 410.515 166.994 410.188C166.77 409.861 166.658 409.46 166.658 408.984C166.658 408.517 166.77 408.125 166.994 407.808C167.228 407.491 167.545 407.253 167.946 407.094C168.348 406.926 168.805 406.842 169.318 406.842H171.32V406.422C171.32 406.058 171.208 405.764 170.984 405.54C170.76 405.307 170.41 405.19 169.934 405.19C169.468 405.19 169.113 405.302 168.87 405.526C168.637 405.741 168.483 406.021 168.408 406.366L166.924 405.876C167.036 405.512 167.214 405.181 167.456 404.882C167.708 404.583 168.04 404.345 168.45 404.168C168.861 403.981 169.365 403.888 169.962 403.888C170.868 403.888 171.577 404.117 172.09 404.574C172.613 405.022 172.874 405.675 172.874 406.534V409.25C172.874 409.53 173.005 409.67 173.266 409.67H173.854V411H172.72C172.384 411 172.109 410.916 171.894 410.748C171.68 410.58 171.572 410.351 171.572 410.062V410.034H171.334C171.278 410.165 171.18 410.323 171.04 410.51C170.9 410.697 170.686 410.86 170.396 411C170.116 411.131 169.734 411.196 169.248 411.196ZM169.514 409.88C170.046 409.88 170.48 409.731 170.816 409.432C171.152 409.124 171.32 408.713 171.32 408.2V408.06H169.416C169.071 408.06 168.791 408.135 168.576 408.284C168.362 408.433 168.254 408.653 168.254 408.942C168.254 409.222 168.366 409.451 168.59 409.628C168.814 409.796 169.122 409.88 169.514 409.88ZM175.382 411V404.084H176.964V404.882H177.202C177.305 404.593 177.478 404.383 177.72 404.252C177.963 404.121 178.252 404.056 178.588 404.056H179.428V405.484H178.56C178.094 405.484 177.716 405.61 177.426 405.862C177.137 406.105 176.992 406.483 176.992 406.996V411H175.382ZM183.629 411.196C183.069 411.196 182.546 411.061 182.061 410.79C181.576 410.51 181.188 410.104 180.899 409.572C180.61 409.04 180.465 408.401 180.465 407.654V407.43C180.465 406.683 180.61 406.044 180.899 405.512C181.188 404.98 181.571 404.579 182.047 404.308C182.532 404.028 183.06 403.888 183.629 403.888C184.058 403.888 184.422 403.939 184.721 404.042C185.02 404.145 185.258 404.275 185.435 404.434C185.622 404.593 185.766 404.765 185.869 404.952H186.107V401.2H187.703V411H186.135V410.09H185.897C185.729 410.37 185.472 410.627 185.127 410.86C184.782 411.084 184.282 411.196 183.629 411.196ZM184.105 409.796C184.684 409.796 185.164 409.609 185.547 409.236C185.93 408.853 186.121 408.312 186.121 407.612V407.472C186.121 406.763 185.93 406.221 185.547 405.848C185.174 405.475 184.693 405.288 184.105 405.288C183.526 405.288 183.041 405.475 182.649 405.848C182.266 406.221 182.075 406.763 182.075 407.472V407.612C182.075 408.312 182.266 408.853 182.649 409.236C183.041 409.609 183.526 409.796 184.105 409.796ZM189.938 411V404.084H191.548V411H189.938ZM190.736 403.202C190.447 403.202 190.195 403.109 189.98 402.922C189.775 402.726 189.672 402.469 189.672 402.152C189.672 401.835 189.775 401.583 189.98 401.396C190.195 401.2 190.447 401.102 190.736 401.102C191.044 401.102 191.296 401.2 191.492 401.396C191.698 401.583 191.8 401.835 191.8 402.152C191.8 402.469 191.698 402.726 191.492 402.922C191.296 403.109 191.044 403.202 190.736 403.202ZM193.785 411V404.084H195.367V405.05H195.605C195.726 404.789 195.946 404.541 196.263 404.308C196.58 404.075 197.061 403.958 197.705 403.958C198.237 403.958 198.708 404.079 199.119 404.322C199.53 404.565 199.847 404.901 200.071 405.33C200.304 405.759 200.421 406.268 200.421 406.856V411H198.811V406.982C198.811 406.422 198.671 406.007 198.391 405.736C198.12 405.456 197.733 405.316 197.229 405.316C196.66 405.316 196.212 405.507 195.885 405.89C195.558 406.263 195.395 406.8 195.395 407.5V411H193.785ZM202.258 407.57V407.36C202.258 406.632 202.403 406.011 202.692 405.498C202.981 404.975 203.369 404.579 203.854 404.308C204.339 404.028 204.871 403.888 205.45 403.888C206.103 403.888 206.598 404.005 206.934 404.238C207.279 404.471 207.531 404.723 207.69 404.994H207.928V404.084H209.496V412.316C209.496 412.773 209.365 413.133 209.104 413.394C208.843 413.665 208.488 413.8 208.04 413.8H203.392V412.4H207.494C207.765 412.4 207.9 412.26 207.9 411.98V409.978H207.662C207.559 410.137 207.419 410.3 207.242 410.468C207.065 410.627 206.831 410.762 206.542 410.874C206.253 410.986 205.889 411.042 205.45 411.042C204.871 411.042 204.339 410.907 203.854 410.636C203.369 410.356 202.981 409.959 202.692 409.446C202.403 408.923 202.258 408.298 202.258 407.57ZM205.898 409.628C206.477 409.628 206.957 409.446 207.34 409.082C207.723 408.709 207.914 408.191 207.914 407.528V407.388C207.914 406.716 207.723 406.198 207.34 405.834C206.967 405.47 206.486 405.288 205.898 405.288C205.319 405.288 204.834 405.47 204.442 405.834C204.059 406.198 203.868 406.716 203.868 407.388V407.528C203.868 408.191 204.059 408.709 204.442 409.082C204.834 409.446 205.319 409.628 205.898 409.628Z" fill="#162042"/>
</svg>
