<svg width="48" height="48" viewBox="0 0 48 48" fill="none" xmlns="http://www.w3.org/2000/svg">
<mask id="mask0_162_614" style="mask-type:alpha" maskUnits="userSpaceOnUse" x="0" y="0" width="48" height="48">
<circle cx="24" cy="24" r="24" fill="#C4C4C4"/>
</mask>
<g mask="url(#mask0_162_614)">
<circle cx="24" cy="24" r="24" fill="#003399"/>
<path d="M24.1967 6.14182L24.6809 7.60236L26.2112 7.61433C26.4094 7.61585 26.4915 7.87017 26.3321 7.98866L25.101 8.90327L25.5625 10.3711C25.6223 10.561 25.4073 10.7185 25.246 10.6024L24.0011 9.7071L22.7561 10.6024C22.595 10.7183 22.3798 10.5612 22.4396 10.3711L22.9011 8.90327L21.67 7.98866C21.5107 7.87017 21.5927 7.61585 21.791 7.61433L23.3212 7.60236L23.8055 6.14182C23.868 5.95273 24.134 5.95273 24.1967 6.14182Z" fill="#FFE15A"/>
<path d="M24.1967 37.4998L24.6809 38.9604L26.2112 38.9723C26.4094 38.9738 26.4915 39.2282 26.3321 39.3467L25.101 40.2613L25.5625 41.7291C25.6223 41.919 25.4073 42.0764 25.246 41.9604L24.0011 41.0651L22.7561 41.9604C22.595 42.0763 22.3798 41.9191 22.4396 41.7291L22.9011 40.2613L21.67 39.3467C21.5107 39.2282 21.5927 38.9738 21.791 38.9723L23.3212 38.9604L23.8055 37.4998C23.868 37.3106 24.134 37.3106 24.1967 37.4998Z" fill="#FFE15A"/>
<path d="M39.7807 21.8209L40.2649 23.2814L41.7952 23.2934C41.9934 23.2949 42.0755 23.5492 41.9161 23.6677L40.685 24.5823L41.1466 26.0502C41.2063 26.2401 40.9913 26.3975 40.83 26.2815L39.5851 25.3862L38.3401 26.2815C38.179 26.3974 37.9638 26.2402 38.0236 26.0502L38.4851 24.5823L37.254 23.6677C37.0947 23.5492 37.1767 23.2949 37.3749 23.2934L38.9052 23.2814L39.3895 21.8209C39.452 21.632 39.718 21.632 39.7807 21.8209Z" fill="#FFE15A"/>
<path d="M8.61077 21.8209L9.09501 23.2814L10.6253 23.2934C10.8235 23.2949 10.9056 23.5492 10.7462 23.6677L9.5151 24.5823L9.97663 26.0502C10.0364 26.2401 9.82137 26.3975 9.6601 26.2815L8.41516 25.3862L7.17022 26.2815C7.00908 26.3974 6.79391 26.2402 6.85369 26.0502L7.31522 24.5823L6.0841 23.6677C5.92474 23.5492 6.00681 23.2949 6.20502 23.2934L7.73531 23.2814L8.21955 21.8209C8.2822 21.632 8.54826 21.632 8.61077 21.8209Z" fill="#FFE15A"/>
<path d="M10.9506 13.633L11.4349 15.0936L12.9651 15.1055C13.1634 15.1071 13.2454 15.3614 13.0861 15.4799L11.8549 16.3945L12.3165 17.8623C12.3763 18.0522 12.1612 18.2096 11.9999 18.0936L10.755 17.1983L9.51007 18.0936C9.34893 18.2095 9.13375 18.0524 9.19353 17.8623L9.65506 16.3945L8.42394 15.4799C8.26458 15.3614 8.34666 15.1071 8.54487 15.1055L10.0752 15.0936L10.5594 13.633C10.622 13.4439 10.8878 13.4439 10.9506 13.633Z" fill="#FFE15A"/>
<path d="M37.9448 29.3116L38.429 30.7722L39.9593 30.7841C40.1575 30.7857 40.2396 31.04 40.0802 31.1585L38.8491 32.0731L39.3106 33.5409C39.3704 33.7311 39.1554 33.8882 38.9941 33.7722L37.7491 32.8769L36.5042 33.7722C36.3431 33.8881 36.1279 33.731 36.1877 33.5409L36.6492 32.0731L35.4181 31.1585C35.2587 31.04 35.3408 30.7857 35.539 30.7841L37.0693 30.7722L37.5535 29.3116C37.6162 29.1227 37.8821 29.1227 37.9448 29.3116Z" fill="#FFE15A"/>
<path d="M32.2398 7.89415L32.7241 9.35469L34.2543 9.36666C34.4526 9.36817 34.5346 9.62249 34.3753 9.74098L33.1441 10.6556L33.6057 12.1234C33.6655 12.3133 33.4504 12.4708 33.2891 12.3548L32.0442 11.4594L30.7991 12.3548C30.638 12.4706 30.4228 12.3135 30.4826 12.1234L30.9441 10.6556L29.713 9.74098C29.5536 9.62249 29.6357 9.36817 29.8339 9.36666L31.3642 9.35469L31.8485 7.89415C31.9111 7.7052 32.1769 7.7052 32.2398 7.89415Z" fill="#FFE15A"/>
<path d="M16.6537 35.0511L17.138 36.5116L18.6683 36.5236C18.8665 36.5251 18.9486 36.7794 18.7892 36.8979L17.5581 37.8125L18.0196 39.2804C18.0794 39.4703 17.8643 39.6277 17.7031 39.5117L16.4581 38.6164L15.2132 39.5117C15.0521 39.6276 14.8369 39.4704 14.8967 39.2804L15.3582 37.8125L14.1271 36.8979C13.9677 36.7794 14.0498 36.5251 14.248 36.5236L15.7783 36.5118L16.2625 35.0512C16.3252 34.8619 16.5912 34.8619 16.6537 35.0511Z" fill="#FFE15A"/>
<path d="M37.5535 13.633L37.0693 15.0936L35.539 15.1055C35.3408 15.1071 35.2587 15.3614 35.4181 15.4799L36.6492 16.3945L36.1877 17.8623C36.1279 18.0522 36.3429 18.2096 36.5042 18.0936L37.7491 17.1983L38.9941 18.0936C39.1552 18.2095 39.3704 18.0524 39.3106 17.8623L38.8491 16.3945L40.0802 15.4799C40.2396 15.3614 40.1575 15.1071 39.9593 15.1055L38.429 15.0936L37.9448 13.633C37.8821 13.4439 37.6162 13.4439 37.5535 13.633Z" fill="#FFE15A"/>
<path d="M10.5594 29.3116L10.0752 30.7722L8.54487 30.7841C8.34666 30.7857 8.26458 31.04 8.42394 31.1585L9.65506 32.0731L9.19353 33.5409C9.13375 33.7311 9.34879 33.8882 9.51007 33.7722L10.755 32.8769L11.9999 33.7722C12.1611 33.8881 12.3763 33.731 12.3165 33.5409L11.8549 32.0731L13.0861 31.1585C13.2454 31.04 13.1634 30.7857 12.9651 30.7841L11.4349 30.7722L10.9506 29.3116C10.8878 29.1227 10.622 29.1227 10.5594 29.3116Z" fill="#FFE15A"/>
<path d="M16.2625 7.89415L15.7783 9.35469L14.248 9.36666C14.0498 9.36817 13.9677 9.62249 14.1271 9.74098L15.3582 10.6556L14.8967 12.1234C14.8369 12.3133 15.0519 12.4708 15.2132 12.3548L16.4581 11.4594L17.7031 12.3548C17.8642 12.4706 18.0794 12.3135 18.0196 12.1234L17.5581 10.6556L18.7892 9.74098C18.9486 9.62249 18.8665 9.36817 18.6683 9.36666L17.138 9.35469L16.6537 7.89415C16.591 7.7052 16.3252 7.7052 16.2625 7.89415Z" fill="#FFE15A"/>
<path d="M31.8485 35.0511L31.3642 36.5116L29.8339 36.5236C29.6357 36.5251 29.5536 36.7794 29.713 36.8979L30.9441 37.8125L30.4826 39.2804C30.4228 39.4703 30.6379 39.6277 30.7991 39.5117L32.0441 38.6164L33.289 39.5117C33.4501 39.6276 33.6653 39.4704 33.6055 39.2804L33.144 37.8125L34.3751 36.8979C34.5345 36.7794 34.4524 36.5251 34.2542 36.5236L32.7239 36.5118L32.2397 35.0512C32.1769 34.8619 31.9111 34.8619 31.8485 35.0511Z" fill="#FFE15A"/>
</g>
</svg>
