<svg width="80" height="30" viewBox="0 0 80 30" fill="none" xmlns="http://www.w3.org/2000/svg">
<path fill-rule="evenodd" clip-rule="evenodd" d="M50.3892 16.1045C50.5151 15.2353 50.9078 14.5367 51.5673 14.0094C52.2262 13.4821 53.0253 13.2184 53.9642 13.2184C54.8672 13.2184 55.6209 13.478 56.2259 13.9956C56.8308 14.5137 57.2054 15.2168 57.3501 16.1045H50.3892ZM53.9642 10.5818C52.0502 10.5818 50.4703 11.2343 49.2242 12.5381C47.9784 13.8427 47.3555 15.4662 47.3555 17.409C47.3555 19.389 47.9961 21.0266 49.2785 22.321C50.5603 23.6162 52.1673 24.264 54.0996 24.264C55.4901 24.264 56.736 23.8939 57.8376 23.1539C58.9386 22.4138 59.7242 21.405 60.1941 20.1287H57.0791C56.4652 21.0722 55.4718 21.5442 54.0996 21.5442C53.1424 21.5442 52.3164 21.262 51.6214 20.6978C50.9261 20.1335 50.4974 19.389 50.3349 18.4636H60.3293C60.3655 18.279 60.3837 17.8904 60.3837 17.2978C60.3837 15.3927 59.7785 13.797 58.5688 12.5106C57.3589 11.2252 55.824 10.5818 53.9642 10.5818Z" fill="#24356B"/>
<path fill-rule="evenodd" clip-rule="evenodd" d="M72.3167 20.4755C71.549 21.1881 70.6328 21.5442 69.5677 21.5442C68.4659 21.5442 67.5631 21.1418 66.859 20.3368C66.1548 19.5321 65.8026 18.5657 65.8026 17.437C65.8026 16.2897 66.1548 15.3139 66.859 14.5091C67.5631 13.7039 68.4659 13.3015 69.5677 13.3015C70.6328 13.3015 71.549 13.6626 72.3167 14.3842C73.0841 15.1056 73.468 16.1234 73.468 17.437C73.468 18.7508 73.0841 19.7634 72.3167 20.4755ZM73.3597 12.1362C72.4023 11.1001 71.0753 10.5818 69.3781 10.5818C67.4096 10.5818 65.8432 11.253 64.6787 12.5939C63.5138 13.9357 62.9316 15.5496 62.9316 17.437C62.9316 19.3057 63.5138 20.9109 64.6787 22.2518C65.8432 23.5936 67.4096 24.264 69.3781 24.264C71.0753 24.264 72.4023 23.7463 73.3597 22.7096V23.9029H76.2309V10.9428H73.3597V12.1362Z" fill="#24356B"/>
<path fill-rule="evenodd" clip-rule="evenodd" d="M45.0329 10.9546H42.2998C42.2998 13.7988 40.0495 16.1044 37.2737 16.1044H36.3849V8.05452V5.33691H33.5137V23.9029H36.3849V18.8799V18.7531H37.2737C40.0495 18.7531 42.2998 21.0588 42.2998 23.9029H45.0329C45.031 21.1435 43.5766 18.7339 41.4118 17.4289C43.5766 16.1238 45.031 13.7142 45.0329 10.9546Z" fill="#24356B"/>
<path fill-rule="evenodd" clip-rule="evenodd" d="M8.81242 5.33691V7.2099C8.81242 9.14729 7.2796 10.7178 5.38874 10.7178H0V11.948H10.5382C12.4346 11.948 13.9716 10.3732 13.9716 8.43041V5.33691H8.81242Z" fill="#FF7F1F"/>
<path fill-rule="evenodd" clip-rule="evenodd" d="M15.1113 5.33691V8.50731C15.1113 10.9384 13.1878 12.9092 10.8151 12.9092H0V14.1394H16.1431C18.4225 14.1394 20.2704 12.2462 20.2704 9.91049V5.33691H15.1113Z" fill="#FFC501"/>
<path fill-rule="evenodd" clip-rule="evenodd" d="M8.81242 23.9026V22.0297C8.81242 20.0923 7.2796 18.5217 5.38874 18.5217H0V17.2915H10.5382C12.4346 17.2915 13.9716 18.8664 13.9716 20.8091V23.9026H8.81242Z" fill="#24356B"/>
<path fill-rule="evenodd" clip-rule="evenodd" d="M15.1113 23.9026V20.7322C15.1113 18.3011 13.1878 16.3303 10.8151 16.3303H0V15.1001H16.1431C18.4225 15.1001 20.2704 16.9935 20.2704 19.329V23.9026H15.1113Z" fill="#13D3B7"/>
</svg>
