<svg width="175" height="45" viewBox="0 0 175 45" fill="none" xmlns="http://www.w3.org/2000/svg">
<path fill-rule="evenodd" clip-rule="evenodd" d="M115.679 25.5308C115.968 23.5102 116.87 21.8862 118.384 20.6603C119.896 19.4344 121.731 18.8214 123.886 18.8214C125.959 18.8214 127.69 19.4249 129.079 20.6282C130.467 21.8326 131.327 23.4671 131.659 25.5308H115.679ZM123.886 12.6919C119.493 12.6919 115.866 14.2087 113.005 17.24C110.145 20.2727 108.715 24.047 108.715 28.5635C108.715 33.1667 110.185 36.9736 113.129 39.9828C116.072 42.994 119.761 44.4998 124.197 44.4998C127.389 44.4998 130.249 43.6395 132.778 41.9193C135.306 40.1986 137.11 37.8535 138.188 34.8864H131.037C129.628 37.0798 127.347 38.177 124.197 38.177C122 38.177 120.104 37.521 118.508 36.2094C116.912 34.8974 115.928 33.1667 115.555 31.0154H138.499C138.582 30.5862 138.624 29.6828 138.624 28.3051C138.624 23.8763 137.234 20.1665 134.457 17.1759C131.679 14.1877 128.156 12.6919 123.886 12.6919Z" fill="#F3F4F7"/>
<path fill-rule="evenodd" clip-rule="evenodd" d="M166.014 35.6926C164.251 37.3492 162.148 38.177 159.703 38.177C157.174 38.177 155.101 37.2415 153.485 35.3701C151.868 33.4992 151.06 31.2527 151.06 28.6287C151.06 25.9615 151.868 23.693 153.485 21.8221C155.101 19.9502 157.174 19.0147 159.703 19.0147C162.148 19.0147 164.251 19.854 166.014 21.5316C167.776 23.2087 168.657 25.5749 168.657 28.6287C168.657 31.6829 167.776 34.0371 166.014 35.6926ZM168.408 16.3055C166.21 13.8968 163.164 12.6919 159.268 12.6919C154.749 12.6919 151.153 14.2523 148.479 17.3697C145.805 20.489 144.469 24.2408 144.469 28.6287C144.469 32.9729 145.805 36.7047 148.479 39.822C151.153 42.9414 154.749 44.4998 159.268 44.4998C163.164 44.4998 166.21 43.2964 168.408 40.8862V43.6605H175V13.5312H168.408V16.3055Z" fill="#F3F4F7"/>
<path fill-rule="evenodd" clip-rule="evenodd" d="M103.382 13.5598H97.1077C97.1077 20.1721 91.9416 25.5319 85.5694 25.5319H83.5288V6.81782V0.5H76.9375V43.6616H83.5288V31.9844V31.6895H85.5694C91.9416 31.6895 97.1077 37.0498 97.1077 43.6616H103.382C103.378 37.2466 100.039 31.6449 95.069 28.6112C100.039 25.577 103.378 19.9753 103.382 13.5598Z" fill="#F3F4F7"/>
<path fill-rule="evenodd" clip-rule="evenodd" d="M20.2305 0.5V4.85427C20.2305 9.35826 16.7116 13.0094 12.3708 13.0094H0V15.8694H24.1924C28.5458 15.8694 32.0743 12.2082 32.0743 7.69167V0.5H20.2305Z" fill="#FF7F1F"/>
<path fill-rule="evenodd" clip-rule="evenodd" d="M34.6906 0.5V7.87046C34.6906 13.5222 30.275 18.1039 24.828 18.1039H0V20.9638H37.0594C42.2921 20.9638 46.5344 16.5625 46.5344 11.1325V0.5H34.6906Z" fill="#FFC501"/>
<path fill-rule="evenodd" clip-rule="evenodd" d="M20.2305 43.6614V39.3071C20.2305 34.8031 16.7116 31.1519 12.3708 31.1519H0V28.292H24.1924C28.5458 28.292 32.0743 31.9532 32.0743 36.4697V43.6614H20.2305Z" fill="#F3F4F7"/>
<path fill-rule="evenodd" clip-rule="evenodd" d="M34.6906 43.6606V36.2901C34.6906 30.6383 30.275 26.0567 24.828 26.0567H0V23.1968H37.0594C42.2921 23.1968 46.5344 27.5986 46.5344 33.0281V43.6606H34.6906Z" fill="#13D3B7"/>
</svg>
