<svg width="28" height="28" viewBox="0 0 28 28" fill="none" xmlns="http://www.w3.org/2000/svg">
<path fill-rule="evenodd" clip-rule="evenodd" d="M12.1728 1.79999V4.25884C12.1728 6.80225 10.0555 8.86407 7.44359 8.86407H0V10.4791H14.5567C17.1761 10.4791 19.2993 8.41161 19.2993 5.86113V1.79999H12.1728Z" fill="#FF7F1F"/>
<path fill-rule="evenodd" clip-rule="evenodd" d="M20.8735 1.79999V5.96209C20.8735 9.15365 18.2166 11.7409 14.9392 11.7409H0V13.3559H22.2988C25.4474 13.3559 28 10.8705 28 7.80418V1.79999H20.8735Z" fill="#FFC501"/>
<path fill-rule="evenodd" clip-rule="evenodd" d="M12.1728 26.1732V23.7143C12.1728 21.1709 10.0555 19.1091 7.44359 19.1091H0V17.4941H14.5567C17.1761 17.4941 19.2993 19.5616 19.2993 22.112V26.1732H12.1728Z" fill="#162042"/>
<path fill-rule="evenodd" clip-rule="evenodd" d="M20.8735 26.1731V22.0109C20.8735 18.8194 18.2166 16.2321 14.9392 16.2321H0V14.6171H22.2988C25.4474 14.6171 28 17.1028 28 20.1689V26.1731H20.8735Z" fill="#13D3B7"/>
</svg>
