<svg width="39" height="49" viewBox="0 0 39 49" fill="none" xmlns="http://www.w3.org/2000/svg">
<g clip-path="url(#clip0_184_1037)">
<path opacity="0.7" fill-rule="evenodd" clip-rule="evenodd" d="M18.7556 0.658203V6.07389L25.532 6.07443V0.658203H26.8873V12.8647H25.532V7.43946L18.7556 7.43933V12.8647H17.4004V0.658203H18.7556Z" fill="#162042"/>
<path opacity="0.7" fill-rule="evenodd" clip-rule="evenodd" d="M5.92111 30.5497L1.85528 20.2041V30.5497H0.5V18.4795H2.53292L6.93757 29.6876L11.3422 18.4795H13.3751V30.5497H12.0199V20.2041L7.95402 30.5497H5.92111Z" fill="#162042"/>
<path opacity="0.7" fill-rule="evenodd" clip-rule="evenodd" d="M31.0467 12.8647H29.6914V0.658203H34.7737C36.832 0.658203 38.5007 2.33884 38.5007 4.41202C38.5007 6.48521 36.832 8.12296 34.7737 8.12296L33.7755 8.12239L38.5007 12.8647H36.4678L31.7426 8.12239H31.0467V12.8647ZM34.7737 2.02323H31.0467V6.80082H34.7737C36.0835 6.80082 37.1454 5.73132 37.1454 4.41202C37.1454 3.09273 36.0835 2.02323 34.7737 2.02323Z" fill="#162042"/>
<path opacity="0.7" fill-rule="evenodd" clip-rule="evenodd" d="M36.4678 30.5237L31.0467 19.6815V30.5237H29.6914V18.3262H31.7243L37.1454 29.1684V18.3262H38.5007V30.5237H36.4678Z" fill="#162042"/>
<path opacity="0.7" fill-rule="evenodd" clip-rule="evenodd" d="M30.2772 35.8403L33.6037 41.9391H33.7271L37.0536 35.8403H38.4089L34.343 43.2944V48.0378H32.9878V43.2944L28.9219 35.8403H30.2772Z" fill="#162042"/>
<path opacity="0.7" fill-rule="evenodd" clip-rule="evenodd" d="M0.5 16.3284V14.9634H38.4478V16.3284H0.5Z" fill="#162042"/>
<path opacity="0.7" fill-rule="evenodd" clip-rule="evenodd" d="M0.5 33.843V32.478H38.4478V33.843H0.5Z" fill="#162042"/>
</g>
<defs>
<clipPath id="clip0_184_1037">
<rect width="38" height="49" fill="white" transform="translate(0.5)"/>
</clipPath>
</defs>
</svg>
