<svg width="35" height="44" viewBox="0 0 35 44" fill="none" xmlns="http://www.w3.org/2000/svg">
<path opacity="0.7" fill-rule="evenodd" clip-rule="evenodd" d="M16.8336 0.59082V5.45389L22.8967 5.45437V0.59082H24.1094V11.5518H22.8967V6.68012L16.8336 6.68V11.5518H15.6211V0.59082H16.8336Z" fill="#162042"/>
<path opacity="0.7" fill-rule="evenodd" clip-rule="evenodd" d="M5.35047 27.4323L1.71262 18.1424V27.4323H0.5V16.5938H2.31893L6.25993 26.6582L10.2009 16.5938H12.0198V27.4323H10.8073V18.1424L7.16939 27.4323H5.35047Z" fill="#162042"/>
<path opacity="0.7" fill-rule="evenodd" clip-rule="evenodd" d="M27.8318 11.5518H26.6191V0.59082H31.1665C33.0081 0.59082 34.5011 2.09997 34.5011 3.9616C34.5011 5.82324 33.0081 7.29387 31.1665 7.29387L30.2733 7.29336L34.5011 11.5518H32.6822L28.4544 7.29336H27.8318V11.5518ZM31.1665 1.81656H27.8318V6.10664H31.1665C32.3384 6.10664 33.2885 5.14628 33.2885 3.9616C33.2885 2.77693 32.3384 1.81656 31.1665 1.81656Z" fill="#162042"/>
<path opacity="0.7" fill-rule="evenodd" clip-rule="evenodd" d="M32.6822 27.4089L27.8318 17.6731V27.4089H26.6191V16.4561H28.4381L33.2885 26.1919V16.4561H34.5011V27.4089H32.6822Z" fill="#162042"/>
<path opacity="0.7" fill-rule="evenodd" clip-rule="evenodd" d="M27.1423 32.1831L30.1187 37.6596H30.2291L33.2054 32.1831H34.4181L30.7801 38.8766V43.136H29.5676V38.8766L25.9297 32.1831H27.1423Z" fill="#162042"/>
<path opacity="0.7" fill-rule="evenodd" clip-rule="evenodd" d="M0.5 14.6622V13.4365H34.4533V14.6622H0.5Z" fill="#162042"/>
<path opacity="0.7" fill-rule="evenodd" clip-rule="evenodd" d="M0.5 30.3898V29.1641H34.4533V30.3898H0.5Z" fill="#162042"/>
</svg>
