<svg width="206" height="33" viewBox="0 0 206 33" fill="none" xmlns="http://www.w3.org/2000/svg">
<g clip-path="url(#clip0_184_1011)">
<path opacity="0.7" d="M129.776 10.8831H129.128V12.2642C129.128 12.6094 129.162 12.9379 129.212 13.241C129.263 13.5442 129.347 13.7884 129.439 13.9484V14.0073H127.178V13.9484C127.27 13.7884 127.346 13.5442 127.405 13.241C127.464 12.9294 127.489 12.6094 127.489 12.2642V7.78417C127.489 7.43891 127.455 7.11049 127.405 6.80733C127.354 6.50417 127.27 6.25996 127.178 6.09996V6.04102H130.23C131.222 6.04102 131.97 6.2347 132.491 6.63049C133.004 7.02628 133.265 7.60733 133.265 8.37365C133.265 8.90417 133.122 9.35049 132.844 9.69575C132.567 10.0494 132.147 10.3021 131.6 10.4621C131.735 10.5547 131.852 10.6726 131.962 10.7989C132.071 10.9336 132.18 11.1021 132.289 11.3042L133.097 12.6768C133.298 13.0221 133.475 13.2915 133.626 13.4852C133.778 13.6789 133.921 13.8389 134.072 13.9568V14.0158H132.231C132.079 13.9652 131.936 13.8473 131.785 13.6705C131.634 13.4936 131.491 13.2579 131.348 12.9631L130.843 11.9105C130.65 11.5147 130.473 11.2452 130.322 11.1021C130.171 10.9589 129.977 10.8915 129.75 10.8915L129.776 10.8831ZM129.128 7.23681V9.69575H130.238C130.7 9.69575 131.037 9.5947 131.255 9.40102C131.474 9.20733 131.583 8.89575 131.583 8.4747C131.583 8.05365 131.474 7.74207 131.255 7.53996C131.037 7.33786 130.7 7.23681 130.238 7.23681H129.128Z" fill="#162042"/>
<path opacity="0.7" d="M134.989 12.273V7.79296C134.989 7.43928 134.955 7.11086 134.896 6.8077C134.837 6.50454 134.753 6.26875 134.652 6.10875V6.0498H136.956V6.10875C136.855 6.26875 136.771 6.50454 136.712 6.8077C136.653 7.11086 136.62 7.43928 136.62 7.79296V12.273C136.62 12.6266 136.653 12.9551 136.712 13.2582C136.771 13.5614 136.855 13.7972 136.956 13.9572V14.0161H134.652V13.9572C134.753 13.7972 134.837 13.5614 134.896 13.2582C134.955 12.9551 134.989 12.6266 134.989 12.273Z" fill="#162042"/>
<path opacity="0.7" d="M143.463 11.7169C143.463 12.4664 143.194 13.0559 142.664 13.4937C142.134 13.9316 141.411 14.1422 140.487 14.1422C140.1 14.1422 139.705 14.1001 139.31 14.0243C138.914 13.9401 138.561 13.8306 138.242 13.679V11.9359H138.292C138.679 12.2895 139.04 12.5422 139.402 12.6937C139.755 12.8453 140.142 12.9211 140.554 12.9211C140.966 12.9211 141.294 12.8369 141.512 12.6769C141.731 12.5169 141.84 12.2811 141.84 11.978C141.84 11.7927 141.798 11.6327 141.706 11.498C141.613 11.3632 141.462 11.2453 141.252 11.1359C141.176 11.0853 141.075 11.0432 140.966 10.9927C140.856 10.9422 140.613 10.8411 140.234 10.698C139.814 10.538 139.494 10.3948 139.276 10.2769C139.057 10.159 138.872 10.0327 138.729 9.89796C138.511 9.70427 138.351 9.4769 138.242 9.23269C138.132 8.98848 138.082 8.69375 138.082 8.36532C138.082 7.60743 138.343 7.00954 138.864 6.58006C139.385 6.15059 140.091 5.93164 140.991 5.93164C141.327 5.93164 141.647 5.96533 141.958 6.01585C142.269 6.0748 142.546 6.15901 142.807 6.26848V7.88532H142.757C142.454 7.63269 142.151 7.44743 141.865 7.33796C141.58 7.22848 141.268 7.16111 140.949 7.16111C140.554 7.16111 140.251 7.24532 140.033 7.40532C139.814 7.56532 139.721 7.80111 139.721 8.10427C139.721 8.28953 139.764 8.44954 139.856 8.58427C139.948 8.71901 140.1 8.8369 140.31 8.94638C140.386 8.9969 140.487 9.03901 140.596 9.08953C140.705 9.14006 140.949 9.24111 141.327 9.38427C141.748 9.54427 142.067 9.68743 142.286 9.80532C142.504 9.92322 142.689 10.0495 142.832 10.1843C143.051 10.378 143.211 10.6053 143.32 10.8495C143.429 11.0937 143.48 11.3885 143.48 11.7169H143.463Z" fill="#162042"/>
<path opacity="0.7" d="M144.446 14.0161V13.9572C144.539 13.7972 144.615 13.553 144.673 13.2498C144.732 12.9382 144.758 12.6182 144.758 12.273V7.79296C144.758 7.4477 144.724 7.11928 144.673 6.81612C144.623 6.51296 144.539 6.26875 144.446 6.10875V6.0498H146.708V6.10875C146.616 6.26875 146.54 6.51296 146.481 6.81612C146.422 7.1277 146.397 7.4477 146.397 7.79296V9.48559L148.482 7.14454C148.659 6.93402 148.793 6.74033 148.877 6.57191C148.961 6.40349 148.987 6.24349 148.961 6.11717V6.05823H151.45V6.11717C151.273 6.2098 151.105 6.33612 150.92 6.4877C150.744 6.63928 150.525 6.84138 150.273 7.10244L147.894 9.57823L150.374 12.8035C150.609 13.1066 150.811 13.3509 150.988 13.5277C151.164 13.7045 151.332 13.8561 151.492 13.974V14.033H149.491C149.34 13.9824 149.18 13.8645 149.012 13.6961C148.835 13.5277 148.633 13.2751 148.406 12.9382L146.38 10.0919V12.2814C146.38 12.6266 146.414 12.9551 146.464 13.2582C146.515 13.5614 146.599 13.8056 146.691 13.9656V14.0245H144.43L144.446 14.0161Z" fill="#162042"/>
<path opacity="0.7" d="M127.506 22.8496V18.3696C127.506 18.0159 127.473 17.6875 127.414 17.3844C127.355 17.0812 127.271 16.8454 127.17 16.6854V16.6265H129.474V16.6854C129.373 16.8454 129.289 17.0812 129.23 17.3844C129.171 17.6875 129.137 18.0159 129.137 18.3696V22.8496C129.137 23.2033 129.171 23.5317 129.23 23.8349C129.289 24.138 129.373 24.3738 129.474 24.5338V24.5928H127.17V24.5338C127.271 24.3738 127.355 24.138 127.414 23.8349C127.473 23.5317 127.506 23.2033 127.506 22.8496Z" fill="#162042"/>
<path opacity="0.7" d="M137.595 24.5929H136.141L132.5 18.9171V22.8413C132.5 23.1866 132.534 23.515 132.584 23.8182C132.635 24.1213 132.719 24.3655 132.811 24.5255V24.5845H130.785V24.5255C130.878 24.3655 130.953 24.1213 131.012 23.8182C131.071 23.5066 131.096 23.1866 131.096 22.8413V18.3613C131.096 18.0161 131.063 17.6876 131.012 17.3845C130.962 17.0813 130.878 16.8371 130.785 16.6771V16.6182H132.954L136.2 21.755V18.3697C136.2 18.0161 136.166 17.6876 136.116 17.3761C136.065 17.0645 135.981 16.8371 135.889 16.6771V16.6182H137.915V16.6771C137.822 16.8371 137.747 17.0813 137.688 17.3845C137.629 17.6961 137.604 18.0161 137.604 18.3613V24.5845L137.595 24.5929Z" fill="#162042"/>
<path opacity="0.7" d="M143.237 24.5929H140.975V24.534C141.068 24.374 141.143 24.1466 141.202 23.835C141.261 23.5234 141.286 23.195 141.286 22.8413V17.7887H140.975C140.521 17.7887 140.126 17.8224 139.773 17.8982C139.428 17.974 139.134 18.0834 138.899 18.235H138.84V16.6182H145.372V18.235H145.314C145.078 18.0834 144.792 17.974 144.439 17.8982C144.095 17.8224 143.691 17.7887 143.229 17.7887H142.917V22.8413C142.917 23.1866 142.951 23.515 143.002 23.8182C143.052 24.1213 143.136 24.3655 143.229 24.5255V24.5845L143.237 24.5929Z" fill="#162042"/>
<path opacity="0.7" d="M151.703 24.5928H146.355V24.5338C146.448 24.3738 146.524 24.1296 146.582 23.8265C146.641 23.5149 146.667 23.1949 146.667 22.8496V18.3696C146.667 18.0244 146.633 17.6959 146.582 17.3928C146.532 17.0896 146.448 16.8454 146.355 16.6854V16.6265H151.425V18.1423H151.392C151.173 18.0244 150.879 17.9401 150.517 17.8812C150.156 17.8307 149.727 17.797 149.222 17.797H148.298V19.8686H149.197C149.567 19.8686 149.878 19.8601 150.156 19.8349C150.425 19.8096 150.685 19.7759 150.938 19.717H150.988V21.2665H150.938C150.702 21.2159 150.45 21.1738 150.189 21.157C149.929 21.1402 149.601 21.1233 149.206 21.1233H148.306V23.4223H149.206C149.727 23.4223 150.198 23.3886 150.601 23.3128C151.013 23.237 151.358 23.1275 151.652 22.9759H151.711V24.5928H151.703Z" fill="#162042"/>
<path opacity="0.7" d="M158.034 24.5928H152.863V24.5338C152.956 24.3738 153.031 24.1296 153.09 23.8265C153.149 23.5149 153.174 23.1949 153.174 22.8496V18.3696C153.174 18.0244 153.141 17.6959 153.09 17.3928C153.04 17.0896 152.956 16.8454 152.863 16.6854V16.6265H155.125V16.6854C155.032 16.8454 154.957 17.0896 154.898 17.3928C154.839 17.7044 154.814 18.0244 154.814 18.3696V23.4223H155.537C156.058 23.4223 156.521 23.3886 156.924 23.3128C157.328 23.237 157.681 23.1191 157.983 22.9675H158.042V24.6012L158.034 24.5928Z" fill="#162042"/>
<path opacity="0.7" d="M164.171 24.5928H159V24.5338C159.092 24.3738 159.168 24.1296 159.227 23.8265C159.286 23.5149 159.311 23.1949 159.311 22.8496V18.3696C159.311 18.0244 159.277 17.6959 159.227 17.3928C159.177 17.0896 159.092 16.8454 159 16.6854V16.6265H161.262V16.6854C161.169 16.8454 161.093 17.0896 161.035 17.3928C160.976 17.7044 160.951 18.0244 160.951 18.3696V23.4223H161.674C162.195 23.4223 162.657 23.3886 163.061 23.3128C163.464 23.237 163.817 23.1191 164.12 22.9675H164.179V24.6012L164.171 24.5928Z" fill="#162042"/>
<path opacity="0.7" d="M165.442 22.8496V18.3696C165.442 18.0159 165.408 17.6875 165.349 17.3844C165.29 17.0812 165.206 16.8454 165.105 16.6854V16.6265H167.409V16.6854C167.308 16.8454 167.224 17.0812 167.165 17.3844C167.106 17.6875 167.073 18.0159 167.073 18.3696V22.8496C167.073 23.2033 167.106 23.5317 167.165 23.8349C167.224 24.138 167.308 24.3738 167.409 24.5338V24.5928H165.105V24.5338C165.206 24.3738 165.29 24.138 165.349 23.8349C165.408 23.5317 165.442 23.2033 165.442 22.8496Z" fill="#162042"/>
<path opacity="0.7" d="M173.167 24.7275C171.788 24.7275 170.678 24.357 169.846 23.6159C169.014 22.8749 168.602 21.8812 168.602 20.6349C168.602 19.3885 168.988 18.3696 169.77 17.6201C170.552 16.8706 171.603 16.4917 172.923 16.4917C173.31 16.4917 173.697 16.5254 174.075 16.5928C174.453 16.6601 174.773 16.7528 175.033 16.8706V18.5043H174.983C174.722 18.2601 174.403 18.0749 174.05 17.9485C173.688 17.8222 173.31 17.7549 172.898 17.7549C172.074 17.7549 171.426 17.9991 170.964 18.4959C170.502 18.9843 170.275 19.6833 170.275 20.5675C170.275 21.4517 170.527 22.2012 171.023 22.7064C171.519 23.2117 172.234 23.4643 173.15 23.4643C173.276 23.4643 173.394 23.4643 173.52 23.4475C173.638 23.4391 173.764 23.4138 173.873 23.397V21.4264C173.545 21.4264 173.268 21.4349 173.032 21.4601C172.797 21.477 172.578 21.5106 172.377 21.5612H172.318V20.0454H172.377C172.629 20.0959 172.873 20.1296 173.116 20.1464C173.36 20.1633 173.638 20.1801 173.949 20.1801H175.563V20.2306C175.521 20.3233 175.496 20.4664 175.47 20.6685C175.445 20.8622 175.437 21.098 175.437 21.3675V23.2538C175.437 23.4896 175.437 23.6917 175.462 23.8685C175.479 24.0454 175.504 24.1885 175.529 24.298V24.3485C175.193 24.458 174.798 24.5506 174.352 24.6264C173.907 24.7022 173.503 24.7359 173.15 24.7359L173.167 24.7275Z" fill="#162042"/>
<path opacity="0.7" d="M182.23 24.5928H176.883V24.5338C176.975 24.3738 177.051 24.1296 177.11 23.8265C177.169 23.5149 177.194 23.1949 177.194 22.8496V18.3696C177.194 18.0244 177.16 17.6959 177.11 17.3928C177.051 17.0812 176.975 16.8454 176.883 16.6854V16.6265H181.953V18.1423H181.919C181.7 18.0244 181.406 17.9401 181.045 17.8812C180.683 17.8223 180.254 17.797 179.75 17.797H178.825V19.8686H179.725C180.094 19.8686 180.406 19.8601 180.683 19.8349C180.952 19.8096 181.213 19.7759 181.465 19.717H181.515V21.2665H181.465C181.229 21.2159 180.977 21.1738 180.717 21.157C180.456 21.1402 180.128 21.1233 179.733 21.1233H178.833V23.4223H179.733C180.254 23.4223 180.725 23.3886 181.129 23.3128C181.541 23.237 181.885 23.1275 182.18 22.9759H182.238V24.5928H182.23Z" fill="#162042"/>
<path opacity="0.7" d="M190.185 24.5929H188.731L185.09 18.9171V22.8413C185.09 23.1866 185.124 23.515 185.174 23.8182C185.233 24.1297 185.309 24.3655 185.401 24.5255V24.5845H183.375V24.5255C183.467 24.3655 183.543 24.1213 183.602 23.8182C183.661 23.5066 183.686 23.1866 183.686 22.8413V18.3613C183.686 18.0161 183.652 17.6876 183.602 17.3845C183.543 17.0729 183.467 16.8371 183.375 16.6771V16.6182H185.544L188.789 21.755V18.3697C188.789 18.0161 188.756 17.6876 188.705 17.3761C188.646 17.0645 188.571 16.8371 188.478 16.6771V16.6182H190.505V16.6771C190.412 16.8371 190.336 17.0813 190.278 17.3845C190.219 17.6961 190.193 18.0161 190.193 18.3613V24.5845L190.185 24.5929Z" fill="#162042"/>
<path opacity="0.7" d="M195.817 24.7274C194.581 24.7274 193.589 24.3484 192.832 23.5989C192.076 22.8495 191.697 21.8558 191.697 20.6347C191.697 19.4137 192.076 18.3947 192.832 17.6368C193.589 16.8789 194.589 16.5 195.825 16.5C196.263 16.5 196.675 16.5421 197.07 16.6263C197.456 16.7105 197.81 16.8368 198.121 17.0053V18.6558H198.062C197.784 18.3695 197.448 18.1505 197.061 17.9905C196.674 17.8305 196.263 17.7632 195.825 17.7632C195.06 17.7632 194.455 18.0158 194.018 18.5211C193.581 19.0263 193.354 19.7084 193.354 20.5758C193.354 21.4432 193.581 22.1842 194.018 22.6895C194.463 23.2032 195.069 23.4558 195.842 23.4558C196.254 23.4558 196.658 23.3716 197.036 23.2116C197.414 23.0516 197.759 22.8158 198.053 22.5126H198.112V24.2221C197.784 24.3821 197.423 24.5084 197.019 24.6011C196.616 24.6937 196.212 24.7274 195.809 24.7274H195.817Z" fill="#162042"/>
<path opacity="0.7" d="M204.746 24.5928H199.398V24.5338C199.491 24.3738 199.567 24.1296 199.625 23.8265C199.684 23.5149 199.71 23.1949 199.71 22.8496V18.3696C199.71 18.0244 199.676 17.6959 199.625 17.3928C199.567 17.0812 199.491 16.8454 199.398 16.6854V16.6265H204.468V18.1423H204.435C204.216 18.0244 203.922 17.9401 203.56 17.8812C203.199 17.8223 202.77 17.797 202.265 17.797H201.341V19.8686H202.24C202.61 19.8686 202.921 19.8601 203.199 19.8349C203.468 19.8096 203.728 19.7759 203.981 19.717H204.031V21.2665H203.981C203.745 21.2159 203.493 21.1738 203.232 21.157C202.972 21.1402 202.644 21.1233 202.249 21.1233H201.349V23.4223H202.249C202.77 23.4223 203.241 23.3886 203.644 23.3128C204.056 23.237 204.401 23.1275 204.695 22.9759H204.754V24.5928H204.746Z" fill="#162042"/>
<path opacity="0.7" d="M117.735 17.0812V21.4601C117.735 22.597 117.836 23.3886 117.962 23.8854V24.0117C116.457 24.5086 114.128 24.9044 112.43 24.9044C105.981 24.9044 101.803 21.1401 101.803 15.3801C101.803 9.62015 105.754 5.75488 111.858 5.75488C113.708 5.75488 115.591 6.10015 116.776 6.64751V10.4623H116.65C115.465 9.35067 113.708 8.70225 111.808 8.70225C107.957 8.70225 105.704 11.077 105.704 15.2623C105.704 19.4475 108.15 21.9907 112.396 21.9907C112.968 21.9907 113.531 21.9401 114.078 21.8138V17.2328C112.396 17.2328 111.455 17.3591 110.597 17.5275H110.471V14.0159H110.597C111.488 14.1928 112.472 14.3107 114.279 14.3107H118.038V14.437C117.844 14.9338 117.743 15.9444 117.743 17.0896L117.735 17.0812Z" fill="#162042"/>
<path opacity="0.7" d="M93.8823 21.8815H91.7805V16.5089H93.8823C95.8581 16.5089 96.9258 16.6352 97.9095 16.8541H98.0356V13.2415H97.9095C96.9174 13.4689 95.8581 13.5868 93.8823 13.5868H91.7805V8.7615H93.9328C96.2028 8.7615 97.9095 9.00571 98.9773 9.55308H99.0782V6.0415H87.2656V6.16782C87.7112 6.93414 88.0055 8.49203 88.0055 10.1005V20.5426C88.0055 22.151 87.7112 23.7089 87.2656 24.4752V24.6015H99.7171V20.8373H99.591C98.1786 21.5531 96.2532 21.8731 93.8823 21.8731V21.8815Z" fill="#162042"/>
<path opacity="0.7" d="M79.6661 13.8141C77.27 12.8709 75.9332 12.3993 75.9332 10.8162C75.9332 9.3846 76.9673 8.60986 78.8001 8.60986C80.3303 8.60986 81.6419 9.15723 83.0291 10.2941H83.1552V6.52986C81.9445 6.00775 80.4396 5.73828 78.9262 5.73828C74.7225 5.73828 72.1582 7.89407 72.1582 11.4056C72.1582 14.9172 74.5543 15.8351 77.1775 16.8456C79.5736 17.7888 80.9104 18.2604 80.9104 19.8435C80.9104 21.2751 79.8511 22.0246 77.9173 22.0246C75.9836 22.0246 74.4366 21.3593 72.6542 19.7509H72.5281V23.8099C74.0079 24.5004 75.9416 24.8962 77.766 24.8962C82.037 24.8962 84.6854 22.7404 84.6854 19.2541C84.6854 15.7678 82.2892 14.8246 79.6661 13.8141Z" fill="#162042"/>
<path opacity="0.7" d="M64.07 21.8815H62.3885V10.1005C62.3885 8.49203 62.6827 6.93414 63.1283 6.16782V6.0415H57.8652V6.16782C58.3108 6.93414 58.6051 8.49203 58.6051 10.1005V20.5426C58.6051 22.151 58.3108 23.7089 57.8652 24.4752V24.6015H69.8964V20.812H69.7703C68.341 21.5278 66.4325 21.8731 64.0616 21.8731L64.07 21.8815Z" fill="#162042"/>
<path opacity="0.7" d="M5.89906 27.9528V27.978C6.09243 27.978 6.29421 27.978 6.48759 27.978C7.04248 27.9949 7.41241 27.6833 7.41241 27.1359C7.41241 26.6728 7.11815 26.3612 6.62211 26.3359C6.37829 26.3275 6.13447 26.3191 5.89065 26.3359V26.3612C5.9411 26.4285 5.96632 26.5464 5.96632 26.6812V27.6328C5.96632 27.7675 5.9411 27.8854 5.89065 27.9612L5.89906 27.9528ZM6.29421 26.597C6.40351 26.597 6.5044 26.597 6.6137 26.6054C6.90796 26.6222 7.09293 26.8328 7.09293 27.1443C7.09293 27.5064 6.86592 27.7254 6.52122 27.7085C6.44555 27.7085 6.36988 27.7085 6.29421 27.7085V26.597ZM8.45494 26.597V26.5717C8.2952 26.538 8.14386 26.5128 7.98412 26.4875V26.5128C8.03456 26.5885 8.05979 26.7149 8.05979 26.8496V27.8012C8.05979 27.9359 8.03456 28.0454 7.98412 28.1128V28.138C8.14386 28.1633 8.2952 28.1885 8.45494 28.2222V28.197C8.4045 28.1128 8.37927 27.9949 8.37927 27.8601V26.9085C8.37927 26.7738 8.4045 26.6643 8.45494 26.597ZM9.93466 27.1528C10.0776 27.1949 10.2121 27.2875 10.3214 27.4222H10.3466V27.077C10.2541 26.9843 10.1448 26.9254 10.0019 26.8833C9.45543 26.7233 9.02665 27.0517 9.02665 27.6075C9.02665 28.0791 9.27887 28.4075 9.74129 28.5422C9.96829 28.6096 10.2121 28.6012 10.355 28.517V28.2054H10.3298C10.1869 28.298 9.9767 28.3317 9.80014 28.2812C9.5311 28.2054 9.36295 27.9612 9.36295 27.6496C9.36295 27.2538 9.59836 27.0517 9.94307 27.1528H9.93466ZM11.6582 27.6412C11.8432 27.6917 11.9441 27.7422 12.0365 27.818H12.0618V27.4812C11.6078 27.3633 11.1453 27.237 10.6913 27.1106V27.4475L10.7166 27.4643C10.809 27.4306 10.9099 27.4391 11.0949 27.4896L11.221 27.5233V28.5506C11.221 28.6854 11.1958 28.7949 11.1453 28.8538V28.8791C11.3051 28.9212 11.4564 28.9633 11.6162 29.0054V28.9801C11.5657 28.8959 11.5405 28.7696 11.5405 28.6349V27.6075L11.6666 27.6412H11.6582ZM12.9698 27.7338V27.7085C12.81 27.6749 12.6587 27.6328 12.4989 27.5991V27.6243C12.5494 27.7085 12.5746 27.8349 12.5746 27.9612V28.7275C12.5746 29.098 12.7764 29.3591 13.1379 29.4433C13.6171 29.5528 13.9366 29.3085 13.9366 28.8791V28.2559C13.9366 28.1212 13.9619 28.0117 14.0123 27.9443V27.9191C13.861 27.8938 13.718 27.8685 13.5667 27.8349V27.8601C13.6171 27.9443 13.6424 28.0622 13.6424 28.197V28.8454C13.6424 29.1064 13.4994 29.2075 13.2052 29.1485C12.995 29.098 12.8941 28.9633 12.8941 28.7359V28.0285C12.8941 27.8938 12.9193 27.7843 12.9698 27.7254V27.7338ZM14.6092 29.637V29.6622C14.7606 29.6791 14.9035 29.6959 15.0548 29.7128V29.6875C15.0044 29.6117 14.9792 29.4938 14.9792 29.3591V28.5759C15.1221 28.7949 15.2734 29.0138 15.4163 29.2328C15.4163 29.2328 15.4332 29.2328 15.4416 29.2328C15.5845 29.0391 15.7358 28.837 15.8788 28.6349V29.418C15.8788 29.5528 15.8535 29.6707 15.8031 29.738V29.7633C15.9628 29.7633 16.1142 29.7633 16.2739 29.7633V29.738C16.2235 29.6707 16.1982 29.5528 16.1982 29.418V28.4664C16.1982 28.3317 16.2235 28.2138 16.2739 28.138V28.1128C16.1478 28.1128 16.0217 28.1128 15.8872 28.1128C15.7442 28.3233 15.6013 28.5254 15.45 28.7275C15.3071 28.5085 15.1641 28.2896 15.0128 28.0707C14.8783 28.0538 14.7353 28.0454 14.6008 28.0201V28.0454C14.6513 28.1212 14.6765 28.2475 14.6765 28.3738V29.3254C14.6765 29.4601 14.6513 29.5696 14.6008 29.637H14.6092ZM31.9287 29.1738C32.3406 29.157 32.5676 28.938 32.5676 28.6012C32.5676 28.2475 32.3406 28.0959 31.9287 28.1128C31.7017 28.1128 31.4747 28.1128 31.2477 28.1128V28.138C31.2981 28.2138 31.3233 28.3317 31.3233 28.4664V29.418C31.3233 29.5528 31.2981 29.6707 31.2477 29.738V29.7633C31.4074 29.7633 31.5587 29.7717 31.7185 29.7717V29.7464C31.668 29.6791 31.6428 29.5528 31.6428 29.4264V29.1991C31.7353 29.1991 31.8278 29.1991 31.9203 29.1991L31.9287 29.1738ZM31.6512 28.3822C31.7437 28.3822 31.8362 28.3822 31.9203 28.3822C32.122 28.3822 32.2397 28.4749 32.2397 28.6517C32.2397 28.8117 32.1389 28.9128 31.9455 28.9128C31.8446 28.9128 31.7521 28.9128 31.6512 28.9128V28.3822ZM33.8792 29.5359C34.0558 29.5022 34.2323 29.4685 34.4089 29.4264V29.4012C34.3332 29.3506 34.266 29.2328 34.1819 29.0896C33.9801 28.7022 33.7783 28.3149 33.5681 27.9275C33.5429 27.9275 33.5093 27.9359 33.4841 27.9443C33.2907 28.3991 33.1057 28.8538 32.9123 29.3085C32.8367 29.4854 32.7694 29.6201 32.7022 29.6959V29.7212C32.8619 29.7043 33.0216 29.6875 33.1814 29.6622V29.637C33.1393 29.5696 33.1309 29.4349 33.1898 29.3001C33.4084 29.2664 33.6354 29.2328 33.854 29.1906C33.9128 29.3085 33.9128 29.4433 33.8708 29.5191V29.5443L33.8792 29.5359ZM33.3075 29.0138L33.5177 28.5001L33.7447 28.9464C33.6018 28.9717 33.4588 28.997 33.3159 29.0138H33.3075ZM35.3757 27.7843C35.5523 27.7338 35.7709 27.7675 35.9054 27.8685H35.9306V27.5485C35.7877 27.4643 35.5523 27.4559 35.3253 27.5233C34.8713 27.6496 34.6107 27.9949 34.6107 28.4833C34.6107 29.0306 35.031 29.3422 35.5859 29.1822C35.7289 29.1401 35.8382 29.0812 35.9306 28.9885V28.6517H35.9054C35.7961 28.7864 35.6616 28.8791 35.5187 28.9212C35.174 29.0222 34.9386 28.8033 34.9386 28.3991C34.9386 28.0959 35.1067 27.8685 35.3757 27.7928V27.7843ZM37.2422 27.3043C37.4272 27.2538 37.5281 27.2538 37.6205 27.2875H37.6458V26.9338C37.1918 27.0517 36.7294 27.178 36.2753 27.3043V27.6412H36.3006C36.3931 27.557 36.4939 27.5064 36.6789 27.4559L36.805 27.4222V28.4496C36.805 28.5843 36.7798 28.7106 36.7294 28.7949V28.8201C36.8891 28.778 37.0404 28.7359 37.2002 28.6938V28.6685C37.1497 28.6096 37.1245 28.5001 37.1245 28.3654V27.338L37.2506 27.3043H37.2422ZM38.9405 28.3149C39.3105 28.2391 39.529 27.978 39.529 27.5991V26.8664C39.529 26.7317 39.5543 26.6138 39.6047 26.5296V26.5043C39.4534 26.5296 39.3105 26.5549 39.1591 26.5885V26.6138C39.2096 26.6728 39.2348 26.7906 39.2348 26.9254V27.6496C39.2348 27.877 39.1423 27.9949 38.9321 28.037C38.6463 28.0959 38.4865 27.9949 38.4865 27.7254V27.0854C38.4865 26.9506 38.5117 26.8243 38.5622 26.7485V26.7233C38.4024 26.757 38.2511 26.7991 38.0914 26.8328V26.858C38.1418 26.917 38.167 27.0349 38.167 27.1612V27.8096C38.167 28.2306 38.4781 28.4243 38.9489 28.3233L38.9405 28.3149ZM40.1932 28.0285V28.0538C40.3446 28.037 40.4875 28.0201 40.6388 28.0117V27.9864C40.5884 27.9191 40.5632 27.8012 40.5632 27.6749V26.8917C40.7061 27.0854 40.8574 27.2791 41.0004 27.4812H41.0256C41.1685 27.2707 41.3198 27.0601 41.4628 26.858V27.6412C41.4628 27.7759 41.4375 27.8938 41.3871 27.9612V27.9864C41.5468 27.9864 41.6982 27.9864 41.8579 27.9949V27.9696C41.8075 27.8938 41.7823 27.7759 41.7823 27.6412V26.6896C41.7823 26.5549 41.8075 26.437 41.8579 26.3696V26.3443C41.7318 26.3443 41.6057 26.3359 41.4712 26.3359C41.3283 26.5464 41.1853 26.757 41.034 26.9675C40.8911 26.7654 40.7481 26.5633 40.5968 26.3696C40.4623 26.378 40.3194 26.3949 40.1848 26.4117V26.437C40.2353 26.5043 40.2605 26.6222 40.2605 26.7485V27.7001C40.2605 27.8349 40.2353 27.9528 40.1848 28.0285H40.1932ZM20.9064 29.9317C20.7635 29.6959 20.6206 29.4601 20.4693 29.2243C20.3179 29.1906 20.175 29.1654 20.0321 29.1317V29.157C20.0825 29.2412 20.1077 29.3675 20.1077 29.4938V30.4454C20.1077 30.5801 20.0825 30.6896 20.0321 30.7485V30.7738C20.1834 30.8075 20.3263 30.8412 20.4777 30.8664V30.8412C20.4272 30.757 20.402 30.6391 20.402 30.5043V29.7212C20.5449 29.957 20.6963 30.1928 20.8392 30.4285H20.8644C21.0073 30.2517 21.1587 30.0749 21.3016 29.8896V30.6728C21.3016 30.8075 21.2764 30.917 21.2259 30.9843V31.0096C21.3857 31.0349 21.537 31.0601 21.6967 31.077V31.0517C21.6463 30.9759 21.6211 30.8496 21.6211 30.7233V29.7717C21.6211 29.637 21.6463 29.5275 21.6967 29.4601V29.4349C21.579 29.418 21.4613 29.4012 21.3436 29.3843C21.2007 29.5696 21.0494 29.7549 20.9064 29.9401V29.9317ZM22.9411 30.9254C22.8654 30.9254 22.7813 30.917 22.7056 30.9085V30.4538C22.7729 30.4538 22.8486 30.4622 22.9158 30.4706C23.0756 30.4791 23.1681 30.4959 23.2521 30.5212C23.2521 30.5212 23.2689 30.5212 23.2774 30.5212V30.1928C23.2774 30.1928 23.2605 30.1928 23.2521 30.1928C23.1681 30.2096 23.0756 30.218 22.9158 30.2096C22.8486 30.2096 22.7729 30.2012 22.7056 30.1928V29.7885C22.7813 29.7885 22.8654 29.797 22.9411 29.8054C23.126 29.8138 23.2521 29.8391 23.3446 29.8896C23.3446 29.8896 23.3614 29.8896 23.3698 29.8896V29.5696C23.0167 29.5612 22.6636 29.5359 22.3105 29.5022V29.5275C22.3609 29.6033 22.3862 29.7212 22.3862 29.8559V30.8075C22.3862 30.9422 22.3609 31.0517 22.3105 31.1191V31.1443C22.6804 31.178 23.0588 31.2033 23.4287 31.2117V30.8664H23.4035C23.2858 30.9254 23.1344 30.9422 22.9411 30.9338V30.9254ZM24.0004 30.6475C24.0004 31.0264 24.261 31.2622 24.6898 31.237C25.1102 31.2201 25.3876 30.9338 25.3876 30.5464V29.8475C25.3876 29.7128 25.4129 29.5949 25.4633 29.5191V29.4938C25.312 29.5106 25.1606 29.5191 25.0093 29.5275V29.5528C25.0597 29.6201 25.085 29.738 25.085 29.8728V30.5801C25.085 30.8075 24.9589 30.9254 24.7066 30.9422C24.4544 30.9506 24.3283 30.8412 24.3283 30.6054V29.9064C24.3283 29.7717 24.3535 29.6538 24.404 29.578V29.5528C24.2442 29.5528 24.0929 29.5528 23.9331 29.5528V29.578C23.9836 29.6454 24.0088 29.7717 24.0088 29.898V30.6306L24.0004 30.6475ZM26.5058 30.9843C26.4554 30.917 26.4302 30.8075 26.4302 30.6728V29.8896C26.5731 30.0749 26.7244 30.2517 26.8674 30.437H26.8926C27.0355 30.2012 27.1868 29.9654 27.3298 29.7296V30.5128C27.3298 30.6475 27.3045 30.7738 27.2541 30.8496V30.8749C27.4138 30.8412 27.5652 30.8075 27.7165 30.7738V30.7485C27.6661 30.6896 27.6408 30.5717 27.6408 30.4454V29.4938C27.6408 29.3591 27.6661 29.2328 27.7165 29.157V29.1317C27.582 29.1654 27.4475 29.1906 27.313 29.2159C27.17 29.4517 27.0271 29.6875 26.8758 29.9233C26.7328 29.738 26.5815 29.5612 26.4386 29.3675C26.3041 29.3843 26.1779 29.4096 26.0434 29.4264V29.4517C26.0939 29.5191 26.1191 29.6285 26.1191 29.7633V30.7149C26.1191 30.8496 26.0939 30.9675 26.0434 31.0433V31.0685C26.1948 31.0517 26.3377 31.0264 26.489 31.0012V30.9759L26.5058 30.9843ZM41.942 25.6959C42.3119 25.7128 42.5642 25.7464 42.9341 25.8138V28.778C38.7135 27.9864 34.5014 31.0685 30.2808 30.277V27.3128C32.8787 27.8012 35.4514 26.8243 38.0409 26.1843C38.0409 26.1254 38.0409 25.9654 38.0409 25.8812C35.6448 26.4706 33.2486 27.3549 30.8525 27.0938V26.8159C30.8525 26.5043 30.4658 26.2517 29.4737 26.5296C28.7338 26.7317 28.0612 27.1275 28.0612 27.7001V28.0791C25.312 28.778 22.4282 28.778 19.6789 28.0791V27.7001C19.6789 27.1275 18.9979 26.7317 18.2665 26.5296C17.2744 26.2517 16.8877 26.4959 16.8877 26.8159V27.0938C14.4915 27.3549 12.0954 26.4706 9.69925 25.8812C9.69925 25.9654 9.70766 26.1254 9.69925 26.1843C12.2972 26.8243 14.8699 27.8012 17.4594 27.3128V30.277C13.2388 31.0685 9.02665 27.9864 4.80609 28.778V25.8138C5.17602 25.7464 5.42824 25.7128 5.79817 25.6959C5.7141 25.5864 5.64684 25.4854 5.6048 25.4012C5.19283 25.4264 4.90698 25.477 4.49501 25.578V29.1485C8.91735 28.1212 13.3313 31.5485 17.7452 30.5212V30.0749C18.0227 30.0917 18.3001 30.1675 18.586 30.3359V31.338C22.0078 32.4496 25.6903 32.4496 29.1038 31.338V30.3359C29.398 30.1675 29.6671 30.0917 29.9445 30.0749V30.5212C34.3668 31.5485 38.7808 28.1212 43.1947 29.1485V25.578C42.7827 25.4854 42.4969 25.4349 42.0849 25.4012C42.0429 25.477 41.984 25.5864 41.8916 25.6959H41.942ZM28.8431 31.1359C25.6062 32.1296 22.1423 32.1296 18.9055 31.1359V28.1717C22.1423 29.1654 25.6062 29.1654 28.8431 28.1717V31.1359ZM41.1853 2.54644C41.0172 2.36118 40.8322 2.19276 40.6388 2.03276L40.2521 2.43697C40.1344 2.33592 39.9999 2.23486 39.8569 2.14223L40.1428 1.66223C39.8822 1.48539 39.4618 1.23276 39.1759 1.0896L38.8901 1.5696C38.7387 1.49381 38.5958 1.42644 38.4445 1.3675L38.621 0.828548C38.31 0.702233 37.9821 0.592759 37.6458 0.525391L37.4524 2.15065C38.1586 2.2096 39.3609 2.84118 39.5375 2.92539C40.2437 2.90855 40.5043 2.88329 41.1937 2.55486L41.1853 2.54644ZM32.122 16.8875C32.038 16.7612 31.7773 16.7106 31.668 16.7864C31.2056 17.098 31.9875 17.7717 32.5845 17.5275C32.2229 17.2664 32.1809 16.9801 32.122 16.8875ZM31.2056 19.9191C31.3065 20.0285 31.5335 19.7591 31.5756 19.5906C31.6092 19.4559 31.4663 19.3801 31.4663 19.3801C31.2729 19.2538 31.0879 19.2033 30.9282 19.2033C30.5078 19.2033 30.2472 19.5233 30.2472 19.5233C30.5246 19.4812 30.903 19.5991 31.2056 19.9106V19.9191ZM31.2645 21.3843C31.3149 21.4012 31.3317 21.3843 31.3317 21.3591C31.3486 21.1906 31.3065 20.8622 31.1384 20.8538C30.7432 20.8285 30.4069 21.1485 30.2556 21.477C30.4994 21.3759 30.987 21.2917 31.2645 21.3843ZM32.6517 18.698C32.7274 18.597 32.6097 18.4791 32.6097 18.4791C32.3911 18.2349 32.1641 18.1591 31.9707 18.1591C31.6596 18.1591 31.441 18.3528 31.441 18.3528C31.441 18.3528 31.9623 18.4791 32.1725 18.9254C32.1893 18.9506 32.2313 18.9506 32.265 18.9422C32.4752 18.8833 32.5676 18.7991 32.6517 18.7064V18.698ZM38.2511 26.0833C38.4529 25.8138 38.8817 25.3506 39.1255 25.2833C39.3525 25.2159 39.4282 24.357 39.0919 24.458C38.2007 24.7359 38.2595 26.0833 38.2595 26.0833H38.2511ZM39.1339 26.0159C39.2852 25.898 39.4702 25.8643 39.7308 25.797C40.3446 25.6285 40.2773 24.9212 39.6552 25.1149C39.3273 25.2159 39.1591 25.6706 39.1339 26.0159ZM38.6126 24.5338C38.7892 24.458 38.7556 23.7422 38.4865 23.8685C37.7971 24.197 37.9316 25.3254 37.9316 25.3254C38.1838 24.8706 38.5201 24.5759 38.6042 24.5338H38.6126ZM34.4257 15.4559C34.8545 15.818 34.6611 16.2391 34.7788 15.9191C34.7872 15.8854 34.989 15.0938 34.7031 14.8833C34.3416 14.6054 34.1314 15.1528 34.4257 15.4559ZM32.4163 16.8117C32.7862 17.1991 33.2571 17.1401 33.5093 16.9717C33.5093 16.9717 33.0553 16.8538 32.8115 16.4749C32.7022 16.3064 32.5508 16.2812 32.4499 16.3485C32.2986 16.4412 32.3575 16.7612 32.4079 16.8117H32.4163ZM35.7541 4.27276C34.7368 4.50013 34.6443 3.82644 34.6443 3.82644C34.6443 3.82644 34.2744 4.66855 35.0563 4.84539C35.5775 4.96328 36.0904 4.42434 37.0236 4.79486C37.0236 4.79486 36.7798 4.04539 35.7625 4.27276H35.7541ZM32.2482 16.8285V16.8033C32.0464 16.2138 32.6601 15.9443 32.946 16.4243C32.946 16.4243 33.1309 16.2222 33.1057 16.0454C33.0889 15.9106 32.9796 15.8012 32.9796 15.8012C32.9796 15.4559 32.8199 15.4307 32.9544 15.2538C32.9544 15.2538 33.173 15.178 33.1982 15.1696C33.2823 15.1443 33.627 15.077 33.8288 15.2454C33.9969 15.3801 34.0978 15.4475 34.1987 15.3633C34.039 14.9843 34.2912 14.5717 34.6359 14.6896C34.6443 14.6054 34.6191 14.4622 34.3164 14.4033C34.3164 14.4033 33.7867 14.3443 33.7111 14.3443C33.7111 14.3443 34.9049 13.317 35.0983 13.1401C35.0983 13.1401 34.9301 13.9738 35.4346 14.4622C35.4346 14.4622 35.9811 13.7885 36.124 13.4264C36.2585 13.0643 36.2165 12.997 36.2165 12.997C36.309 13.0896 37.3767 13.3928 37.671 12.2054C37.8391 12.5254 37.5785 13.4854 36.4183 13.4012C36.4183 13.4012 36.2417 13.8475 36.1408 13.957C36.9143 14.4875 37.898 15.397 37.9737 15.6412C37.9737 15.6412 37.898 16.5085 36.3762 16.778C36.0483 16.837 35.3842 17.0138 35.0142 17.4096C34.4593 18.0159 34.3837 19.4054 33.8624 19.6243C33.8792 19.6243 34.2071 19.717 34.6779 19.3549L34.9133 20.2054C34.9133 20.2054 34.0558 20.138 33.0637 20.6433C33.0637 20.6433 32.9123 20.2643 33.0469 19.9443C33.1898 19.6075 33.3327 18.6812 32.8031 18.6896C32.761 18.8833 32.349 19.1612 32.1389 19.0854C32.1136 19.1191 32.0212 19.2875 32.265 19.6328C32.265 19.6328 31.9623 19.4054 31.7101 19.5149C31.7437 19.7422 31.4326 20.1717 31.1888 20.0959C31.172 20.0959 31.1636 20.0959 31.1636 20.0959C31.1636 20.0959 30.9534 20.3654 31.2477 20.7528C31.3065 20.7864 31.3738 20.8454 31.4074 20.9464C31.4579 21.0896 31.4999 21.3506 31.4494 21.4517C31.4494 21.5106 31.6176 21.6706 31.9287 21.5696C31.9287 21.5696 31.8782 21.7885 31.6092 21.8391C31.6092 21.8391 31.9203 22.7654 32.9376 22.1843C32.9376 22.1843 32.8619 22.5212 32.5508 22.6728C32.5508 22.6728 33.3327 23.2791 34.081 22.5717C34.081 22.5717 33.9801 22.8833 33.7363 23.1022C33.7363 23.1022 35.0647 23.1696 35.3421 22.3864C35.3421 22.3864 35.4262 22.597 35.3421 22.7906C35.3421 22.7906 35.6196 22.6728 35.7625 22.3022C35.9054 21.9317 36.1072 21.7633 36.3762 21.7296C36.6789 21.6959 36.8471 21.258 36.7966 21.0054C36.7378 20.6938 36.6285 19.178 36.6201 18.8412C36.6201 18.5043 37.6542 18.5717 38.621 18.3106C38.621 18.3106 38.9321 17.797 39.0078 17.3085C39.0834 16.8201 38.7135 16.2896 38.7135 16.2896C39.5543 16.9464 39.26 17.6538 38.9237 18.4706C38.7976 18.7738 38.6294 19.2201 38.7472 19.4559C38.8649 19.6917 39.3273 20.4496 39.0835 21.738C39.0835 21.738 39.4702 21.8391 39.8149 21.5022C39.941 21.7549 40.2605 22.3864 40.5548 22.7738C40.622 23.4559 40.2016 24.2391 39.9831 24.1296C39.6972 23.9864 39.1339 23.5233 38.7556 23.8517C38.8564 23.9949 38.8733 24.2475 38.8396 24.4243C38.9069 24.3906 39.0414 24.3233 39.1339 24.3233C39.4618 24.3233 39.4954 24.7696 39.4113 25.0896C39.5375 24.997 39.7056 24.9549 39.8401 24.9549C40.2857 24.9549 40.4959 25.4854 40.0251 25.8306C40.1344 25.9233 40.3025 26.0412 40.4455 26.058C40.8238 26.117 41.261 25.3254 41.3114 25.1064C41.3114 25.1064 41.3451 25.3254 41.3283 25.9064C41.3283 25.9064 42.2531 25.6033 41.9924 24.1212C41.9924 24.1212 42.3708 24.1801 42.354 24.9885C42.354 24.9885 42.665 24.677 42.6903 24.037C42.7071 23.5233 42.5726 23.4222 42.6482 23.1443C42.6482 23.1443 42.9341 23.5654 42.892 24.0706C42.892 24.0706 43.1863 23.7001 43.0938 23.2622C43.0013 22.8243 42.8164 22.6812 42.6482 22.5128C42.3372 22.2012 42.3035 21.6117 42.4717 21.258C42.4717 21.258 42.2363 21.317 41.9756 21.1822C41.7738 21.0728 41.3703 20.4496 41.4039 20.1549C41.4291 19.877 41.6814 19.3801 41.6309 19.0349C42.1522 20.197 42.8164 20.9212 43.8169 20.9212C44.8174 20.9212 45.4479 19.818 45.4479 18.9001C45.4479 17.5612 44.5567 16.3233 44.5567 15.4306C44.5567 15.018 44.8594 14.3949 45.2293 14.3949C45.5993 14.3949 45.1032 15.2285 45.1537 15.7001C45.1873 15.9949 45.3218 16.2475 45.4563 16.4328C45.49 16.2391 45.5909 16.0454 45.7086 15.9528C45.6833 16.7191 46.1794 17.1654 46.1121 18.0075C46.5661 17.5864 46.8604 17.2496 46.7175 16.4496C46.8436 16.4917 47.0117 16.5338 47.1546 16.5001C46.9276 16.2391 46.9613 15.338 46.8015 14.9591C46.9697 14.9422 47.2135 14.8496 47.306 14.6138C46.5409 14.4538 46.6418 13.6875 45.5909 13.6875C44.4222 13.6875 43.8169 14.4454 43.8169 15.5485C43.8169 16.6517 44.666 17.5612 44.666 18.7485C44.666 19.6833 44.2877 20.0706 43.8589 20.0706C43.2788 20.0706 42.7239 19.498 42.2783 17.9149C42.0849 17.1654 41.8243 16.1717 41.3871 15.4896C41.2778 15.4728 40.8406 15.4643 40.3782 15.0601C40.3782 15.0601 40.2941 15.4643 39.941 15.7254C39.941 15.7254 38.7303 15.3801 38.991 14.1422C38.991 14.1422 39.0498 15.1191 39.9158 15.397C39.9158 15.397 40.1764 14.9928 40.2605 14.5717C40.2605 14.5717 40.7397 15.2117 41.4712 15.2791C41.4712 15.2791 41.6982 15.0012 41.7066 14.4033C41.7066 14.4033 42.2279 14.7485 42.9341 14.6138C42.9341 14.6138 43.1863 14.1759 42.9761 13.3001C43.5646 13.477 44.2877 13.2412 44.5567 12.9212C44.4558 12.7696 43.9262 12.1801 43.5899 11.9864C43.5899 11.9864 45.5404 12.5928 46.171 11.1443C46.171 11.1443 45.2461 11.0601 44.4222 10.5717C44.4222 10.5717 46.2887 10.4117 47.0622 8.31486C47.0622 8.31486 46.1373 8.57592 45.1116 8.39907C45.1116 8.39907 47.1967 7.97802 47.1294 6.10855C47.1294 6.10855 46.8099 6.51276 45.7338 6.63065C45.7338 6.63065 47.4994 4.68539 46.6418 3.1275C46.6418 3.1275 46.5745 4.03697 45.5068 4.8875C45.5068 4.8875 46.6334 2.35276 45.2882 0.685391C45.3218 1.69592 44.7333 2.72328 44.2457 3.43907C44.2457 3.43907 44.4054 1.67907 43.5394 1.22434C43.5394 1.22434 43.6487 3.34644 41.8916 6.15065C41.1181 7.38855 40.6725 8.03697 41.2694 9.19065C41.5805 9.78855 40.849 11.018 39.6888 11.0264C37.7046 11.0433 39.9831 7.45592 39.9831 7.45592C39.9831 7.45592 40.1092 7.80118 40.3698 7.99486C40.3698 7.99486 40.6725 7.49802 40.58 6.67276C40.5295 6.28539 40.4959 6.22644 40.4118 5.98223C40.4118 5.98223 40.6641 6.03276 40.849 5.89802C40.849 5.89802 40.7397 5.08118 40.4875 4.67697C40.3194 4.39907 40.2101 4.31486 40.1596 4.2896C40.353 4.34855 41.2694 4.56749 41.673 4.07065C41.7991 3.91907 41.8159 3.66644 41.7991 3.66644C41.7991 3.66644 41.6225 3.8096 41.1349 3.8096C41.1349 3.8096 42.438 3.51486 42.127 2.01592C42.0261 2.17592 41.7486 2.5296 41.1937 2.78223C40.5043 3.09381 40.3025 3.11907 39.4954 3.14434C39.1507 2.95907 38.0409 2.38644 37.3515 2.36118C37.3011 2.36118 36.8471 2.36118 36.7294 2.73171C36.7294 2.73171 35.9222 2.50434 35.5523 3.11907C35.2833 3.56539 35.485 4.04539 35.485 4.04539C35.5355 3.72539 36.166 3.46434 36.4771 3.85171C36.9648 4.55907 37.2254 4.29802 37.6542 4.63486C37.856 4.79486 37.9989 4.98855 38.0241 5.06434C37.5869 4.90434 36.7462 5.33381 36.3846 5.20749C36.3426 5.19065 36.1913 5.15697 35.9979 4.98013C35.9979 4.98013 35.897 5.57802 36.4435 5.86434C36.5444 5.91486 36.9227 5.99907 37.2674 5.86434C37.3851 5.82223 37.5112 5.79697 37.5533 5.77171C38.0998 6.00749 38.6883 6.09171 38.9994 5.62855C39.1927 5.34223 39.1087 5.02223 39.075 4.96328C39.075 4.96328 39.3357 5.22434 39.1759 5.75486C39.075 6.07486 38.6379 6.34434 38.0241 6.20118C37.7887 6.15065 37.5365 6.04118 37.5365 6.04118C37.0488 6.72328 36.1492 6.61381 35.3169 6.74013C35.3169 6.74013 34.9301 6.37802 34.5098 6.20118C33.3075 5.69592 33.0805 4.72749 31.9623 4.46644C31.5419 4.36539 31.5335 4.35697 31.3906 4.25592C31.1384 4.07907 30.8693 3.90223 30.5835 4.07907C30.5162 4.12118 30.5162 4.12118 30.4405 4.20539C30.7096 4.22223 30.945 4.49171 30.8609 4.83697C30.8525 4.8875 30.8357 4.94644 30.8357 4.94644C31.2224 4.90434 31.584 5.4096 31.1384 5.80539C31.1804 5.85592 31.2561 5.94013 31.3906 5.97381C31.668 6.0496 31.8782 5.66223 32.2313 5.73802C32.2818 5.74644 32.3575 5.79697 32.3743 5.84749C32.3911 5.8896 32.5676 6.31065 32.3575 6.59697C32.2397 6.74855 32.2482 6.84118 32.2566 6.89171C32.7274 6.77381 32.9544 6.97592 32.988 7.29592C33.0805 7.26223 33.1309 7.11065 33.1393 7.01802C33.1478 6.92539 33.1646 6.54644 33.1646 6.44539C33.2655 6.5717 33.6606 7.05171 34.0053 7.46434C33.9128 7.59065 33.8288 7.74223 33.7615 7.91065C33.9297 7.82644 34.0978 7.77592 34.2491 7.74223C34.2828 7.77592 34.308 7.8096 34.3332 7.84328C32.5592 8.97171 32.8787 10.6054 32.8787 10.6054C32.8787 10.6054 32.9712 10.0664 33.6018 9.88118C33.6018 9.88118 32.9123 10.7485 33.3664 11.978C33.3664 11.978 33.7615 11.4307 34.6695 11.498C34.6695 11.498 33.9465 12.2222 33.5765 12.9717C33.2066 13.7212 32.5508 14.2012 32.4247 14.3275C32.307 14.4538 31.8026 14.9338 31.6933 15.2454C31.4831 15.877 31.5335 15.8601 31.3149 16.1043C31.2224 16.2054 30.9618 16.5001 31.1468 16.8707C31.1468 16.8707 31.214 17.0138 31.3738 17.1149C31.3401 16.8454 31.5924 16.5675 31.9539 16.677C32.0127 16.6938 32.1304 16.7275 32.2397 16.8707L32.2482 16.8285ZM38.3184 3.43065C37.7551 4.19697 37.2254 3.35486 37.2254 3.35486C37.4692 3.39697 37.4776 3.32118 37.671 3.26223C37.5869 3.38855 37.6794 3.54855 37.8307 3.54855C37.9905 3.54855 38.0746 3.35486 37.9653 3.23697C38.0914 3.26223 38.1502 3.31276 38.3268 3.43065H38.3184ZM30.0118 5.40118C30.2472 5.02223 30.533 4.96328 30.6171 4.89592C30.6928 4.84539 30.7012 4.79486 30.718 4.69381C30.7684 4.45802 30.6171 4.31486 30.4574 4.31486C30.1547 4.31486 29.7679 4.91276 30.0034 5.40118H30.0118ZM32.5172 6.95907C32.2397 6.97592 32.0716 7.20328 31.8614 7.43065C33.0132 7.59065 32.8955 6.93381 32.5172 6.95907ZM31.0207 5.5696C31.0879 5.54434 31.172 5.48539 31.172 5.32539C31.172 5.03907 30.8441 5.07276 30.8441 5.07276C30.4405 5.07276 30.1127 5.84749 30.5078 6.41171C30.5078 6.03276 30.6591 5.70434 31.0207 5.57802V5.5696ZM8.21112 2.92539C8.38768 2.83276 9.58995 2.20118 10.2962 2.15065L10.1028 0.525391C9.77492 0.592759 9.44703 0.702233 9.12754 0.828548L9.3041 1.3675C9.15276 1.42644 9.00143 1.49381 8.8585 1.5696L8.57265 1.0896C8.2952 1.23276 7.87482 1.48539 7.60578 1.66223L7.89164 2.14223C7.74871 2.23486 7.6226 2.33592 7.49649 2.43697L7.10974 2.03276C6.91637 2.19276 6.7314 2.36118 6.56325 2.54644C7.25267 2.88329 7.5133 2.90013 8.21953 2.91697L8.21112 2.92539ZM15.1557 17.5359C15.7526 17.7801 16.5345 17.1064 16.0721 16.7949C15.9628 16.7191 15.6938 16.7696 15.6181 16.8959C15.5593 16.9885 15.5172 17.2833 15.1557 17.5359ZM17.493 19.5317C17.493 19.5317 17.2324 19.2117 16.812 19.2117C16.6523 19.2117 16.4757 19.2622 16.2739 19.3885C16.2739 19.3885 16.131 19.4643 16.1646 19.5991C16.2151 19.7675 16.4337 20.037 16.5345 19.9275C16.8288 19.6159 17.2071 19.498 17.493 19.5401V19.5317ZM17.4762 21.4854C17.3249 21.157 16.9886 20.837 16.5934 20.8622C16.4252 20.8706 16.3832 21.1991 16.4 21.3675C16.4 21.3928 16.4168 21.4096 16.4673 21.3928C16.7363 21.3001 17.224 21.3928 17.4762 21.4854ZM15.4668 18.9422C15.4668 18.9422 15.5425 18.9591 15.5593 18.9254C15.7779 18.4791 16.2907 18.3528 16.2907 18.3528C16.2907 18.3528 16.0637 18.1591 15.7611 18.1591C15.5677 18.1591 15.3407 18.2349 15.1221 18.4791C15.1221 18.4791 15.0044 18.6054 15.08 18.698C15.1557 18.7906 15.2566 18.8749 15.4668 18.9338V18.9422ZM8.64831 24.458C8.31201 24.357 8.38768 25.2243 8.61468 25.2833C8.8585 25.3506 9.27887 25.8222 9.48906 26.0833C9.48906 26.0833 9.54791 24.7275 8.65672 24.458H8.64831ZM8.08501 25.1149C7.46286 24.9212 7.3956 25.6285 8.00934 25.797C8.26997 25.8559 8.45494 25.8896 8.60627 26.0159C8.58105 25.6706 8.4129 25.2159 8.08501 25.1149ZM9.80014 25.3254C9.80014 25.3254 9.94307 24.197 9.24524 23.8685C8.98461 23.7422 8.95098 24.458 9.11913 24.5338C9.21161 24.5759 9.53951 24.8622 9.79173 25.3254H9.80014ZM13.0286 14.8833C12.7428 15.0938 12.9445 15.8938 12.953 15.9191C13.0707 16.2391 12.8857 15.818 13.3061 15.4559C13.5919 15.1528 13.3817 14.6054 13.0286 14.8833ZM15.2818 16.3485C15.1893 16.2896 15.0296 16.3064 14.9203 16.4749C14.6765 16.8454 14.2225 16.9717 14.2225 16.9717C14.4747 17.1317 14.9455 17.1991 15.3155 16.8117C15.3659 16.7612 15.4248 16.4496 15.2734 16.3485H15.2818ZM10.725 4.78644C11.6582 4.41592 12.1711 4.94644 12.6923 4.83697C13.4742 4.66855 13.1043 3.81802 13.1043 3.81802C13.1043 3.81802 13.0118 4.50013 11.9945 4.26434C10.9772 4.02855 10.7334 4.78644 10.7334 4.78644H10.725ZM9.78332 3.23697C9.67403 3.35486 9.76651 3.54855 9.91784 3.54855C10.0608 3.54855 10.1533 3.38855 10.0776 3.26223C10.271 3.32118 10.2794 3.40539 10.5232 3.34644C10.5232 3.34644 9.99351 4.19697 9.43021 3.43065C9.60677 3.31276 9.66562 3.25381 9.79173 3.23697H9.78332ZM17.2744 4.31486C17.1147 4.31486 16.9633 4.45802 17.0138 4.69381C17.039 4.79486 17.0474 4.84539 17.1147 4.89592C17.2071 4.96328 17.493 5.02223 17.72 5.40118C17.9554 4.90434 17.5687 4.31486 17.266 4.31486H17.2744ZM15.8788 7.43907C15.6686 7.21171 15.5004 6.98434 15.223 6.96749C14.8446 6.94223 14.7269 7.60749 15.8788 7.43907ZM17.2408 6.41171C17.6359 5.85592 17.308 5.07276 16.9045 5.07276C16.9045 5.07276 16.5766 5.03907 16.5766 5.32539C16.5766 5.48539 16.6607 5.54434 16.7279 5.5696C17.0894 5.69592 17.2408 6.02434 17.2408 6.40328V6.41171ZM30.9702 21.5949C30.4826 21.5106 29.8772 21.8643 29.8772 21.8643C30.1295 20.7864 30.8021 20.6685 30.9114 20.6264C30.9114 20.6264 30.8441 20.3991 30.8609 20.2812C30.8777 20.1633 30.9366 20.0117 30.9366 20.0117C30.449 19.5654 29.7848 19.7507 29.7848 19.7507C29.7848 19.7507 30.3312 18.9843 30.8693 18.9843C31.4074 18.9843 31.584 19.1949 31.7017 19.2538C31.7353 19.2706 31.7773 19.237 31.811 19.237C31.8362 19.1275 31.8614 19.0264 31.8866 18.917C31.5756 18.5128 31.0291 18.4454 31.0291 18.4454C31.0291 18.4454 31.4999 17.9233 31.9791 17.9149C32.0127 17.9149 32.0548 17.9149 32.0968 17.9149C32.0968 17.8812 32.1136 17.8391 32.1136 17.8054C31.8194 17.7549 31.5419 17.578 31.399 17.3675L31.2561 17.2833C31.0543 17.157 30.9618 16.9801 30.9366 16.938C30.8273 16.7191 30.8189 16.4833 30.903 16.2559C30.9702 16.0875 31.0795 15.9612 31.1384 15.9022C31.2224 15.8012 31.2981 15.6664 31.3486 15.498C31.3738 15.4054 31.4158 15.2875 31.4663 15.1275C31.5587 14.8412 31.8698 14.5043 32.1809 14.1843C32.2061 14.1591 32.2482 14.117 32.2482 14.117C32.2734 14.0917 32.2986 14.0664 32.3406 14.0328V7.70013C32.2902 7.70013 32.2397 7.70013 32.1809 7.70013C31.9707 7.70013 31.441 7.59065 31.441 7.59065C31.441 7.59065 31.7185 7.2117 31.7437 7.17802C31.8278 7.08539 31.9119 6.99276 32.0127 6.90855C31.9875 6.79907 31.9875 6.62223 32.1557 6.40328C32.2566 6.26013 32.1977 6.03276 32.1557 5.92328C32.1473 5.92328 32.1389 5.92328 32.1304 5.92328C32.0632 5.92328 31.9791 5.97381 31.8866 6.02434C31.7689 6.0917 31.626 6.17592 31.4578 6.17592C31.4074 6.17592 31.3654 6.17592 31.3149 6.15907C31.172 6.11697 31.0375 6.03276 30.9366 5.90644L30.9198 5.8896C30.8777 5.92328 30.8357 5.96539 30.8105 6.02434C30.5919 6.33592 30.7012 6.90855 30.7012 6.90855C30.5667 6.84118 30.0202 6.34434 30.0538 5.76328L29.9613 5.92328C29.9613 5.92328 29.6166 5.37592 29.6755 5.00539H18.0227C18.0815 5.36749 17.7368 5.92328 17.7368 5.92328L17.6443 5.76328C17.6864 6.34434 17.1315 6.84118 16.997 6.90855C16.997 6.90855 17.1147 6.33592 16.8877 6.02434C16.854 5.97381 16.8204 5.9317 16.7784 5.8896L16.7615 5.90644C16.6607 6.03276 16.5345 6.12539 16.3832 6.15907C16.3412 6.17592 16.2907 6.17592 16.2403 6.17592C16.0721 6.17592 15.9292 6.0917 15.8115 6.02434C15.7274 5.97381 15.6433 5.92328 15.5677 5.92328C15.5593 5.92328 15.5509 5.92328 15.5425 5.92328C15.5088 6.02434 15.4416 6.26013 15.5425 6.40328C15.7106 6.62223 15.7106 6.79907 15.6854 6.90855C15.7863 6.99276 15.8704 7.09381 15.9544 7.17802C15.9797 7.2117 16.2571 7.59065 16.2571 7.59065C16.2571 7.59065 15.7274 7.70855 15.5172 7.70013C15.4584 7.70013 15.4079 7.70013 15.3575 7.70013V14.0328C15.3575 14.0328 15.4332 14.1001 15.45 14.117C15.45 14.117 15.492 14.1591 15.5172 14.1843C15.8367 14.5043 16.1394 14.8412 16.2319 15.1275C16.2823 15.2875 16.3159 15.4054 16.3496 15.498C16.4 15.6749 16.4757 15.8096 16.5598 15.9022C16.6102 15.9612 16.7195 16.0875 16.7952 16.2559C16.8877 16.4833 16.8793 16.7191 16.7615 16.938C16.7447 16.9801 16.6523 17.1485 16.4421 17.2833L16.2991 17.3675C16.1478 17.5864 15.8788 17.7549 15.5845 17.8054C15.5845 17.8391 15.5929 17.8812 15.6013 17.9149C15.6434 17.9149 15.677 17.9149 15.719 17.9149C16.1982 17.9233 16.6691 18.4454 16.6691 18.4454C16.6691 18.4454 16.1142 18.5128 15.8115 18.917C15.8367 19.018 15.8619 19.1275 15.8872 19.237C15.9292 19.237 15.9628 19.2791 15.9965 19.2538C16.1142 19.1864 16.2739 18.9843 16.8288 18.9843C17.3837 18.9843 17.9134 19.7507 17.9134 19.7507C17.9134 19.7507 17.2492 19.557 16.7615 20.0117C16.7615 20.0117 16.8204 20.1633 16.8372 20.2812C16.854 20.3991 16.7868 20.6264 16.7868 20.6264C16.9045 20.6685 17.5771 20.7864 17.8209 21.8643C17.8209 21.8643 17.224 21.5106 16.7279 21.5949C17.8797 24.0285 19.99 26.3106 23.8323 27.178C27.6661 26.3106 29.7764 24.0285 30.9366 21.5949H30.9702ZM15.7779 16.6349C16.1394 16.5338 16.3916 16.8033 16.358 17.0728C16.5261 16.9717 16.585 16.8285 16.585 16.8285C16.77 16.458 16.5093 16.1717 16.4168 16.0622C16.1898 15.818 16.2487 15.8349 16.0385 15.2033C15.9376 14.8917 15.4332 14.4117 15.307 14.2854C15.1893 14.1591 14.5252 13.6791 14.1552 12.9296C13.7853 12.1801 13.0622 11.4559 13.0622 11.4559C13.9703 11.3801 14.3654 11.9359 14.3654 11.9359C14.8194 10.7064 14.13 9.83907 14.13 9.83907C14.7606 10.0243 14.853 10.5633 14.853 10.5633C14.853 10.5633 15.1725 8.9296 13.3985 7.80118C13.4238 7.76749 13.4574 7.73381 13.4826 7.70013C13.6256 7.73381 13.7937 7.78434 13.9703 7.86855C13.903 7.69171 13.8189 7.54855 13.7264 7.42223C14.0711 7.0096 14.4663 6.5296 14.5672 6.40328C14.5672 6.50434 14.584 6.88328 14.5924 6.97592C14.6008 7.06855 14.6429 7.22013 14.7437 7.25381C14.769 6.94223 15.0044 6.7317 15.4752 6.8496C15.4836 6.79907 15.492 6.70644 15.3743 6.55486C15.1557 6.26855 15.3407 5.84749 15.3575 5.80539C15.3743 5.75486 15.45 5.70434 15.5004 5.69592C15.8451 5.61171 16.0637 6.00749 16.3412 5.9317C16.4673 5.89802 16.5514 5.81381 16.5934 5.76328C16.1478 5.36749 16.5177 4.86223 16.8961 4.90434C16.8961 4.90434 16.8793 4.83697 16.8708 4.79486C16.7868 4.4496 17.0222 4.18855 17.2912 4.16328C17.224 4.07907 17.2156 4.07907 17.1483 4.03697C16.8624 3.86013 16.5934 4.03697 16.3412 4.21381C16.1982 4.31486 16.1898 4.32328 15.7695 4.42434C14.6513 4.68539 14.4243 5.65381 13.222 6.15907C12.8016 6.33592 12.4149 6.69802 12.4149 6.69802C11.5825 6.56328 10.6829 6.67276 10.1953 5.99907C10.1953 5.99907 9.94307 6.10855 9.70766 6.15907C9.09391 6.30223 8.65672 6.03276 8.55583 5.71276C8.39609 5.18223 8.65672 4.92118 8.65672 4.92118C8.62309 4.98013 8.53901 5.30013 8.73239 5.58644C9.04346 6.05802 9.63199 5.97381 10.1785 5.7296C10.2205 5.74644 10.355 5.78013 10.4643 5.82223C10.809 5.94855 11.179 5.87276 11.2883 5.82223C11.8348 5.53592 11.7339 4.93802 11.7339 4.93802C11.5489 5.11486 11.3892 5.14855 11.3471 5.16539C10.994 5.29171 10.1448 4.86223 9.70766 5.02223C9.74129 4.94644 9.88421 4.74434 10.0776 4.59276C10.5064 4.26434 10.767 4.51697 11.2546 3.8096C11.5657 3.42223 12.2047 3.68328 12.2467 4.00328C12.2467 4.00328 12.4569 3.53171 12.1795 3.07697C11.8095 2.47065 11.0024 2.6896 11.0024 2.6896C10.8847 2.31907 10.4307 2.31907 10.3803 2.31907C9.69084 2.34434 8.58105 2.91697 8.23635 3.10223C7.42923 3.08539 7.22745 3.05171 6.53803 2.74013C5.98314 2.4875 5.70569 2.13381 5.6048 1.97381C5.29372 3.47276 6.59688 3.7675 6.59688 3.7675C6.10925 3.7675 5.93269 3.62434 5.93269 3.62434C5.92428 3.62434 5.93269 3.86855 6.0588 4.02855C6.47077 4.53381 7.37878 4.30644 7.57215 4.24749C7.52171 4.27276 7.404 4.35697 7.24426 4.63486C7.00044 5.03907 6.88274 5.85592 6.88274 5.85592C7.0593 5.99065 7.31993 5.94013 7.31993 5.94013C7.23585 6.18434 7.19382 6.23486 7.15178 6.63065C7.05089 7.46434 7.36197 7.95276 7.36197 7.95276C7.6226 7.7675 7.74871 7.41381 7.74871 7.41381C7.74871 7.41381 10.0271 11.0096 8.04297 10.9843C6.87433 10.9675 6.15129 9.74644 6.46236 9.14855C7.0593 7.99486 6.6137 7.34644 5.84021 6.10855C4.09145 3.27907 4.20075 1.16539 4.20075 1.16539C3.33477 1.62013 3.49452 3.38013 3.49452 3.38013C3.00688 2.67276 2.41836 1.63697 2.45199 0.626443C1.09838 2.30223 2.23339 4.82855 2.23339 4.82855C1.16564 3.97802 1.09838 3.06855 1.09838 3.06855C0.240816 4.62644 1.99798 6.5717 1.99798 6.5717C0.921823 6.45381 0.602339 6.0496 0.602339 6.0496C0.535079 7.91907 2.62014 8.34013 2.62014 8.34013C1.58602 8.51697 0.669599 8.25592 0.669599 8.25592C1.44309 10.3528 3.30955 10.5128 3.30955 10.5128C2.47721 11.0012 1.56079 11.0854 1.56079 11.0854C2.19136 12.5338 4.14189 11.9275 4.14189 11.9275C3.80559 12.1212 3.27592 12.7191 3.17503 12.8622C3.44407 13.1738 4.16712 13.418 4.75564 13.2412C4.54545 14.117 4.79768 14.5549 4.79768 14.5549C5.4955 14.6896 6.02517 14.3443 6.02517 14.3443C6.02517 14.9422 6.26058 15.2201 6.26058 15.2201C7.00044 15.1528 7.47126 14.5128 7.47126 14.5128C7.55534 14.9338 7.81597 15.338 7.81597 15.338C8.68194 15.0601 8.7408 14.0833 8.7408 14.0833C9.00143 15.3212 7.79075 15.6664 7.79075 15.6664C7.44604 15.4054 7.35356 15.0012 7.35356 15.0012C6.89115 15.4054 6.45396 15.4138 6.34466 15.4306C5.90747 16.1128 5.64684 17.1149 5.45346 17.8559C4.99946 19.4307 4.45297 20.0117 3.87285 20.0117C3.43566 20.0117 3.06573 19.6243 3.06573 18.6896C3.06573 17.5022 3.91489 16.5928 3.91489 15.4896C3.91489 14.3864 3.31796 13.6285 2.14091 13.6285C1.08997 13.6285 1.19086 14.3949 0.425781 14.5549C0.518264 14.7907 0.753674 14.8833 0.930231 14.9001C0.770489 15.2791 0.795711 16.1801 0.577116 16.4412C0.711636 16.4749 0.888194 16.4412 1.01431 16.3907C0.871379 17.1907 1.17405 17.5275 1.61965 17.9485C1.55239 17.1064 2.04002 16.6685 2.02321 15.8938C2.14091 15.9864 2.25021 16.1801 2.27543 16.3738C2.41836 16.1885 2.55288 15.9359 2.5781 15.6412C2.62855 15.1696 2.1325 14.3359 2.50243 14.3359C2.87236 14.3359 3.17503 14.9591 3.17503 15.3717C3.17503 16.2643 2.28384 17.5022 2.28384 18.8412C2.28384 19.7675 2.87236 20.8622 3.91489 20.8622C4.95742 20.8622 5.57958 20.138 6.10084 18.9759C6.0504 19.3212 6.30262 19.818 6.32784 20.0959C6.36147 20.3906 5.95791 21.0222 5.75613 21.1233C5.4955 21.2664 5.26009 21.1991 5.26009 21.1991C5.43665 21.5528 5.40302 22.1422 5.08353 22.4538C4.91538 22.6222 4.73042 22.7654 4.63794 23.2033C4.54545 23.6412 4.83972 24.0117 4.83972 24.0117C4.79768 23.5064 5.08353 23.0854 5.08353 23.0854C5.1592 23.3633 5.02468 23.4728 5.0415 23.978C5.06672 24.618 5.3778 24.9296 5.3778 24.9296C5.36098 24.1296 5.73932 24.0622 5.73932 24.0622C5.47869 25.5443 6.40351 25.8475 6.40351 25.8475C6.3867 25.2749 6.42033 25.0475 6.42033 25.0475C6.47077 25.2664 6.90796 26.058 7.2863 25.9991C7.42082 25.9822 7.59738 25.8643 7.70667 25.7717C7.23585 25.4349 7.44604 24.8959 7.89164 24.8959C8.02616 24.8959 8.19431 24.938 8.32042 25.0306C8.23635 24.7106 8.27838 24.2643 8.59787 24.2643C8.69035 24.2643 8.82487 24.3317 8.89213 24.3654C8.8585 24.1885 8.86691 23.9443 8.9762 23.7928C8.59787 23.4643 8.03457 23.9275 7.74871 24.0706C7.53012 24.1801 7.10974 23.397 7.177 22.7149C7.47967 22.3359 7.79916 21.7043 7.91686 21.4433C8.26157 21.7801 8.64831 21.6791 8.64831 21.6791C8.4129 20.3906 8.86691 19.6328 8.98461 19.397C9.10232 19.1612 8.93417 18.7233 8.80805 18.4117C8.47176 17.5949 8.17749 16.8875 9.01824 16.2306C9.01824 16.2306 8.64831 16.7612 8.72398 17.2496C8.79965 17.738 9.11072 18.2517 9.11072 18.2517C10.0692 18.5128 11.1117 18.4454 11.1117 18.7822C11.1117 19.1191 10.994 20.6349 10.9352 20.9464C10.8847 21.1991 11.0613 21.6285 11.3555 21.6706C11.633 21.7043 11.8348 21.8728 11.9693 22.2433C12.1122 22.6138 12.3896 22.7317 12.3896 22.7317C12.2972 22.538 12.3896 22.3275 12.3896 22.3275C12.6671 23.1106 13.9955 23.0433 13.9955 23.0433C13.7517 22.8328 13.6508 22.5128 13.6508 22.5128C14.399 23.2201 15.1809 22.6138 15.1809 22.6138C14.8699 22.4538 14.7942 22.1254 14.7942 22.1254C15.8031 22.7064 16.1226 21.7801 16.1226 21.7801C15.8535 21.7296 15.8031 21.5106 15.8031 21.5106C16.1142 21.6117 16.2739 21.4517 16.2823 21.3928C16.2319 21.2917 16.2739 21.0306 16.3244 20.8875C16.358 20.7864 16.4252 20.7275 16.4841 20.6938C16.7784 20.3149 16.5766 20.0454 16.5682 20.037C16.5598 20.0285 16.5514 20.0285 16.543 20.037C16.2991 20.1128 15.9881 19.6917 16.0217 19.4559C15.7695 19.3549 15.4668 19.5738 15.4668 19.5738C15.7106 19.2285 15.6181 19.0601 15.5929 19.0264C15.3827 19.1022 14.9707 18.8243 14.9287 18.6306C14.399 18.6306 14.5336 19.5485 14.6849 19.8854C14.8278 20.2054 14.6681 20.5843 14.6681 20.5843C13.6676 20.0707 12.8184 20.1464 12.8184 20.1464L13.0538 19.2959C13.5247 19.658 13.861 19.5654 13.8694 19.5654C13.3481 19.3464 13.2808 17.957 12.7175 17.3507C12.3476 16.9549 11.6834 16.778 11.3555 16.7191C9.84218 16.4496 9.7581 15.5822 9.7581 15.5822C9.84218 15.338 10.8174 14.4285 11.5909 13.898C11.49 13.7801 11.3135 13.3422 11.3135 13.3422C10.1533 13.4264 9.89262 12.4664 10.0608 12.1464C10.355 13.3338 11.4228 13.0307 11.5153 12.938C11.5153 12.938 11.4732 12.997 11.6078 13.3675C11.7507 13.7296 12.2972 14.4033 12.2972 14.4033C12.8016 13.9064 12.6335 13.0812 12.6335 13.0812C12.8268 13.258 14.0207 14.2854 14.0207 14.2854C13.945 14.2854 13.4154 14.3443 13.4154 14.3443C13.1127 14.4033 13.0791 14.5464 13.0959 14.6307C13.4406 14.5212 13.7012 14.9254 13.5331 15.3043C13.634 15.3885 13.7433 15.3212 13.903 15.1864C14.1048 15.018 14.4495 15.0854 14.5336 15.1107C14.5588 15.1107 14.7774 15.1949 14.7774 15.1949C14.9119 15.3717 14.7437 15.397 14.7522 15.7422C14.7522 15.7422 14.6429 15.8517 14.626 15.9864C14.6008 16.1633 14.7774 16.3654 14.7858 16.3654C15.0716 15.8938 15.6938 16.1549 15.4836 16.7443V16.7696C15.5929 16.6264 15.7106 16.5928 15.7695 16.5759L15.7779 16.6349ZM22.5459 14.7149C22.5459 14.5801 22.672 14.2685 23.0588 14.3696C22.9411 14.8159 22.7309 14.5633 22.5459 14.7149ZM19.8639 14.2349C20.2675 14.2349 20.3179 14.5801 20.2843 14.7064C20.1582 14.5549 19.8807 14.7822 19.8639 14.2349ZM21.7136 14.7654C21.6631 14.6475 21.7136 14.6222 21.7136 14.6222C21.7136 14.6222 21.8481 14.7064 21.9322 14.6812C22.1423 14.6138 22.3609 14.6812 22.3609 14.6812C22.3609 14.7149 22.3441 14.7317 22.3441 14.7317C22.2096 14.7317 22.1003 14.7907 22.0667 14.8496C22.0078 14.9928 21.9826 14.9591 21.9322 14.9675C21.8901 14.9675 21.8733 14.9928 21.8733 15.0854C21.8733 15.2033 21.8397 15.2622 21.7724 15.2622C21.7724 15.2622 21.7556 14.8749 21.7052 14.7654H21.7136ZM24.2947 12.9128H23.4623V12.2896C23.4623 12.0707 23.6052 11.818 23.8827 11.818C24.1601 11.818 24.3031 12.0707 24.3031 12.2896V12.9128H24.2947ZM22.5963 9.19907L22.7309 9.79697C22.9074 9.7717 23.084 9.74644 23.2605 9.73802V9.13171C23.6052 9.11486 24.1349 9.11486 24.4796 9.13171V9.73802C24.6646 9.74644 24.8412 9.7717 25.0093 9.79697L25.1438 9.19907C25.5053 9.2496 25.8753 9.34223 26.22 9.46013L25.7996 10.7654L25.396 11.2033C24.3703 10.8496 23.3446 10.8496 22.3189 11.2033L21.9153 10.7654L21.495 9.46013C21.8397 9.34223 22.2012 9.2496 22.5711 9.19907H22.5963ZM19.8135 14.0496C19.9144 14.0243 20.1245 14.1001 20.3431 14.2601C20.3936 14.1928 20.402 14.1338 20.4104 14.0749C20.4272 13.8896 20.133 13.7464 20.133 13.7464C20.2927 13.6285 20.5533 13.5949 20.7803 13.8138C20.8728 13.5864 20.5029 13.3254 20.4188 13.3254C20.4188 13.3254 20.7467 13.0728 21.0494 13.2833C21.1419 13.3507 21.2343 13.4938 21.2343 13.4938C21.1923 13.2496 21.3352 12.997 21.5875 12.9128C21.5875 12.9128 21.5286 13.157 21.6799 13.3591C21.7976 13.5107 21.8733 13.5864 21.8733 13.5864C21.8733 13.5864 21.9406 13.258 22.1508 13.2412C22.3441 13.2243 22.445 13.3001 22.445 13.3001C22.445 13.3001 22.218 13.5696 22.3946 13.9485C22.3946 13.9485 22.5459 13.6117 22.9831 13.6959C22.9242 13.8054 22.8149 13.9654 22.7813 14.2096C22.9747 14.1759 23.1681 14.1928 23.2521 14.2685C23.2521 14.3275 23.1933 14.6054 23.126 14.6812C22.9242 14.9001 22.6804 14.7738 22.6468 14.9422C22.6468 14.9422 22.6468 15.1359 22.5711 15.2538C22.4955 15.3717 22.1592 15.2875 22.1592 15.2875C22.1423 15.338 22.1592 15.3801 22.1844 15.4222C22.3021 15.4559 22.3778 15.498 22.4114 15.5654C22.4114 15.5822 22.4198 15.5991 22.4198 15.6412C22.4198 15.8012 22.1844 15.9359 22.0835 15.9359C21.8481 15.9359 21.6463 15.8433 21.6463 15.7001C21.6463 15.557 21.9574 15.6412 21.9237 15.4812C21.9069 15.4054 21.8229 15.4054 21.8229 15.4054C21.7472 15.5738 21.2343 15.5401 21.2343 15.4222C21.2343 15.3801 21.2512 14.7906 21.3352 14.5717C21.3352 14.5717 21.2343 14.6138 21.1755 14.6475C21.0998 14.6896 20.6542 14.5633 20.5954 14.6812C20.5954 14.6812 20.9233 14.7317 20.9653 14.9422C20.9653 14.9843 21.0662 14.9675 21.083 14.9759C21.0914 14.9759 21.1755 15.0938 21.0998 15.4138C21.0326 15.6917 21.3689 15.5317 21.3689 15.6833C21.3689 15.8349 21.0494 15.9275 20.9317 15.9275C20.671 15.9275 20.4104 15.5233 20.8308 15.4138C20.8644 15.3801 20.8728 15.3296 20.856 15.2791C20.856 15.2791 20.5113 15.3633 20.444 15.2454C20.3768 15.1275 20.3852 15.0264 20.3515 14.9591C20.3179 14.8917 20.0993 14.8664 19.9984 14.7822C19.6369 14.4622 19.7967 14.1001 19.8303 14.0412L19.8135 14.0496ZM21.4866 16.5591C21.6799 16.5591 21.9237 16.2222 21.8985 16.0201C21.8985 16.0201 21.9742 16.0707 22.0583 16.0622C21.7556 16.8875 21.2175 16.8959 20.9149 16.0622C20.9989 16.0622 21.0746 16.0201 21.0746 16.0201C21.0494 16.2138 21.2932 16.5591 21.4866 16.5591ZM21.4866 16.0033C21.9153 16.0033 21.6463 16.3738 21.4866 16.3738C21.3184 16.3738 21.0662 16.0033 21.4866 16.0033ZM19.7462 15.018C19.8555 14.9675 20.0321 15.018 20.1077 15.0854C20.1834 15.1528 20.1666 15.3633 20.3431 15.4643C20.3431 15.4643 20.3347 15.8433 20.6038 16.0201C20.8644 16.2812 21.0578 16.8707 21.4866 16.8707C21.9153 16.8707 22.1087 16.3401 22.3357 16.037C22.672 15.8938 22.6216 15.4643 22.6216 15.4643C22.7729 15.3633 22.7813 15.178 22.7981 15.0938C22.7981 15.0938 22.9663 15.0264 23.0083 15.0096C23.0504 14.9928 23.084 15.0264 23.1092 15.0601C23.1512 15.1022 23.2521 15.1949 23.3698 15.2622C23.3026 15.3717 23.1344 15.3801 22.9579 15.338C22.9915 15.5907 23.1428 16.138 23.3278 16.3149C23.2689 16.3654 23.1176 16.3654 22.9495 16.298C23.2689 16.5001 23.2101 17.317 22.9074 17.6959C22.9158 17.4264 22.857 17.0054 22.5459 16.8707C22.9495 17.418 22.5039 18.2938 21.9153 18.4033C22.0078 18.2517 22.26 17.738 21.8481 17.2159C22.4114 18.2096 21.1082 18.3275 21.4445 19.0938C21.268 19.0349 21.1503 18.9591 21.1503 18.9591C20.8896 18.1675 21.31 17.3507 21.31 17.3507C21.31 17.3507 20.6794 18.0412 20.9569 18.8243C20.5281 18.437 20.5954 17.8054 20.8812 17.4433C20.5617 17.5443 20.4524 17.9485 20.4608 18.3275C19.763 17.477 20.3179 16.9128 20.5617 16.6854C20.3095 16.7106 20.0489 17.0559 19.906 17.3338C19.5949 16.8033 19.7294 16.357 20.0573 16.1043C19.8387 16.1885 19.6369 16.1801 19.5697 16.1128C19.9648 15.6328 19.9648 15.4054 19.9816 15.2875C19.8051 15.3043 19.7042 15.1864 19.6453 15.0601C19.6789 15.0433 19.6874 15.0349 19.7294 15.018H19.7462ZM19.3595 15.2707C19.3595 15.3717 19.3006 15.5064 19.1829 15.5064C19.1409 15.5064 19.1493 15.5064 19.1325 15.4728C19.0988 15.3633 18.8466 15.2538 18.7457 15.2454C18.9643 15.1107 19.2249 15.1528 19.3511 15.2707H19.3595ZM19.0232 15.6496C18.9643 15.717 18.8886 15.7254 18.7962 15.717C18.7205 15.5738 18.5271 15.4896 18.3253 15.5485C18.6028 15.1864 19.1829 15.4812 19.0148 15.6496H19.0232ZM18.1656 16.0201C18.2329 15.7254 18.5271 15.717 18.7457 15.8433C18.7962 15.9022 18.7878 15.978 18.7457 16.0285C18.7205 16.0538 18.6028 16.0707 18.5187 16.0285C18.4178 15.9443 18.2665 15.9275 18.174 16.0285L18.1656 16.0201ZM19.1409 17.5528C19.2081 17.5864 19.2838 17.578 19.3511 17.5528C19.0904 17.3843 18.9727 16.8201 18.9139 16.5759C18.855 16.3401 18.7037 16.4328 18.5692 16.1801C18.8298 16.2138 18.9559 16.037 18.9055 15.8601C19.0148 15.8433 19.1409 15.7759 19.1829 15.6496C19.3511 15.6496 19.4688 15.5149 19.494 15.3464C19.5444 15.4475 19.6201 15.6243 19.6033 15.658C19.5024 15.8264 19.3679 16.0117 19.2754 16.1212C19.2754 16.1212 19.3763 16.298 19.5781 16.298C19.4015 16.6433 19.4688 17.3001 19.8807 17.6538C19.9144 17.9149 20.0573 18.2854 20.4356 18.5549C20.4693 18.5801 20.5113 18.5885 20.4777 18.6559C20.3095 18.9506 20.0825 18.5043 19.7714 18.3359C19.6201 18.2601 19.536 18.2012 19.4015 18.0159C19.5024 18.0496 19.5612 18.0328 19.6705 17.9907C19.5024 17.9907 19.2418 17.7464 19.1409 17.5359V17.5528ZM19.7378 20.5928C19.7378 20.5928 19.7294 20.7191 19.7378 20.778C19.6958 20.9212 19.6705 21.0559 19.7378 21.1822C19.6117 21.157 19.3763 20.9128 19.4604 20.6517C19.5528 20.3822 19.7462 20.5591 19.7378 20.5928ZM20.1666 20.8706C20.133 20.9885 20.1161 21.1317 20.1666 21.258C19.8639 21.1738 19.7378 20.4749 20.0405 20.458C20.0993 20.458 20.1666 20.5085 20.2002 20.5591C20.1666 20.6517 20.1582 20.778 20.1666 20.8622V20.8706ZM20.4608 21.1485C20.2423 21.0054 20.2338 20.517 20.4608 20.517C20.6542 20.517 20.7131 20.7022 20.6542 20.7949C20.4608 20.9885 20.4608 21.1233 20.4693 21.1485H20.4608ZM22.899 20.6433C22.899 20.6433 22.7561 20.3654 22.7729 20.2643C22.7981 20.1464 23.0335 19.9359 23.0924 20.138C22.9158 20.2306 22.8318 20.4159 22.899 20.6433ZM23.2101 20.7275C23.2101 20.7275 23.1933 20.8285 23.1933 20.8622C23.1681 20.8454 23.1344 20.8201 23.1176 20.7864C22.8486 20.3654 23.1849 20.2222 23.2521 20.2222C23.2858 20.2222 23.3194 20.2559 23.3362 20.3064C23.2437 20.3822 23.1765 20.5506 23.2185 20.7275H23.2101ZM23.1597 19.9864C23.2017 19.8012 23.4539 19.9443 23.6389 20.197C23.6893 20.3317 23.6557 20.197 23.4623 20.2475C23.4203 20.1464 23.3278 20.0791 23.2269 20.0959C23.2101 20.0538 23.1933 20.0201 23.1681 19.9949L23.1597 19.9864ZM23.7145 20.6517C23.7145 20.6517 23.5044 20.8791 23.5296 21.0138C23.4875 20.997 23.2185 20.6938 23.3867 20.4412C23.4539 20.3401 23.6052 20.3654 23.6557 20.4075C23.6893 20.4412 23.765 20.5422 23.7145 20.6433V20.6517ZM25.9005 19.9443C25.5978 20.1043 25.3036 20.3064 25.0177 20.5085C24.8832 20.6012 24.7571 20.8959 24.4796 20.8791C24.2022 20.8622 24.0256 20.8201 23.7398 20.8959L23.8238 20.7191C23.8911 20.5759 23.8407 20.4075 23.7314 20.3149C24.1854 20.3485 24.4208 20.1464 24.8496 19.8264C25.0093 19.7001 25.085 19.5991 25.0934 19.5401C25.1354 19.3549 24.9084 19.3296 24.7403 18.6054C25.0597 18.5464 25.2952 18.5128 25.7239 18.5717C25.8921 18.7149 25.8332 18.6559 25.9846 18.7991C25.993 18.8496 26.0014 18.9001 26.0182 18.9591C26.0686 19.2117 26.3209 19.3549 26.3293 19.4896C26.3629 19.8601 26.1527 19.7759 26.0855 19.8012C26.0266 19.818 25.9509 19.9022 25.8837 19.9359L25.9005 19.9443ZM26.2788 20.1464C26.2788 20.1464 26.3797 20.0959 26.4302 20.1633C26.5311 20.2812 26.4806 20.197 26.3713 20.298C26.2788 20.3822 26.2284 20.4917 26.2032 20.5928C26.1864 20.5675 26.0602 20.4159 26.2872 20.1464H26.2788ZM26.3461 21.0391C26.3461 21.0391 26.2116 20.6096 26.4554 20.3906C26.5479 20.3064 26.6572 20.4159 26.6824 20.5422C26.5983 20.5928 26.5142 20.6938 26.4806 20.8117C26.4218 20.8706 26.4302 20.8622 26.3377 21.0306L26.3461 21.0391ZM26.7076 21.1738L26.6824 21.2412C26.6824 21.2412 26.4806 20.9128 26.716 20.6854C26.8674 20.5422 27.0103 20.677 27.0187 20.7443C27.0355 20.9885 26.7833 21.0138 26.716 21.1654L26.7076 21.1738ZM28.7759 19.9528C28.717 19.8264 28.5741 19.658 28.448 19.6749C28.759 20.0454 28.6161 20.6096 28.3639 20.7696C28.3639 20.6264 28.3471 20.458 28.2882 20.3317C28.3387 20.6096 28.1453 21.1064 27.7165 21.1064C26.8169 21.1064 26.9514 21.1064 27.0019 21.0728C27.1448 20.9549 27.1448 20.7949 27.1448 20.7359C27.1448 20.618 27.0103 20.4833 26.8505 20.4833C26.7833 20.4833 26.8253 20.5085 26.7833 20.4159C26.7497 20.3401 26.6992 20.2812 26.6404 20.2475C26.6319 20.1885 26.5899 20.1296 26.5311 20.0622C26.5142 19.9106 26.8085 19.9696 27.1448 20.3064C27.2205 20.3822 27.4979 20.3401 27.624 20.3401C27.7501 20.3401 27.7501 20.197 27.8006 19.9359C27.8342 19.7422 27.809 19.6412 27.6997 19.2707C27.5904 18.9001 26.6992 19.2285 26.3461 18.858C26.2368 18.7401 25.9762 18.4791 25.8164 18.3696C25.1522 18.2685 24.8832 18.3696 24.3115 18.4706C23.4035 18.7064 22.7225 18.8664 22.7225 18.858C22.7225 18.858 22.7225 19.1528 22.5207 19.3128C22.5207 19.1275 22.403 19.0349 22.403 19.0349C22.4366 19.5485 22.2012 19.9864 21.949 20.1296C21.9994 20.0538 22.0919 19.9359 21.9994 19.8096C21.991 19.8938 21.1503 20.6685 20.9905 20.7359C20.9401 21.0054 20.7131 20.9717 20.6626 20.9633C20.6963 20.9212 20.7215 20.8959 20.7551 20.8622C20.9569 20.517 20.5113 20.2306 20.2759 20.4243C20.1245 20.2559 19.9228 20.2643 19.7967 20.4243C19.6621 20.2896 19.4772 20.298 19.3679 20.4833C19.3679 20.2475 19.4435 20.1043 19.7798 20.138C20.0405 19.9443 20.3515 20.0033 20.5197 20.0622C20.7635 19.9106 21.0494 19.338 21.1755 19.1949C21.1755 19.1949 21.5202 19.3296 21.7136 19.2959C21.5875 18.917 21.579 18.757 21.7052 18.5885C22.1003 18.6559 22.5039 18.3696 22.6636 18.1422C23.2353 17.8307 23.4287 17.1991 23.3278 16.6601C23.5044 16.6517 23.765 16.8201 24.2442 16.8707C24.7234 16.9212 26.035 16.7696 26.5815 17.0222C27.1196 17.258 28.1873 17.2749 28.1873 16.4496C28.1873 16.1296 27.8847 15.8938 27.5568 15.8938C27.4391 15.8938 26.7076 15.9612 26.7412 16.357C26.5731 16.3233 26.5058 16.1549 26.5058 16.0285C26.0518 16.1296 25.623 16.2643 24.9841 16.2643C24.4292 16.2643 23.95 16.0033 23.95 15.498C23.95 14.9928 24.3199 14.7233 24.9168 14.7233C25.3876 14.7233 25.7239 14.9085 26.0602 14.9085C26.674 14.9085 26.3965 14.2685 26.2368 14.2096C26.7412 13.9485 27.0439 14.597 26.9178 14.7822C27.6997 14.2264 28.5741 15.0601 28.5236 15.4896C28.3219 15.3043 28.0108 15.237 27.851 15.237C27.4895 15.237 27.3214 15.658 26.4722 15.237C26.5226 15.4475 26.8253 15.5485 26.8253 15.5485C25.9509 15.7591 26.0014 15.1864 24.9757 15.2033C24.6057 15.2033 24.5049 15.3212 24.5049 15.5064C24.5049 15.8264 25.1102 15.9359 25.7828 15.658C26.1527 15.8264 26.8169 15.8854 27.2373 15.5991C27.2373 15.5991 27.4727 15.6328 27.6829 15.4475C28.448 15.5149 28.759 15.9864 28.7002 16.5422C28.6413 17.0812 28.2462 17.5612 27.4727 17.5612C27.1616 17.5612 26.9346 17.5359 26.674 17.4601C27.1364 17.637 27.1784 18.4033 27.9015 18.4033C28.6245 18.4033 28.6834 18.8496 28.717 19.1275C28.6497 19.0264 28.4059 18.9422 28.2714 18.9506C28.6245 19.1528 28.7759 19.557 28.759 19.9443L28.7759 19.9528ZM25.5558 15.5233C25.3204 15.6075 25.1775 15.6075 25.0177 15.6075C24.8748 15.6075 24.7403 15.557 24.7403 15.5064C24.7403 15.4054 25.2952 15.4307 25.5558 15.5233ZM22.4114 11.4307C23.3782 11.1191 24.3451 11.1191 25.312 11.4307L25.808 14.6643C25.5474 14.6054 25.2699 14.5128 24.9168 14.5128C24.1854 14.5128 23.723 14.9001 23.723 15.5149C23.723 16.1296 24.2274 16.5085 24.9757 16.5085C25.4129 16.5085 25.7576 16.4496 26.0686 16.3822L26.1191 16.7022C25.4717 16.6264 24.6057 16.7022 24.2526 16.6685C23.8911 16.6264 23.6893 16.5254 23.4875 16.4749L23.6641 16.3317C23.4875 16.1549 23.3782 16.0959 23.2437 15.5738C23.5044 15.5317 23.5632 15.3801 23.6893 15.178C23.4623 15.0433 23.4791 15.0433 23.4119 15.0096C23.3026 14.9507 23.3362 14.9254 23.2437 14.8496C23.4119 14.6812 23.4539 14.4117 23.4791 14.1507C23.3782 14.0664 23.2942 13.9822 23.0756 13.957C23.1176 13.8728 23.0504 13.9991 23.3194 13.5107C23.0504 13.4601 22.8318 13.3928 22.5795 13.477C22.6048 13.4264 22.5963 13.4349 22.7645 13.2328C22.5711 13.098 22.4702 12.997 22.2012 12.9885L22.445 11.4054L22.4114 11.4307Z" fill="#162042"/>
</g>
<defs>
<clipPath id="clip0_184_1011">
<rect width="205" height="32" fill="white" transform="translate(0.25 0.5)"/>
</clipPath>
</defs>
</svg>
