<svg width="181" height="28" viewBox="0 0 181 28" fill="none" xmlns="http://www.w3.org/2000/svg">
<g clip-path="url(#clip0_298_4508)">
<path opacity="0.7" d="M114.23 9.08548H113.662V10.2939C113.662 10.596 113.691 10.8834 113.736 11.1486C113.78 11.4139 113.854 11.6276 113.935 11.7676V11.8192H111.949V11.7676C112.03 11.6276 112.097 11.4139 112.149 11.1486C112.2 10.876 112.222 10.596 112.222 10.2939V6.3739C112.222 6.07179 112.193 5.78442 112.149 5.51916C112.104 5.2539 112.03 5.04021 111.949 4.90021V4.84863H114.629C115.5 4.84863 116.157 5.01811 116.615 5.36442C117.065 5.71074 117.294 6.21916 117.294 6.88969C117.294 7.3539 117.168 7.74442 116.925 8.04653C116.681 8.356 116.312 8.57705 115.832 8.71705C115.95 8.79811 116.054 8.90127 116.15 9.01179C116.246 9.12969 116.342 9.27705 116.438 9.4539L117.146 10.655C117.323 10.9571 117.478 11.1928 117.611 11.3623C117.744 11.5318 117.87 11.6718 118.003 11.775V11.8265H116.386C116.253 11.7823 116.128 11.6792 115.995 11.5244C115.862 11.3697 115.736 11.1634 115.611 10.9055L115.168 9.98442C114.998 9.63811 114.843 9.40232 114.71 9.27706C114.577 9.15179 114.407 9.09284 114.208 9.09284L114.23 9.08548ZM113.662 5.89495V8.04653H114.636C115.042 8.04653 115.338 7.95811 115.53 7.78863C115.722 7.61916 115.817 7.34653 115.817 6.97811C115.817 6.60969 115.722 6.33705 115.53 6.16021C115.338 5.98337 115.042 5.89495 114.636 5.89495H113.662Z" fill="#162042"/>
<path opacity="0.7" d="M118.807 10.3017V6.38171C118.807 6.07223 118.777 5.78487 118.726 5.5196C118.674 5.25434 118.6 5.04802 118.512 4.90802V4.85645H120.534V4.90802C120.446 5.04802 120.372 5.25434 120.32 5.5196C120.269 5.78487 120.239 6.07223 120.239 6.38171V10.3017C120.239 10.6112 120.269 10.8986 120.32 11.1638C120.372 11.4291 120.446 11.6354 120.534 11.7754V11.827H118.512V11.7754C118.6 11.6354 118.674 11.4291 118.726 11.1638C118.777 10.8986 118.807 10.6112 118.807 10.3017Z" fill="#162042"/>
<path opacity="0.7" d="M126.248 9.81503C126.248 10.4708 126.012 10.9866 125.547 11.3698C125.082 11.7529 124.447 11.9371 123.635 11.9371C123.295 11.9371 122.948 11.9003 122.601 11.834C122.254 11.7603 121.944 11.6645 121.664 11.5319V10.0066H121.708C122.048 10.3161 122.365 10.5371 122.682 10.6698C122.992 10.8024 123.332 10.8687 123.694 10.8687C124.056 10.8687 124.343 10.795 124.535 10.655C124.727 10.515 124.823 10.3087 124.823 10.0435C124.823 9.88135 124.786 9.74135 124.705 9.62346C124.624 9.50556 124.491 9.4024 124.307 9.30661C124.24 9.2624 124.151 9.22556 124.056 9.18135C123.96 9.13714 123.745 9.04872 123.413 8.92346C123.044 8.78346 122.764 8.65819 122.572 8.55503C122.38 8.45188 122.217 8.34135 122.092 8.22346C121.9 8.05398 121.76 7.85503 121.664 7.64135C121.568 7.42767 121.523 7.16977 121.523 6.8824C121.523 6.21925 121.752 5.69609 122.21 5.3203C122.668 4.94451 123.288 4.75293 124.078 4.75293C124.373 4.75293 124.653 4.7824 124.927 4.82661C125.2 4.87819 125.443 4.95188 125.672 5.04767V6.4624H125.628C125.362 6.24135 125.096 6.07925 124.845 5.98346C124.594 5.88767 124.321 5.82872 124.041 5.82872C123.694 5.82872 123.428 5.9024 123.236 6.0424C123.044 6.1824 122.963 6.38872 122.963 6.65398C122.963 6.81609 123 6.95609 123.081 7.07398C123.162 7.19188 123.295 7.29503 123.48 7.39082C123.546 7.43503 123.635 7.47188 123.731 7.51609C123.827 7.5603 124.041 7.64872 124.373 7.77398C124.742 7.91398 125.023 8.03925 125.215 8.1424C125.406 8.24556 125.569 8.35609 125.694 8.47398C125.886 8.64346 126.027 8.8424 126.123 9.05609C126.219 9.26977 126.263 9.52767 126.263 9.81503H126.248Z" fill="#162042"/>
<path opacity="0.7" d="M127.11 11.827V11.7754C127.192 11.6354 127.258 11.4217 127.31 11.1564C127.361 10.8838 127.384 10.6038 127.384 10.3017V6.38171C127.384 6.0796 127.354 5.79223 127.31 5.52697C127.265 5.26171 127.192 5.04802 127.11 4.90802V4.85645H129.096V4.90802C129.015 5.04802 128.949 5.26171 128.897 5.52697C128.845 5.7996 128.823 6.0796 128.823 6.38171V7.86276L130.654 5.81434C130.809 5.63013 130.927 5.46066 131.001 5.31329C131.075 5.16592 131.097 5.02592 131.075 4.91539V4.86381H133.26V4.91539C133.105 4.99645 132.957 5.10697 132.795 5.2396C132.64 5.37223 132.448 5.54908 132.226 5.7775L130.137 7.94381L132.315 10.7659C132.522 11.0312 132.699 11.2449 132.854 11.3996C133.009 11.5543 133.156 11.687 133.297 11.7901V11.8417H131.54C131.407 11.7975 131.267 11.6943 131.119 11.547C130.964 11.3996 130.787 11.1786 130.587 10.8838L128.808 8.39329V10.3091C128.808 10.6112 128.838 10.8986 128.882 11.1638C128.926 11.4291 129 11.6428 129.082 11.7828V11.8343H127.096L127.11 11.827Z" fill="#162042"/>
<path opacity="0.7" d="M112.237 19.5561V15.6361C112.237 15.3266 112.207 15.0393 112.155 14.774C112.104 14.5087 112.03 14.3024 111.941 14.1624V14.1108H113.964V14.1624C113.876 14.3024 113.802 14.5087 113.75 14.774C113.698 15.0393 113.669 15.3266 113.669 15.6361V19.5561C113.669 19.8656 113.698 20.1529 113.75 20.4182C113.802 20.6835 113.876 20.8898 113.964 21.0298V21.0814H111.941V21.0298C112.03 20.8898 112.104 20.6835 112.155 20.4182C112.207 20.1529 112.237 19.8656 112.237 19.5561Z" fill="#162042"/>
<path opacity="0.7" d="M121.095 21.0814H119.818L116.621 16.1151V19.5488C116.621 19.8509 116.651 20.1383 116.695 20.4035C116.739 20.6688 116.813 20.8825 116.894 21.0225V21.074H115.115V21.0225C115.196 20.8825 115.263 20.6688 115.315 20.4035C115.366 20.1309 115.388 19.8509 115.388 19.5488V15.6288C115.388 15.3267 115.359 15.0393 115.315 14.774C115.27 14.5088 115.196 14.2951 115.115 14.1551V14.1035H117.02L119.869 18.5983V15.6361C119.869 15.3267 119.84 15.0393 119.796 14.7667C119.751 14.494 119.677 14.2951 119.596 14.1551V14.1035H121.375V14.1551C121.294 14.2951 121.228 14.5088 121.176 14.774C121.124 15.0467 121.102 15.3267 121.102 15.6288V21.074L121.095 21.0814Z" fill="#162042"/>
<path opacity="0.7" d="M126.048 21.0814H124.063V21.0298C124.144 20.8898 124.21 20.6909 124.262 20.4183C124.314 20.1456 124.336 19.8583 124.336 19.5488V15.1277H124.063C123.664 15.1277 123.317 15.1572 123.007 15.2235C122.704 15.2898 122.446 15.3856 122.239 15.5183H122.188V14.1035H127.923V15.5183H127.872C127.665 15.3856 127.414 15.2898 127.104 15.2235C126.801 15.1572 126.447 15.1277 126.041 15.1277H125.768V19.5488C125.768 19.8509 125.797 20.1383 125.842 20.4035C125.886 20.6688 125.96 20.8825 126.041 21.0225V21.074L126.048 21.0814Z" fill="#162042"/>
<path opacity="0.7" d="M133.482 21.0814H128.787V21.0298C128.868 20.8898 128.935 20.6761 128.986 20.4108C129.038 20.1382 129.06 19.8582 129.06 19.5561V15.6361C129.06 15.334 129.031 15.0466 128.986 14.7814C128.942 14.5161 128.868 14.3024 128.787 14.1624V14.1108H133.239V15.4372H133.209C133.017 15.334 132.759 15.2603 132.441 15.2087C132.124 15.1645 131.747 15.1351 131.304 15.1351H130.492V16.9477H131.282C131.607 16.9477 131.88 16.9403 132.124 16.9182C132.36 16.8961 132.589 16.8666 132.81 16.8151H132.855V18.1708H132.81C132.604 18.1266 132.382 18.0898 132.153 18.0751C131.925 18.0603 131.637 18.0456 131.29 18.0456H130.5V20.0572H131.29C131.747 20.0572 132.161 20.0277 132.515 19.9614C132.877 19.8951 133.18 19.7993 133.438 19.6666H133.49V21.0814H133.482Z" fill="#162042"/>
<path opacity="0.7" d="M139.042 21.0814H134.502V21.0298C134.583 20.8898 134.65 20.6761 134.701 20.4108C134.753 20.1382 134.775 19.8582 134.775 19.5561V15.6361C134.775 15.334 134.746 15.0466 134.701 14.7814C134.657 14.5161 134.583 14.3024 134.502 14.1624V14.1108H136.488V14.1624C136.407 14.3024 136.34 14.5161 136.288 14.7814C136.237 15.054 136.215 15.334 136.215 15.6361V20.0572H136.849C137.307 20.0572 137.713 20.0277 138.068 19.9614C138.422 19.8951 138.732 19.7919 138.998 19.6593H139.049V21.0887L139.042 21.0814Z" fill="#162042"/>
<path opacity="0.7" d="M144.431 21.0814H139.891V21.0298C139.972 20.8898 140.038 20.6761 140.09 20.4108C140.142 20.1382 140.164 19.8582 140.164 19.5561V15.6361C140.164 15.334 140.134 15.0466 140.09 14.7814C140.046 14.5161 139.972 14.3024 139.891 14.1624V14.1108H141.876V14.1624C141.795 14.3024 141.729 14.5161 141.677 14.7814C141.625 15.054 141.603 15.334 141.603 15.6361V20.0572H142.238C142.696 20.0572 143.102 20.0277 143.456 19.9614C143.811 19.8951 144.121 19.7919 144.386 19.6593H144.438V21.0887L144.431 21.0814Z" fill="#162042"/>
<path opacity="0.7" d="M145.545 19.5561V15.6361C145.545 15.3266 145.516 15.0393 145.464 14.774C145.412 14.5087 145.339 14.3024 145.25 14.1624V14.1108H147.273V14.1624C147.184 14.3024 147.11 14.5087 147.059 14.774C147.007 15.0393 146.977 15.3266 146.977 15.6361V19.5561C146.977 19.8656 147.007 20.1529 147.059 20.4182C147.11 20.6835 147.184 20.8898 147.273 21.0298V21.0814H145.25V21.0298C145.339 20.8898 145.412 20.6835 145.464 20.4182C145.516 20.1529 145.545 19.8656 145.545 19.5561Z" fill="#162042"/>
<path opacity="0.7" d="M152.329 21.1995C151.118 21.1995 150.144 20.8753 149.413 20.2269C148.682 19.5784 148.32 18.709 148.32 17.6184C148.32 16.5279 148.66 15.6363 149.346 14.9805C150.033 14.3247 150.956 13.9932 152.115 13.9932C152.454 13.9932 152.794 14.0226 153.126 14.0816C153.458 14.1405 153.739 14.2216 153.968 14.3247V15.7542H153.923C153.695 15.5405 153.414 15.3784 153.104 15.2679C152.787 15.1574 152.454 15.0984 152.093 15.0984C151.369 15.0984 150.801 15.3121 150.395 15.7468C149.989 16.1742 149.789 16.7858 149.789 17.5595C149.789 18.3332 150.011 18.989 150.446 19.4311C150.882 19.8732 151.509 20.0942 152.314 20.0942C152.425 20.0942 152.528 20.0942 152.639 20.0795C152.742 20.0721 152.853 20.05 152.949 20.0353V18.3111C152.661 18.3111 152.417 18.3184 152.211 18.3405C152.004 18.3553 151.812 18.3847 151.635 18.429H151.583V17.1026H151.635C151.856 17.1468 152.07 17.1763 152.285 17.1911C152.499 17.2058 152.742 17.2205 153.015 17.2205H154.433V17.2647C154.396 17.3458 154.374 17.4711 154.352 17.6479C154.329 17.8174 154.322 18.0237 154.322 18.2595V19.91C154.322 20.1163 154.322 20.2932 154.344 20.4479C154.359 20.6026 154.381 20.7279 154.403 20.8237V20.8679C154.108 20.9637 153.761 21.0447 153.37 21.1111C152.978 21.1774 152.624 21.2069 152.314 21.2069L152.329 21.1995Z" fill="#162042"/>
<path opacity="0.7" d="M160.287 21.0814H155.592V21.0298C155.673 20.8898 155.739 20.6761 155.791 20.4108C155.843 20.1382 155.865 19.8582 155.865 19.5561V15.6361C155.865 15.334 155.835 15.0466 155.791 14.7814C155.739 14.5087 155.673 14.3024 155.592 14.1624V14.1108H160.043V15.4372H160.014C159.822 15.334 159.563 15.2603 159.246 15.2087C158.929 15.1572 158.552 15.1351 158.109 15.1351H157.297V16.9477H158.087C158.412 16.9477 158.685 16.9403 158.929 16.9182C159.165 16.8961 159.394 16.8666 159.615 16.8151H159.659V18.1708H159.615C159.408 18.1266 159.187 18.0898 158.958 18.0751C158.729 18.0603 158.441 18.0456 158.094 18.0456H157.304V20.0572H158.094C158.552 20.0572 158.965 20.0277 159.32 19.9614C159.682 19.8951 159.984 19.7993 160.243 19.6666H160.294V21.0814H160.287Z" fill="#162042"/>
<path opacity="0.7" d="M167.273 21.0814H165.995L162.799 16.1151V19.5488C162.799 19.8509 162.828 20.1383 162.873 20.4035C162.924 20.6761 162.991 20.8825 163.072 21.0225V21.074H161.293V21.0225C161.374 20.8825 161.441 20.6688 161.492 20.4035C161.544 20.1309 161.566 19.8509 161.566 19.5488V15.6288C161.566 15.3267 161.537 15.0393 161.492 14.774C161.441 14.5014 161.374 14.2951 161.293 14.1551V14.1035H163.198L166.047 18.5983V15.6361C166.047 15.3267 166.018 15.0393 165.973 14.7667C165.922 14.494 165.855 14.2951 165.774 14.1551V14.1035H167.553V14.1551C167.472 14.2951 167.405 14.5088 167.354 14.774C167.302 15.0467 167.28 15.3267 167.28 15.6288V21.074L167.273 21.0814Z" fill="#162042"/>
<path opacity="0.7" d="M172.217 21.1994C171.132 21.1994 170.261 20.8679 169.596 20.2121C168.932 19.5563 168.6 18.6868 168.6 17.6184C168.6 16.55 168.932 15.6584 169.596 14.9952C170.261 14.3321 171.139 14.0005 172.224 14.0005C172.608 14.0005 172.97 14.0373 173.317 14.111C173.656 14.1847 173.966 14.2952 174.24 14.4426V15.8868H174.188C173.944 15.6363 173.649 15.4447 173.309 15.3047C172.97 15.1647 172.608 15.1058 172.224 15.1058C171.552 15.1058 171.021 15.3268 170.637 15.7689C170.253 16.211 170.054 16.8079 170.054 17.5668C170.054 18.3258 170.253 18.9742 170.637 19.4163C171.028 19.8658 171.56 20.0868 172.239 20.0868C172.601 20.0868 172.955 20.0131 173.287 19.8731C173.619 19.7331 173.922 19.5268 174.181 19.2615H174.232V20.7573C173.944 20.8973 173.627 21.0079 173.273 21.0889C172.918 21.17 172.564 21.1994 172.21 21.1994H172.217Z" fill="#162042"/>
<path opacity="0.7" d="M180.056 21.0814H175.361V21.0298C175.443 20.8898 175.509 20.6761 175.561 20.4108C175.612 20.1382 175.634 19.8582 175.634 19.5561V15.6361C175.634 15.334 175.605 15.0466 175.561 14.7814C175.509 14.5087 175.443 14.3024 175.361 14.1624V14.1108H179.813V15.4372H179.783C179.591 15.334 179.333 15.2603 179.016 15.2087C178.698 15.1572 178.322 15.1351 177.879 15.1351H177.067V16.9477H177.857C178.181 16.9477 178.454 16.9403 178.698 16.9182C178.934 16.8961 179.163 16.8666 179.385 16.8151H179.429V18.1708H179.385C179.178 18.1266 178.956 18.0898 178.728 18.0751C178.499 18.0603 178.211 18.0456 177.864 18.0456H177.074V20.0572H177.864C178.322 20.0572 178.735 20.0277 179.089 19.9614C179.451 19.8951 179.754 19.7993 180.012 19.6666H180.064V21.0814H180.056Z" fill="#162042"/>
<path opacity="0.7" d="M103.659 14.5092V18.3407C103.659 19.3355 103.748 20.0281 103.858 20.4628V20.5734C102.537 21.0081 100.492 21.3544 99.001 21.3544C93.3389 21.3544 89.6699 18.0607 89.6699 13.0207C89.6699 7.98074 93.1396 4.59863 98.499 4.59863C100.123 4.59863 101.777 4.90074 102.818 5.37969V8.71758H102.707C101.666 7.74495 100.123 7.17758 98.4547 7.17758C95.0737 7.17758 93.0953 9.25548 93.0953 12.9176C93.0953 16.5797 95.2435 18.8049 98.9715 18.8049C99.4735 18.8049 99.9681 18.7607 100.448 18.6502V14.6418C98.9715 14.6418 98.1447 14.7523 97.3917 14.8997H97.281V11.8271H97.3917C98.1742 11.9818 99.0379 12.0849 100.625 12.0849H103.925V12.1955C103.755 12.6302 103.667 13.5144 103.667 14.5165L103.659 14.5092Z" fill="#162042"/>
<path opacity="0.7" d="M82.7141 18.7091H80.8685V14.0081H82.7141C84.4489 14.0081 85.3864 14.1186 86.2502 14.3102H86.3609V11.1491H86.2502C85.3791 11.3481 84.4489 11.4512 82.7141 11.4512H80.8685V7.22912H82.7584C84.7516 7.22912 86.2502 7.44281 87.1877 7.92175H87.2763V4.84912H76.9043V4.95965C77.2956 5.63017 77.5539 6.99333 77.5539 8.4007V17.5375C77.5539 18.9449 77.2956 20.3081 76.9043 20.9786V21.0891H87.8373V17.7954H87.7266C86.4864 18.4218 84.7959 18.7018 82.7141 18.7018V18.7091Z" fill="#162042"/>
<path opacity="0.7" d="M70.231 11.6503C68.127 10.825 66.9533 10.4124 66.9533 9.02714C66.9533 7.77451 67.8613 7.09662 69.4706 7.09662C70.8142 7.09662 71.9658 7.57556 73.1838 8.5703H73.2946V5.27662C72.2315 4.81977 70.9101 4.58398 69.5813 4.58398C65.8902 4.58398 63.6387 6.4703 63.6387 9.54293C63.6387 12.6156 65.7426 13.4187 68.0458 14.3029C70.1498 15.1282 71.3235 15.5408 71.3235 16.9261C71.3235 18.1787 70.3934 18.8345 68.6955 18.8345C66.9976 18.8345 65.6392 18.2524 64.0742 16.845H63.9635V20.3966C65.2628 21.0008 66.9607 21.3471 68.5626 21.3471C72.3127 21.3471 74.6381 19.4608 74.6381 16.4103C74.6381 13.3598 72.5342 12.5345 70.231 11.6503Z" fill="#162042"/>
<path opacity="0.7" d="M56.5379 18.7091H55.0615V8.4007C55.0615 6.99333 55.3198 5.63017 55.7111 4.95965V4.84912H51.0898V4.95965C51.4811 5.63017 51.7395 6.99333 51.7395 8.4007V17.5375C51.7395 18.9449 51.4811 20.3081 51.0898 20.9786V21.0891H61.6538V17.7733H61.543C60.2881 18.3996 58.6123 18.7018 56.5305 18.7018L56.5379 18.7091Z" fill="#162042"/>
<path opacity="0.7" d="M5.4601 24.0214V24.0435C5.62989 24.0435 5.80707 24.0435 5.97686 24.0435C6.46408 24.0582 6.7889 23.7856 6.7889 23.3067C6.7889 22.9014 6.53052 22.6288 6.09497 22.6067C5.88089 22.5993 5.6668 22.5919 5.45272 22.6067V22.6288C5.49701 22.6877 5.51916 22.7909 5.51916 22.9088V23.7414C5.51916 23.8593 5.49701 23.9625 5.45272 24.0288L5.4601 24.0214ZM5.80707 22.8351C5.90303 22.8351 5.99162 22.8351 6.08759 22.8425C6.34597 22.8572 6.50837 23.0414 6.50837 23.314C6.50837 23.6309 6.30905 23.8225 6.00639 23.8077C5.93995 23.8077 5.87351 23.8077 5.80707 23.8077V22.8351ZM7.70429 22.8351V22.813C7.56403 22.7835 7.43115 22.7614 7.29089 22.7393V22.7614C7.33518 22.8277 7.35733 22.9382 7.35733 23.0561V23.8888C7.35733 24.0067 7.33518 24.1025 7.29089 24.1614V24.1835C7.43115 24.2056 7.56403 24.2277 7.70429 24.2572V24.2351C7.66 24.1614 7.63785 24.0582 7.63785 23.9404V23.1077C7.63785 22.9898 7.66 22.894 7.70429 22.8351ZM9.00356 23.3214C9.12905 23.3582 9.24717 23.4393 9.34313 23.5572H9.36528V23.2551C9.28408 23.174 9.18811 23.1225 9.06261 23.0856C8.58277 22.9456 8.20628 23.233 8.20628 23.7193C8.20628 24.1319 8.42774 24.4193 8.83376 24.5372C9.03308 24.5961 9.24717 24.5888 9.37266 24.5151V24.2425H9.35052C9.22502 24.3235 9.04047 24.353 8.88544 24.3088C8.64921 24.2425 8.50157 24.0288 8.50157 23.7561C8.50157 23.4098 8.70827 23.233 9.01094 23.3214H9.00356ZM10.5169 23.7488C10.6793 23.793 10.7679 23.8372 10.8491 23.9035H10.8712V23.6088C10.4726 23.5056 10.0666 23.3951 9.66795 23.2846V23.5793L9.6901 23.594C9.7713 23.5646 9.85989 23.5719 10.0223 23.6161L10.133 23.6456V24.5446C10.133 24.6625 10.1109 24.7582 10.0666 24.8098V24.8319C10.2069 24.8688 10.3397 24.9056 10.48 24.9425V24.9204C10.4357 24.8467 10.4136 24.7361 10.4136 24.6182V23.7193L10.5243 23.7488H10.5169ZM11.6685 23.8298V23.8077C11.5283 23.7782 11.3954 23.7414 11.2551 23.7119V23.734C11.2994 23.8077 11.3216 23.9182 11.3216 24.0288V24.6993C11.3216 25.0235 11.4987 25.2519 11.8162 25.3256C12.237 25.4214 12.5175 25.2077 12.5175 24.8319V24.2867C12.5175 24.1688 12.5396 24.073 12.5839 24.014V23.9919C12.451 23.9698 12.3255 23.9477 12.1927 23.9182V23.9404C12.237 24.014 12.2591 24.1172 12.2591 24.2351V24.8025C12.2591 25.0309 12.1336 25.1193 11.8752 25.0677C11.6907 25.0235 11.6021 24.9056 11.6021 24.7067V24.0877C11.6021 23.9698 11.6242 23.874 11.6685 23.8225V23.8298ZM13.1081 25.4951V25.5172C13.2409 25.5319 13.3664 25.5467 13.4993 25.5614V25.5393C13.455 25.473 13.4329 25.3698 13.4329 25.2519V24.5667C13.5584 24.7582 13.6912 24.9498 13.8167 25.1414C13.8167 25.1414 13.8315 25.1414 13.8389 25.1414C13.9644 24.9719 14.0973 24.7951 14.2228 24.6182V25.3035C14.2228 25.4214 14.2006 25.5246 14.1563 25.5835V25.6056C14.2966 25.6056 14.4295 25.6056 14.5697 25.6056V25.5835C14.5254 25.5246 14.5033 25.4214 14.5033 25.3035V24.4709C14.5033 24.353 14.5254 24.2498 14.5697 24.1835V24.1614C14.459 24.1614 14.3483 24.1614 14.2301 24.1614C14.1046 24.3456 13.9792 24.5225 13.8463 24.6993C13.7208 24.5077 13.5953 24.3161 13.4624 24.1246C13.3443 24.1098 13.2188 24.1025 13.1007 24.0804V24.1025C13.145 24.1688 13.1671 24.2793 13.1671 24.3898V25.2225C13.1671 25.3404 13.145 25.4361 13.1007 25.4951H13.1081ZM28.3154 25.0898C28.6771 25.0751 28.8764 24.8835 28.8764 24.5888C28.8764 24.2793 28.6771 24.1467 28.3154 24.1614C28.116 24.1614 27.9167 24.1614 27.7174 24.1614V24.1835C27.7617 24.2498 27.7838 24.353 27.7838 24.4709V25.3035C27.7838 25.4214 27.7617 25.5246 27.7174 25.5835V25.6056C27.8577 25.6056 27.9906 25.613 28.1308 25.613V25.5909C28.0865 25.5319 28.0644 25.4214 28.0644 25.3109V25.1119C28.1456 25.1119 28.2268 25.1119 28.308 25.1119L28.3154 25.0898ZM28.0718 24.3972C28.153 24.3972 28.2342 24.3972 28.308 24.3972C28.4852 24.3972 28.5885 24.4782 28.5885 24.633C28.5885 24.773 28.4999 24.8614 28.3301 24.8614C28.2415 24.8614 28.1603 24.8614 28.0718 24.8614V24.3972ZM30.028 25.4067C30.1831 25.3772 30.3381 25.3477 30.4931 25.3109V25.2888C30.4267 25.2446 30.3676 25.1414 30.2938 25.0161C30.1166 24.6772 29.9394 24.3382 29.7549 23.9993C29.7327 23.9993 29.7032 24.0067 29.6811 24.014C29.5113 24.4119 29.3489 24.8098 29.1791 25.2077C29.1126 25.3625 29.0536 25.4804 28.9945 25.5467V25.5688C29.1348 25.554 29.275 25.5393 29.4153 25.5172V25.4951C29.3784 25.4361 29.371 25.3182 29.4227 25.2004C29.6146 25.1709 29.814 25.1414 30.0059 25.1046C30.0576 25.2077 30.0576 25.3256 30.0207 25.3919V25.414L30.028 25.4067ZM29.526 24.9498L29.7106 24.5004L29.9099 24.8909C29.7844 24.913 29.6589 24.9351 29.5334 24.9498H29.526ZM31.3421 23.874C31.4971 23.8298 31.689 23.8593 31.8071 23.9477H31.8293V23.6677C31.7038 23.594 31.4971 23.5867 31.2978 23.6456C30.8991 23.7561 30.6703 24.0582 30.6703 24.4856C30.6703 24.9646 31.0394 25.2372 31.5266 25.0972C31.6521 25.0604 31.7481 25.0088 31.8293 24.9277V24.633H31.8071C31.7112 24.7509 31.5931 24.8319 31.4676 24.8688C31.1649 24.9572 30.9582 24.7656 30.9582 24.4119C30.9582 24.1467 31.1058 23.9477 31.3421 23.8814V23.874ZM32.9809 23.454C33.1433 23.4098 33.2319 23.4098 33.3131 23.4393H33.3353V23.1298C32.9366 23.233 32.5306 23.3435 32.132 23.454V23.7488H32.1541C32.2353 23.6751 32.3239 23.6309 32.4863 23.5867L32.597 23.5572V24.4561C32.597 24.574 32.5749 24.6846 32.5306 24.7582V24.7804C32.6709 24.7435 32.8037 24.7067 32.944 24.6698V24.6477C32.8997 24.5961 32.8776 24.5004 32.8776 24.3825V23.4835L32.9883 23.454H32.9809ZM34.4721 24.3382C34.7969 24.2719 34.9889 24.0435 34.9889 23.7119V23.0709C34.9889 22.953 35.011 22.8498 35.0553 22.7761V22.754C34.9224 22.7761 34.7969 22.7982 34.6641 22.8277V22.8498C34.7083 22.9014 34.7305 23.0046 34.7305 23.1225V23.7561C34.7305 23.9551 34.6493 24.0582 34.4647 24.0951C34.2137 24.1467 34.0735 24.0582 34.0735 23.8225V23.2625C34.0735 23.1446 34.0956 23.034 34.1399 22.9677V22.9456C33.9997 22.9751 33.8668 23.0119 33.7265 23.0414V23.0635C33.7708 23.1151 33.7929 23.2182 33.7929 23.3288V23.8961C33.7929 24.2646 34.0661 24.434 34.4795 24.3456L34.4721 24.3382ZM35.5721 24.0877V24.1098C35.7049 24.0951 35.8304 24.0804 35.9633 24.073V24.0509C35.919 23.9919 35.8969 23.8888 35.8969 23.7782V23.093C36.0224 23.2625 36.1553 23.4319 36.2808 23.6088H36.3029C36.4284 23.4246 36.5613 23.2404 36.6868 23.0635V23.7488C36.6868 23.8667 36.6646 23.9698 36.6203 24.0288V24.0509C36.7606 24.0509 36.8935 24.0509 37.0337 24.0582V24.0361C36.9894 23.9698 36.9673 23.8667 36.9673 23.7488V22.9161C36.9673 22.7982 36.9894 22.6951 37.0337 22.6361V22.614C36.923 22.614 36.8123 22.6067 36.6942 22.6067C36.5687 22.7909 36.4432 22.9751 36.3103 23.1593C36.1848 22.9825 36.0593 22.8056 35.9264 22.6361C35.8083 22.6435 35.6828 22.6582 35.5647 22.673V22.6951C35.609 22.754 35.6311 22.8572 35.6311 22.9677V23.8004C35.6311 23.9182 35.609 24.0214 35.5647 24.0877H35.5721ZM18.6373 25.753C18.5118 25.5467 18.3863 25.3404 18.2534 25.134C18.1206 25.1046 17.9951 25.0825 17.8696 25.053V25.0751C17.9139 25.1488 17.936 25.2593 17.936 25.3698V26.2025C17.936 26.3204 17.9139 26.4161 17.8696 26.4677V26.4898C18.0024 26.5193 18.1279 26.5488 18.2608 26.5709V26.5488C18.2165 26.4751 18.1944 26.3719 18.1944 26.254V25.5688C18.3199 25.7751 18.4528 25.9814 18.5783 26.1877H18.6004C18.7259 26.033 18.8588 25.8782 18.9843 25.7161V26.4014C18.9843 26.5193 18.9621 26.6151 18.9178 26.674V26.6961C19.0581 26.7182 19.191 26.7404 19.3312 26.7551V26.733C19.2869 26.6667 19.2648 26.5561 19.2648 26.4456V25.613C19.2648 25.4951 19.2869 25.3993 19.3312 25.3404V25.3182C19.2279 25.3035 19.1245 25.2888 19.0212 25.274C18.8957 25.4361 18.7628 25.5982 18.6373 25.7604V25.753ZM20.4238 26.6225C20.3574 26.6225 20.2835 26.6151 20.2171 26.6077V26.2098C20.2762 26.2098 20.3426 26.2172 20.4017 26.2246C20.5419 26.2319 20.6231 26.2467 20.6969 26.2688C20.6969 26.2688 20.7117 26.2688 20.7191 26.2688V25.9814C20.7191 25.9814 20.7043 25.9814 20.6969 25.9814C20.6231 25.9961 20.5419 26.0035 20.4017 25.9961C20.3426 25.9961 20.2762 25.9888 20.2171 25.9814V25.6277C20.2835 25.6277 20.3574 25.6351 20.4238 25.6425C20.5862 25.6498 20.6969 25.6719 20.7781 25.7161C20.7781 25.7161 20.7929 25.7161 20.8003 25.7161V25.4361C20.4902 25.4288 20.1802 25.4067 19.8701 25.3772V25.3993C19.9144 25.4656 19.9366 25.5688 19.9366 25.6867V26.5193C19.9366 26.6372 19.9144 26.733 19.8701 26.7919V26.814C20.195 26.8435 20.5272 26.8656 20.852 26.873V26.5709H20.8298C20.7265 26.6225 20.5936 26.6372 20.4238 26.6298V26.6225ZM21.354 26.3793C21.354 26.7109 21.5828 26.9172 21.9593 26.8951C22.3284 26.8804 22.572 26.6298 22.572 26.2909V25.6793C22.572 25.5614 22.5942 25.4582 22.6385 25.3919V25.3698C22.5056 25.3846 22.3727 25.3919 22.2398 25.3993V25.4214C22.2841 25.4804 22.3063 25.5835 22.3063 25.7014V26.3204C22.3063 26.5193 22.1955 26.6225 21.9741 26.6372C21.7526 26.6446 21.6419 26.5488 21.6419 26.3425V25.7309C21.6419 25.613 21.664 25.5098 21.7083 25.4435V25.4214C21.568 25.4214 21.4352 25.4214 21.2949 25.4214V25.4435C21.3392 25.5025 21.3613 25.613 21.3613 25.7235V26.3646L21.354 26.3793ZM23.5539 26.674C23.5096 26.6151 23.4874 26.5193 23.4874 26.4014V25.7161C23.6129 25.8782 23.7458 26.033 23.8713 26.1951H23.8934C24.0189 25.9888 24.1518 25.7825 24.2773 25.5761V26.2614C24.2773 26.3793 24.2552 26.4898 24.2109 26.5561V26.5782C24.3511 26.5488 24.484 26.5193 24.6169 26.4898V26.4677C24.5726 26.4161 24.5505 26.313 24.5505 26.2025V25.3698C24.5505 25.2519 24.5726 25.1414 24.6169 25.0751V25.053C24.4988 25.0825 24.3807 25.1046 24.2625 25.1267C24.137 25.333 24.0115 25.5393 23.8787 25.7456C23.7532 25.5835 23.6203 25.4288 23.4948 25.2593C23.3767 25.274 23.2659 25.2961 23.1478 25.3109V25.333C23.1921 25.3919 23.2143 25.4877 23.2143 25.6056V26.4382C23.2143 26.5561 23.1921 26.6593 23.1478 26.7256V26.7477C23.2807 26.733 23.4062 26.7109 23.5391 26.6888V26.6667L23.5539 26.674ZM37.1076 22.0467C37.4324 22.0614 37.6538 22.0909 37.9787 22.1498V24.7435C34.2728 24.0509 30.5743 26.7477 26.8685 26.0551V23.4614C29.1496 23.8888 31.4085 23.034 33.6822 22.474C33.6822 22.4225 33.6822 22.2825 33.6822 22.2088C31.5783 22.7246 29.4744 23.4982 27.3704 23.2698V23.0267C27.3704 22.754 27.0309 22.533 26.1598 22.7761C25.5101 22.953 24.9196 23.2993 24.9196 23.8004V24.1319C22.5056 24.7435 19.9735 24.7435 17.5595 24.1319V23.8004C17.5595 23.2993 16.9616 22.953 16.3193 22.7761C15.4482 22.533 15.1086 22.7467 15.1086 23.0267V23.2698C13.0047 23.4982 10.9008 22.7246 8.79685 22.2088C8.79685 22.2825 8.80424 22.4225 8.79685 22.474C11.078 23.034 13.3369 23.8888 15.6106 23.4614V26.0551C11.9048 26.7477 8.20628 24.0509 4.50042 24.7435V22.1498C4.82523 22.0909 5.0467 22.0614 5.37152 22.0467C5.29769 21.9509 5.23864 21.8625 5.20173 21.7888C4.84 21.8109 4.589 21.8551 4.22728 21.9435V25.0677C8.11031 24.1688 11.986 27.1677 15.8616 26.2688V25.8782C16.1052 25.893 16.3488 25.9593 16.5998 26.1067V26.9835C19.6044 27.9561 22.8378 27.9561 25.8349 26.9835V26.1067C26.0933 25.9593 26.3296 25.893 26.5732 25.8782V26.2688C30.4562 27.1677 34.3319 24.1688 38.2075 25.0677V21.9435C37.8458 21.8625 37.5948 21.8182 37.2331 21.7888C37.1961 21.8551 37.1445 21.9509 37.0633 22.0467H37.1076ZM25.6061 26.8067C22.764 27.6761 19.7225 27.6761 16.8804 26.8067V24.213C19.7225 25.0825 22.764 25.0825 25.6061 24.213V26.8067ZM36.4432 1.79088C36.2955 1.62878 36.1331 1.48141 35.9633 1.34141L35.6237 1.69509C35.5204 1.60667 35.4023 1.51825 35.2768 1.4372L35.5278 1.0172C35.2989 0.862461 34.9298 0.641408 34.6788 0.516145L34.4278 0.936145C34.2949 0.869829 34.1694 0.810882 34.0366 0.759303L34.1916 0.287724C33.9184 0.177198 33.6305 0.0814083 33.3353 0.0224609L33.1655 1.44457C33.7856 1.49614 34.8412 2.04878 34.9963 2.12246C35.6164 2.10772 35.8452 2.08562 36.4505 1.79825L36.4432 1.79088ZM28.4852 14.3393C28.4113 14.2288 28.1825 14.1846 28.0865 14.2509C27.6805 14.5235 28.367 15.113 28.8912 14.8993C28.5737 14.6709 28.5368 14.4204 28.4852 14.3393ZM27.6805 16.9919C27.7691 17.0877 27.9684 16.8519 28.0053 16.7046C28.0348 16.5867 27.9093 16.5204 27.9093 16.5204C27.7396 16.4098 27.5771 16.3656 27.4369 16.3656C27.0678 16.3656 26.8389 16.6456 26.8389 16.6456C27.0825 16.6088 27.4147 16.7119 27.6805 16.9846V16.9919ZM27.7322 18.274C27.7765 18.2888 27.7912 18.274 27.7912 18.2519C27.806 18.1046 27.7691 17.8172 27.6214 17.8098C27.2745 17.7877 26.9792 18.0677 26.8463 18.3551C27.0604 18.2667 27.4886 18.193 27.7322 18.274ZM28.9502 15.9235C29.0167 15.8351 28.9133 15.7319 28.9133 15.7319C28.7214 15.5182 28.5221 15.4519 28.3523 15.4519C28.0791 15.4519 27.8872 15.6214 27.8872 15.6214C27.8872 15.6214 28.3449 15.7319 28.5295 16.1225C28.5442 16.1446 28.5811 16.1446 28.6107 16.1372C28.7952 16.0856 28.8764 16.0119 28.9502 15.9309V15.9235ZM33.8668 22.3856C34.0439 22.1498 34.4204 21.7446 34.6345 21.6856C34.8338 21.6267 34.9003 20.8751 34.605 20.9635C33.8225 21.2067 33.8742 22.3856 33.8742 22.3856H33.8668ZM34.6419 22.3267C34.7748 22.2235 34.9372 22.194 35.166 22.1351C35.7049 21.9877 35.6459 21.3688 35.0996 21.5382C34.8117 21.6267 34.6641 22.0246 34.6419 22.3267ZM34.1842 21.0298C34.3392 20.9635 34.3097 20.3372 34.0735 20.4477C33.4681 20.7351 33.5863 21.7225 33.5863 21.7225C33.8077 21.3246 34.103 21.0667 34.1768 21.0298H34.1842ZM30.5079 13.0867C30.8844 13.4035 30.7146 13.7719 30.8179 13.4919C30.8253 13.4625 31.0025 12.7698 30.7515 12.5856C30.4341 12.3425 30.2495 12.8214 30.5079 13.0867ZM28.7435 14.273C29.0683 14.6119 29.4818 14.5604 29.7032 14.413C29.7032 14.413 29.3046 14.3098 29.0905 13.9782C28.9945 13.8309 28.8616 13.8088 28.7731 13.8677C28.6402 13.9488 28.6919 14.2288 28.7362 14.273H28.7435ZM31.6743 3.30141C30.781 3.50036 30.6998 2.91088 30.6998 2.91088C30.6998 2.91088 30.375 3.64772 31.0615 3.80246C31.5192 3.90562 31.9696 3.43404 32.789 3.75825C32.789 3.75825 32.5749 3.10246 31.6816 3.30141H31.6743ZM28.5959 14.2877V14.2656C28.4187 13.7498 28.9576 13.514 29.2086 13.934C29.2086 13.934 29.371 13.7572 29.3489 13.6025C29.3341 13.4846 29.2381 13.3888 29.2381 13.3888C29.2381 13.0867 29.0979 13.0646 29.216 12.9098C29.216 12.9098 29.4079 12.8435 29.4301 12.8361C29.5039 12.814 29.8066 12.7551 29.9837 12.9025C30.1314 13.0204 30.22 13.0793 30.3086 13.0056C30.1683 12.674 30.3898 12.313 30.6924 12.4161C30.6998 12.3425 30.6777 12.2172 30.4119 12.1656C30.4119 12.1656 29.9468 12.114 29.8804 12.114C29.8804 12.114 30.9287 11.2151 31.0985 11.0604C31.0985 11.0604 30.9508 11.7898 31.3937 12.2172C31.3937 12.2172 31.8736 11.6277 31.9991 11.3109C32.1172 10.994 32.0803 10.9351 32.0803 10.9351C32.1615 11.0161 33.099 11.2814 33.3574 10.2425C33.505 10.5225 33.2762 11.3625 32.2575 11.2888C32.2575 11.2888 32.1024 11.6793 32.0138 11.7751C32.693 12.2393 33.5567 13.0351 33.6232 13.2488C33.6232 13.2488 33.5567 14.0077 32.2205 14.2435C31.9326 14.2951 31.3494 14.4498 31.0246 14.7961C30.5374 15.3267 30.471 16.5425 30.0133 16.734C30.028 16.734 30.3159 16.8151 30.7293 16.4982L30.936 17.2425C30.936 17.2425 30.1831 17.1835 29.312 17.6256C29.312 17.6256 29.1791 17.294 29.2972 17.014C29.4227 16.7193 29.5482 15.9088 29.0831 15.9161C29.0462 16.0856 28.6845 16.3288 28.4999 16.2625C28.4778 16.2919 28.3966 16.4393 28.6107 16.7414C28.6107 16.7414 28.3449 16.5425 28.1234 16.6382C28.153 16.8372 27.8798 17.213 27.6657 17.1467C27.651 17.1467 27.6436 17.1467 27.6436 17.1467C27.6436 17.1467 27.459 17.3825 27.7174 17.7214C27.7691 17.7509 27.8281 17.8025 27.8577 17.8909C27.902 18.0161 27.9389 18.2446 27.8946 18.333C27.8946 18.3846 28.0422 18.5246 28.3154 18.4361C28.3154 18.4361 28.2711 18.6277 28.0348 18.6719C28.0348 18.6719 28.308 19.4825 29.2012 18.974C29.2012 18.974 29.1348 19.2688 28.8616 19.4014C28.8616 19.4014 29.5482 19.9319 30.2052 19.313C30.2052 19.313 30.1166 19.5856 29.9025 19.7772C29.9025 19.7772 31.0689 19.8361 31.3125 19.1509C31.3125 19.1509 31.3864 19.3351 31.3125 19.5046C31.3125 19.5046 31.5562 19.4014 31.6816 19.0772C31.8071 18.753 31.9843 18.6056 32.2205 18.5761C32.4863 18.5467 32.6339 18.1635 32.5897 17.9425C32.538 17.6698 32.442 16.3435 32.4346 16.0488C32.4346 15.754 33.3426 15.813 34.1916 15.5846C34.1916 15.5846 34.4647 15.1351 34.5312 14.7077C34.5976 14.2804 34.2728 13.8161 34.2728 13.8161C35.011 14.3909 34.7526 15.0098 34.4573 15.7246C34.3466 15.9898 34.199 16.3804 34.3023 16.5867C34.4057 16.793 34.8117 17.4561 34.5976 18.5835C34.5976 18.5835 34.9372 18.6719 35.2399 18.3772C35.3506 18.5982 35.6311 19.1509 35.8895 19.4898C35.9486 20.0867 35.5794 20.7719 35.3875 20.6761C35.1365 20.5509 34.6419 20.1456 34.3097 20.433C34.3983 20.5582 34.4131 20.7793 34.3835 20.934C34.4426 20.9046 34.5607 20.8456 34.6419 20.8456C34.9298 20.8456 34.9593 21.2361 34.8855 21.5161C34.9963 21.4351 35.1439 21.3982 35.262 21.3982C35.6533 21.3982 35.8378 21.8625 35.4244 22.1646C35.5204 22.2456 35.668 22.3488 35.7935 22.3635C36.1257 22.4151 36.5096 21.7225 36.5539 21.5309C36.5539 21.5309 36.5834 21.7225 36.5687 22.2309C36.5687 22.2309 37.3807 21.9656 37.1519 20.6688C37.1519 20.6688 37.4841 20.7204 37.4693 21.4277C37.4693 21.4277 37.7424 21.1551 37.7646 20.5951C37.7793 20.1456 37.6612 20.0572 37.7277 19.814C37.7277 19.814 37.9787 20.1825 37.9417 20.6246C37.9417 20.6246 38.2001 20.3004 38.1189 19.9172C38.0377 19.534 37.8753 19.4088 37.7277 19.2614C37.4545 18.9888 37.425 18.473 37.5726 18.1635C37.5726 18.1635 37.3659 18.2151 37.1371 18.0972C36.9599 18.0014 36.6056 17.4561 36.6351 17.1982C36.6572 16.9551 36.8787 16.5204 36.8344 16.2182C37.2921 17.2351 37.8753 17.8688 38.7538 17.8688C39.6323 17.8688 40.1859 16.9035 40.1859 16.1004C40.1859 14.9288 39.4034 13.8456 39.4034 13.0646C39.4034 12.7035 39.6692 12.1582 39.994 12.1582C40.3188 12.1582 39.8833 12.8877 39.9276 13.3004C39.9571 13.5582 40.0752 13.7793 40.1933 13.9414C40.2228 13.7719 40.3114 13.6025 40.4148 13.5214C40.3926 14.1919 40.8282 14.5825 40.7691 15.3193C41.1678 14.9509 41.4261 14.6561 41.3006 13.9561C41.4114 13.993 41.559 14.0298 41.6845 14.0004C41.4852 13.7719 41.5147 12.9835 41.3745 12.6519C41.5221 12.6372 41.7362 12.5561 41.8174 12.3498C41.1456 12.2098 41.2342 11.5393 40.3114 11.5393C39.2853 11.5393 38.7538 12.2025 38.7538 13.1677C38.7538 14.133 39.4994 14.9288 39.4994 15.9677C39.4994 16.7856 39.1672 17.1246 38.7907 17.1246C38.2813 17.1246 37.7941 16.6235 37.4028 15.2382C37.2331 14.5825 37.0042 13.713 36.6203 13.1161C36.5244 13.1014 36.1405 13.094 35.7345 12.7404C35.7345 12.7404 35.6606 13.094 35.3506 13.3225C35.3506 13.3225 34.2876 13.0204 34.5164 11.9372C34.5164 11.9372 34.5681 12.7919 35.3284 13.0351C35.3284 13.0351 35.5573 12.6814 35.6311 12.313C35.6311 12.313 36.0519 12.873 36.6942 12.9319C36.6942 12.9319 36.8935 12.6888 36.9009 12.1656C36.9009 12.1656 37.3586 12.4677 37.9787 12.3498C37.9787 12.3498 38.2001 11.9667 38.0156 11.2004C38.5323 11.3551 39.1672 11.1488 39.4034 10.8688C39.3148 10.7361 38.8498 10.2204 38.5545 10.0509C38.5545 10.0509 40.2671 10.5814 40.8208 9.31404C40.8208 9.31404 40.0088 9.24035 39.2853 8.81299C39.2853 8.81299 40.9241 8.67299 41.6033 6.83825C41.6033 6.83825 40.7913 7.06667 39.8906 6.91193C39.8906 6.91193 41.7214 6.54351 41.6624 4.90772C41.6624 4.90772 41.3818 5.26141 40.4369 5.36457C40.4369 5.36457 41.9872 3.66246 41.2342 2.2993C41.2342 2.2993 41.1751 3.09509 40.2376 3.8393C40.2376 3.8393 41.2268 1.62141 40.0457 0.162461C40.0752 1.04667 39.5584 1.94562 39.1303 2.57193C39.1303 2.57193 39.2705 1.03193 38.5102 0.63404C38.5102 0.63404 38.6061 2.49088 37.0633 4.94457C36.3841 6.02772 35.9928 6.59509 36.517 7.60456C36.7901 8.12772 36.1479 9.20351 35.1291 9.21088C33.3869 9.22562 35.3875 6.08667 35.3875 6.08667C35.3875 6.08667 35.4982 6.38878 35.7271 6.55825C35.7271 6.55825 35.9928 6.12351 35.9116 5.40141C35.8673 5.06246 35.8378 5.01088 35.764 4.7972C35.764 4.7972 35.9855 4.84141 36.1479 4.72351C36.1479 4.72351 36.0519 4.00878 35.8304 3.65509C35.6828 3.41193 35.5868 3.33825 35.5425 3.31614C35.7123 3.36772 36.517 3.5593 36.8713 3.12457C36.9821 2.99193 36.9968 2.77088 36.9821 2.77088C36.9821 2.77088 36.827 2.89614 36.3989 2.89614C36.3989 2.89614 37.5431 2.63825 37.27 1.32667C37.1814 1.46667 36.9378 1.77614 36.4505 1.9972C35.8452 2.26983 35.668 2.29193 34.9593 2.31404C34.6567 2.15193 33.6822 1.65088 33.0769 1.62878C33.0326 1.62878 32.6339 1.62878 32.5306 1.95299C32.5306 1.95299 31.8219 1.75404 31.4971 2.29193C31.2609 2.68246 31.438 3.10246 31.438 3.10246C31.4823 2.82246 32.036 2.59404 32.3091 2.93299C32.7373 3.55193 32.9661 3.32351 33.3426 3.61825C33.5198 3.75825 33.6453 3.92772 33.6675 3.99404C33.2836 3.85404 32.5454 4.22983 32.2279 4.1193C32.191 4.10457 32.0581 4.07509 31.8883 3.92036C31.8883 3.92036 31.7998 4.44351 32.2796 4.69404C32.3682 4.73825 32.7004 4.81193 33.0031 4.69404C33.1064 4.6572 33.2171 4.63509 33.2541 4.61299C33.7339 4.8193 34.2506 4.89299 34.5238 4.48772C34.6936 4.2372 34.6198 3.9572 34.5902 3.90562C34.5902 3.90562 34.8191 4.13404 34.6788 4.59825C34.5902 4.87825 34.2064 5.11404 33.6675 4.98878C33.4608 4.94457 33.2393 4.84878 33.2393 4.84878C32.8111 5.44562 32.0212 5.34983 31.2904 5.46035C31.2904 5.46035 30.9508 5.14351 30.5817 4.98878C29.526 4.54667 29.3267 3.6993 28.3449 3.47088C27.9758 3.38246 27.9684 3.37509 27.8429 3.28667C27.6214 3.13193 27.3852 2.9772 27.1342 3.13193C27.0752 3.16878 27.0752 3.16878 27.0087 3.24246C27.2449 3.2572 27.4517 3.49299 27.3778 3.79509C27.3704 3.8393 27.3557 3.89088 27.3557 3.89088C27.6953 3.85404 28.0127 4.29614 27.6214 4.64246C27.6584 4.68667 27.7248 4.76035 27.8429 4.78983C28.0865 4.85614 28.2711 4.5172 28.5811 4.58351C28.6254 4.59088 28.6919 4.63509 28.7066 4.6793C28.7214 4.71614 28.8764 5.08457 28.6919 5.33509C28.5885 5.46772 28.5959 5.54878 28.6033 5.59299C29.0167 5.48983 29.216 5.66667 29.2455 5.94667C29.3267 5.9172 29.371 5.78456 29.3784 5.70351C29.3858 5.62246 29.4005 5.29088 29.4005 5.20246C29.4891 5.31299 29.8361 5.73299 30.1388 6.09404C30.0576 6.20457 29.9837 6.3372 29.9247 6.48457C30.0723 6.41088 30.22 6.36667 30.3528 6.3372C30.3824 6.36667 30.4045 6.39614 30.4267 6.42562C28.869 7.41299 29.1496 8.84246 29.1496 8.84246C29.1496 8.84246 29.2308 8.37088 29.7844 8.20878C29.7844 8.20878 29.1791 8.96772 29.5777 10.0435C29.5777 10.0435 29.9247 9.56456 30.722 9.62351C30.722 9.62351 30.0871 10.2572 29.7623 10.913C29.4375 11.5688 28.8616 11.9888 28.7509 12.0993C28.6476 12.2098 28.2046 12.6298 28.1087 12.9025C27.9241 13.4551 27.9684 13.4404 27.7765 13.654C27.6953 13.7425 27.4664 14.0004 27.6288 14.3246C27.6288 14.3246 27.6879 14.4498 27.8281 14.5382C27.7986 14.3025 28.0201 14.0593 28.3375 14.1551C28.3892 14.1698 28.4925 14.1993 28.5885 14.3246L28.5959 14.2877ZM33.9258 2.56457C33.4312 3.23509 32.9661 2.49825 32.9661 2.49825C33.1802 2.53509 33.1876 2.46878 33.3574 2.4172C33.2836 2.52772 33.3648 2.66772 33.4977 2.66772C33.6379 2.66772 33.7118 2.49825 33.6158 2.39509C33.7265 2.4172 33.7782 2.46141 33.9332 2.56457H33.9258ZM26.6322 4.28878C26.8389 3.9572 27.0899 3.90562 27.1637 3.84667C27.2302 3.80246 27.2376 3.75825 27.2523 3.66983C27.2966 3.46351 27.1637 3.33825 27.0235 3.33825C26.7577 3.33825 26.4181 3.86141 26.6248 4.28878H26.6322ZM28.8321 5.65193C28.5885 5.66667 28.4409 5.86562 28.2563 6.06457C29.2677 6.20457 29.1643 5.62983 28.8321 5.65193ZM27.5181 4.43614C27.5771 4.41404 27.651 4.36246 27.651 4.22246C27.651 3.97193 27.3631 4.00141 27.3631 4.00141C27.0087 4.00141 26.7208 4.6793 27.0678 5.17299C27.0678 4.84141 27.2007 4.55404 27.5181 4.44351V4.43614ZM7.49021 2.12246C7.64523 2.04141 8.70088 1.48878 9.32099 1.44457L9.1512 0.0224609C8.86329 0.0814083 8.57539 0.177198 8.29486 0.287724L8.44989 0.759303C8.31701 0.810882 8.18413 0.869829 8.05863 0.936145L7.80764 0.516145C7.56403 0.641408 7.19492 0.862461 6.95869 1.0172L7.20968 1.4372C7.08419 1.51825 6.97345 1.60667 6.86272 1.69509L6.52314 1.34141C6.35335 1.48141 6.19094 1.62878 6.0433 1.79088C6.64864 2.08562 6.87748 2.10036 7.49759 2.11509L7.49021 2.12246ZM13.5879 14.9067C14.112 15.1204 14.7986 14.5309 14.3926 14.2582C14.2966 14.1919 14.0604 14.2361 13.9939 14.3467C13.9422 14.4277 13.9053 14.6856 13.5879 14.9067ZM15.6401 16.653C15.6401 16.653 15.4113 16.373 15.0422 16.373C14.9019 16.373 14.7469 16.4172 14.5697 16.5277C14.5697 16.5277 14.4442 16.594 14.4738 16.7119C14.5181 16.8593 14.71 17.0951 14.7986 16.9993C15.057 16.7267 15.3892 16.6235 15.6401 16.6604V16.653ZM15.6254 18.3625C15.4925 18.0751 15.1972 17.7951 14.8503 17.8172C14.7026 17.8246 14.6657 18.1119 14.6805 18.2593C14.6805 18.2814 14.6952 18.2961 14.7395 18.2814C14.9757 18.2004 15.4039 18.2814 15.6254 18.3625ZM13.861 16.1372C13.861 16.1372 13.9275 16.1519 13.9422 16.1225C14.1342 15.7319 14.5845 15.6214 14.5845 15.6214C14.5845 15.6214 14.3852 15.4519 14.1194 15.4519C13.9496 15.4519 13.7503 15.5182 13.5584 15.7319C13.5584 15.7319 13.455 15.8425 13.5215 15.9235C13.5879 16.0046 13.6765 16.0782 13.861 16.1298V16.1372ZM7.87408 20.9635C7.57879 20.8751 7.64523 21.634 7.84455 21.6856C8.05863 21.7446 8.42774 22.1572 8.6123 22.3856C8.6123 22.3856 8.66397 21.1993 7.88146 20.9635H7.87408ZM7.37947 21.5382C6.83319 21.3688 6.77413 21.9877 7.31303 22.1351C7.54188 22.1867 7.70429 22.2161 7.83717 22.3267C7.81502 22.0246 7.66738 21.6267 7.37947 21.5382ZM8.88544 21.7225C8.88544 21.7225 9.01094 20.7351 8.39821 20.4477C8.16937 20.3372 8.13984 20.9635 8.28748 21.0298C8.36869 21.0667 8.65659 21.3172 8.87806 21.7225H8.88544ZM11.7202 12.5856C11.4692 12.7698 11.6464 13.4698 11.6538 13.4919C11.7571 13.7719 11.5947 13.4035 11.9638 13.0867C12.2148 12.8214 12.0303 12.3425 11.7202 12.5856ZM13.6986 13.8677C13.6174 13.8161 13.4772 13.8309 13.3812 13.9782C13.1671 14.3025 12.7685 14.413 12.7685 14.413C12.9899 14.553 13.4033 14.6119 13.7282 14.273C13.7725 14.2288 13.8241 13.9561 13.6912 13.8677H13.6986ZM9.69748 3.75088C10.5169 3.42667 10.9672 3.89088 11.4249 3.79509C12.1115 3.64772 11.7866 2.90351 11.7866 2.90351C11.7866 2.90351 11.7054 3.50035 10.8122 3.29404C9.91895 3.08772 9.70486 3.75088 9.70486 3.75088H9.69748ZM8.87068 2.39509C8.77471 2.49825 8.85591 2.66772 8.98879 2.66772C9.11429 2.66772 9.19549 2.52772 9.12905 2.4172C9.29884 2.46878 9.30622 2.54246 9.52031 2.49088C9.52031 2.49088 9.05523 3.23509 8.56062 2.56457C8.71565 2.46141 8.76732 2.40983 8.87806 2.39509H8.87068ZM15.4482 3.33825C15.3079 3.33825 15.1751 3.46351 15.2194 3.66983C15.2415 3.75825 15.2489 3.80246 15.3079 3.84667C15.3891 3.90562 15.6401 3.9572 15.8395 4.28878C16.0462 3.85404 15.7066 3.33825 15.4408 3.33825H15.4482ZM14.2228 6.07193C14.0382 5.87299 13.8906 5.67404 13.647 5.6593C13.3148 5.6372 13.2114 6.2193 14.2228 6.07193ZM15.4187 5.17299C15.7656 4.68667 15.4777 4.00141 15.1234 4.00141C15.1234 4.00141 14.8355 3.97193 14.8355 4.22246C14.8355 4.36246 14.9093 4.41404 14.9684 4.43614C15.2858 4.54667 15.4187 4.83404 15.4187 5.16562V5.17299ZM27.4738 18.4582C27.0456 18.3846 26.5141 18.694 26.5141 18.694C26.7356 17.7509 27.3262 17.6477 27.4221 17.6109C27.4221 17.6109 27.3631 17.4119 27.3778 17.3088C27.3926 17.2056 27.4443 17.073 27.4443 17.073C27.0161 16.6825 26.4329 16.8446 26.4329 16.8446C26.4329 16.8446 26.9127 16.174 27.3852 16.174C27.8577 16.174 28.0127 16.3582 28.116 16.4098C28.1456 16.4246 28.1825 16.3951 28.212 16.3951C28.2342 16.2993 28.2563 16.2109 28.2785 16.1151C28.0053 15.7614 27.5255 15.7025 27.5255 15.7025C27.5255 15.7025 27.9389 15.2456 28.3597 15.2382C28.3892 15.2382 28.4261 15.2382 28.463 15.2382C28.463 15.2088 28.4778 15.1719 28.4778 15.1425C28.2194 15.0982 27.9758 14.9435 27.8503 14.7593L27.7248 14.6856C27.5476 14.5751 27.4664 14.4204 27.4443 14.3835C27.3483 14.1919 27.3409 13.9856 27.4147 13.7867C27.4738 13.6393 27.5698 13.5288 27.6214 13.4772C27.6953 13.3888 27.7617 13.2709 27.806 13.1235C27.8281 13.0425 27.8651 12.9393 27.9093 12.7993C27.9906 12.5488 28.2637 12.254 28.5368 11.974C28.559 11.9519 28.5959 11.9151 28.5959 11.9151C28.618 11.893 28.6402 11.8709 28.6771 11.8414V6.30035C28.6328 6.30035 28.5885 6.30035 28.5368 6.30035C28.3523 6.30035 27.8872 6.20457 27.8872 6.20457C27.8872 6.20457 28.1308 5.87299 28.153 5.84351C28.2268 5.76246 28.3006 5.68141 28.3892 5.60772C28.367 5.51193 28.367 5.3572 28.5147 5.16562C28.6033 5.04035 28.5516 4.84141 28.5147 4.74562C28.5073 4.74562 28.4999 4.74562 28.4925 4.74562C28.4335 4.74562 28.3597 4.78983 28.2785 4.83404C28.1751 4.89299 28.0496 4.96667 27.902 4.96667C27.8577 4.96667 27.8208 4.96667 27.7765 4.95193C27.651 4.91509 27.5329 4.84141 27.4443 4.73088L27.4295 4.71614C27.3926 4.74562 27.3557 4.78246 27.3335 4.83404C27.1416 5.10667 27.2376 5.60772 27.2376 5.60772C27.1195 5.54878 26.6396 5.11404 26.6691 4.60562L26.5879 4.74562C26.5879 4.74562 26.2853 4.26667 26.3369 3.94246H16.1052C16.1569 4.2593 15.8542 4.74562 15.8542 4.74562L15.773 4.60562C15.8099 5.11404 15.3227 5.54878 15.2046 5.60772C15.2046 5.60772 15.3079 5.10667 15.1086 4.83404C15.0791 4.78983 15.0496 4.75299 15.0127 4.71614L14.9979 4.73088C14.9093 4.84141 14.7986 4.92246 14.6657 4.95193C14.6288 4.96667 14.5845 4.96667 14.5402 4.96667C14.3926 4.96667 14.2671 4.89299 14.1637 4.83404C14.0899 4.78983 14.0161 4.74562 13.9496 4.74562C13.9422 4.74562 13.9349 4.74562 13.9275 4.74562C13.8979 4.83404 13.8389 5.04035 13.9275 5.16562C14.0751 5.3572 14.0751 5.51193 14.053 5.60772C14.1416 5.68141 14.2154 5.76983 14.2892 5.84351C14.3114 5.87299 14.555 6.20457 14.555 6.20457C14.555 6.20457 14.0899 6.30772 13.9053 6.30035C13.8537 6.30035 13.8094 6.30035 13.7651 6.30035V11.8414C13.7651 11.8414 13.8315 11.9004 13.8463 11.9151C13.8463 11.9151 13.8832 11.9519 13.9053 11.974C14.1859 12.254 14.4516 12.5488 14.5328 12.7993C14.5771 12.9393 14.6066 13.0425 14.6362 13.1235C14.6805 13.2782 14.7469 13.3961 14.8207 13.4772C14.865 13.5288 14.961 13.6393 15.0274 13.7867C15.1086 13.9856 15.1012 14.1919 14.9979 14.3835C14.9831 14.4204 14.9019 14.5677 14.7174 14.6856L14.5919 14.7593C14.459 14.9509 14.2228 15.0982 13.9644 15.1425C13.9644 15.1719 13.9718 15.2088 13.9792 15.2382C14.0161 15.2382 14.0456 15.2382 14.0825 15.2382C14.5033 15.2456 14.9167 15.7025 14.9167 15.7025C14.9167 15.7025 14.4295 15.7614 14.1637 16.1151C14.1859 16.2035 14.208 16.2993 14.2301 16.3951C14.2671 16.3951 14.2966 16.4319 14.3261 16.4098C14.4295 16.3509 14.5697 16.174 15.057 16.174C15.5442 16.174 16.0093 16.8446 16.0093 16.8446C16.0093 16.8446 15.4261 16.6751 14.9979 17.073C14.9979 17.073 15.0496 17.2056 15.0643 17.3088C15.0791 17.4119 15.02 17.6109 15.02 17.6109C15.1234 17.6477 15.714 17.7509 15.9281 18.694C15.9281 18.694 15.4039 18.3846 14.9684 18.4582C15.9797 20.5877 17.8327 22.5846 21.2063 23.3435C24.5726 22.5846 26.4255 20.5877 27.4443 18.4582H27.4738ZM14.1342 14.1182C14.4516 14.0298 14.6731 14.2656 14.6435 14.5014C14.7912 14.413 14.8429 14.2877 14.8429 14.2877C15.0053 13.9635 14.7764 13.713 14.6952 13.6172C14.4959 13.4035 14.5476 13.4182 14.363 12.8656C14.2744 12.593 13.8315 12.173 13.7208 12.0625C13.6174 11.9519 13.0342 11.5319 12.7094 10.8761C12.3846 10.2204 11.7497 9.58667 11.7497 9.58667C12.547 9.52035 12.894 10.0067 12.894 10.0067C13.2926 8.93088 12.6873 8.17193 12.6873 8.17193C13.2409 8.33404 13.3221 8.80562 13.3221 8.80562C13.3221 8.80562 13.6027 7.37614 12.045 6.38878C12.0672 6.3593 12.0967 6.32983 12.1188 6.30035C12.2443 6.32983 12.392 6.37404 12.547 6.44772C12.4879 6.29299 12.4141 6.16772 12.3329 6.0572C12.6356 5.69614 12.9826 5.27614 13.0711 5.16562C13.0711 5.25404 13.0859 5.58562 13.0933 5.66667C13.1007 5.74772 13.1376 5.88035 13.2262 5.90983C13.2483 5.6372 13.455 5.45299 13.8684 5.55614C13.8758 5.51193 13.8832 5.43088 13.7798 5.29825C13.5879 5.04772 13.7503 4.6793 13.7651 4.64246C13.7798 4.59825 13.8463 4.55404 13.8906 4.54667C14.1932 4.47299 14.3852 4.8193 14.6288 4.75299C14.7395 4.72351 14.8133 4.64983 14.8503 4.60562C14.459 4.2593 14.7838 3.8172 15.116 3.85404C15.116 3.85404 15.1012 3.79509 15.0939 3.75825C15.02 3.45614 15.2267 3.22772 15.463 3.20562C15.4039 3.13193 15.3965 3.13193 15.3375 3.09509C15.0865 2.94035 14.8503 3.09509 14.6288 3.24983C14.5033 3.33825 14.4959 3.34562 14.1268 3.43404C13.145 3.66246 12.9456 4.50983 11.89 4.95193C11.5209 5.10667 11.1813 5.42351 11.1813 5.42351C10.4505 5.30562 9.66057 5.40141 9.2324 4.81193C9.2324 4.81193 9.01094 4.90772 8.80424 4.95193C8.26534 5.0772 7.88146 4.84141 7.79288 4.56141C7.65261 4.0972 7.88146 3.86878 7.88146 3.86878C7.85193 3.92035 7.77811 4.20035 7.9479 4.45088C8.22104 4.86351 8.7378 4.78983 9.21764 4.57614C9.25455 4.59088 9.37266 4.62035 9.46863 4.6572C9.7713 4.76772 10.0961 4.70141 10.1921 4.6572C10.6719 4.40667 10.5833 3.88351 10.5833 3.88351C10.4209 4.03825 10.2807 4.06772 10.2438 4.08246C9.93371 4.19299 9.18811 3.8172 8.80424 3.9572C8.83376 3.89088 8.95926 3.71404 9.12905 3.58141C9.50554 3.29404 9.73439 3.51509 10.1626 2.89614C10.4357 2.5572 10.9967 2.78562 11.0337 3.06562C11.0337 3.06562 11.2182 2.65299 10.9746 2.25509C10.6498 1.72457 9.94109 1.91614 9.94109 1.91614C9.83774 1.59193 9.4391 1.59193 9.39481 1.59193C8.78947 1.61404 7.81502 2.11509 7.51235 2.2772C6.80366 2.26246 6.62649 2.23299 6.02115 1.96036C5.53393 1.7393 5.29031 1.42983 5.20173 1.28983C4.92859 2.60141 6.07282 2.8593 6.07282 2.8593C5.64466 2.8593 5.48963 2.73404 5.48963 2.73404C5.48225 2.73404 5.48963 2.94772 5.60036 3.08772C5.96209 3.52983 6.75937 3.33088 6.92916 3.2793C6.88487 3.30141 6.78152 3.37509 6.64125 3.61825C6.42717 3.97193 6.32382 4.68667 6.32382 4.68667C6.47885 4.80457 6.70769 4.76035 6.70769 4.76035C6.63387 4.97404 6.59696 5.01825 6.56005 5.36457C6.47146 6.09404 6.7446 6.52141 6.7446 6.52141C6.97345 6.3593 7.08419 6.04983 7.08419 6.04983C7.08419 6.04983 9.08476 9.19614 7.34256 9.17404C6.31644 9.1593 5.68157 8.09088 5.95471 7.56772C6.47885 6.55825 6.08759 5.99088 5.40843 4.90772C3.87293 2.43193 3.9689 0.582461 3.9689 0.582461C3.20853 0.980356 3.3488 2.52036 3.3488 2.52036C2.92063 1.90141 2.40388 0.995092 2.4334 0.110882C1.24487 1.5772 2.24147 3.78772 2.24147 3.78772C1.30393 3.04351 1.24487 2.24772 1.24487 2.24772C0.491889 3.61088 2.03477 5.31299 2.03477 5.31299C1.08985 5.20983 0.809323 4.85614 0.809323 4.85614C0.750265 6.49193 2.58105 6.86035 2.58105 6.86035C1.67304 7.01509 0.86838 6.78667 0.86838 6.78667C1.54754 8.62141 3.18639 8.76141 3.18639 8.76141C2.45555 9.18878 1.65089 9.26246 1.65089 9.26246C2.20456 10.5298 3.91723 9.9993 3.91723 9.9993C3.62194 10.1688 3.15686 10.6919 3.06827 10.8172C3.3045 11.0898 3.93937 11.3035 4.45613 11.1488C4.27157 11.9151 4.49304 12.2982 4.49304 12.2982C5.10576 12.4161 5.57084 12.114 5.57084 12.114C5.57084 12.6372 5.77754 12.8804 5.77754 12.8804C6.42717 12.8214 6.84057 12.2614 6.84057 12.2614C6.91439 12.6298 7.14324 12.9835 7.14324 12.9835C7.90361 12.7404 7.95528 11.8856 7.95528 11.8856C8.18413 12.9688 7.1211 13.2709 7.1211 13.2709C6.81843 13.0425 6.73722 12.6888 6.73722 12.6888C6.3312 13.0425 5.94733 13.0498 5.85136 13.0646C5.46749 13.6614 5.23864 14.5382 5.06885 15.1867C4.67021 16.5646 4.19037 17.073 3.68099 17.073C3.29712 17.073 2.9723 16.734 2.9723 15.9161C2.9723 14.8772 3.71791 14.0814 3.71791 13.1161C3.71791 12.1509 3.19377 11.4877 2.16026 11.4877C1.23749 11.4877 1.32608 12.1582 0.654297 12.2982C0.735501 12.5046 0.942202 12.5856 1.09723 12.6004C0.956967 12.9319 0.979113 13.7204 0.787176 13.9488C0.905291 13.9782 1.06032 13.9488 1.17105 13.9046C1.04555 14.6046 1.31131 14.8993 1.70257 15.2677C1.64351 14.5309 2.07168 14.1477 2.05691 13.4698C2.16026 13.5509 2.25623 13.7204 2.27838 13.8898C2.40388 13.7277 2.52199 13.5067 2.54414 13.2488C2.58843 12.8361 2.15288 12.1067 2.4777 12.1067C2.80251 12.1067 3.06827 12.6519 3.06827 13.013C3.06827 13.794 2.28576 14.8772 2.28576 16.0488C2.28576 16.8593 2.80251 17.8172 3.71791 17.8172C4.6333 17.8172 5.17958 17.1835 5.63728 16.1667C5.59298 16.4688 5.81445 16.9035 5.83659 17.1467C5.86612 17.4046 5.51178 17.9572 5.33461 18.0456C5.10576 18.1709 4.89906 18.1119 4.89906 18.1119C5.05408 18.4214 5.02455 18.9372 4.74403 19.2098C4.59639 19.3572 4.43398 19.4825 4.35277 19.8656C4.27157 20.2488 4.52995 20.573 4.52995 20.573C4.49304 20.1309 4.74403 19.7625 4.74403 19.7625C4.81047 20.0056 4.69236 20.1014 4.70712 20.5435C4.72927 21.1035 5.00241 21.3761 5.00241 21.3761C4.98764 20.6761 5.31984 20.6172 5.31984 20.6172C5.09099 21.914 5.90303 22.1793 5.90303 22.1793C5.88827 21.6782 5.9178 21.4793 5.9178 21.4793C5.96209 21.6709 6.34597 22.3635 6.67816 22.3119C6.79628 22.2972 6.95131 22.194 7.04727 22.113C6.63387 21.8182 6.81843 21.3467 7.20968 21.3467C7.3278 21.3467 7.47544 21.3835 7.58617 21.4646C7.51235 21.1846 7.54926 20.794 7.82979 20.794C7.91099 20.794 8.02911 20.853 8.08816 20.8825C8.05863 20.7277 8.06602 20.514 8.16198 20.3814C7.82979 20.094 7.33518 20.4993 7.08419 20.6246C6.89225 20.7204 6.52314 20.0351 6.5822 19.4382C6.84795 19.1067 7.12848 18.554 7.23183 18.3256C7.5345 18.6204 7.87408 18.5319 7.87408 18.5319C7.66738 17.4046 8.06602 16.7414 8.16937 16.5351C8.27272 16.3288 8.12507 15.9456 8.01434 15.673C7.71905 14.9582 7.46068 14.3393 8.1989 13.7646C8.1989 13.7646 7.87408 14.2288 7.94052 14.6561C8.00696 15.0835 8.2801 15.533 8.2801 15.533C9.12167 15.7614 10.0371 15.7025 10.0371 15.9972C10.0371 16.2919 9.93371 17.6182 9.88204 17.8909C9.83774 18.1119 9.99277 18.4877 10.2511 18.5246C10.4948 18.554 10.6719 18.7014 10.79 19.0256C10.9155 19.3498 11.1592 19.453 11.1592 19.453C11.0779 19.2835 11.1592 19.0993 11.1592 19.0993C11.4028 19.7846 12.5692 19.7256 12.5692 19.7256C12.3551 19.5414 12.2665 19.2614 12.2665 19.2614C12.9235 19.8804 13.61 19.3498 13.61 19.3498C13.3369 19.2098 13.2705 18.9225 13.2705 18.9225C14.1563 19.4309 14.4368 18.6204 14.4368 18.6204C14.2006 18.5761 14.1563 18.3846 14.1563 18.3846C14.4295 18.473 14.5697 18.333 14.5771 18.2814C14.5328 18.193 14.5697 17.9646 14.614 17.8393C14.6435 17.7509 14.7026 17.6993 14.7543 17.6698C15.0127 17.3382 14.8355 17.1025 14.8281 17.0951C14.8207 17.0877 14.8133 17.0877 14.806 17.0951C14.5919 17.1614 14.3187 16.793 14.3483 16.5867C14.1268 16.4982 13.861 16.6898 13.861 16.6898C14.0751 16.3877 13.9939 16.2404 13.9718 16.2109C13.7872 16.2772 13.4255 16.034 13.3886 15.8646C12.9235 15.8646 13.0416 16.6677 13.1745 16.9625C13.3 17.2425 13.1597 17.574 13.1597 17.574C12.2812 17.1246 11.5356 17.1909 11.5356 17.1909L11.7423 16.4467C12.1558 16.7635 12.451 16.6825 12.4584 16.6825C12.0007 16.4909 11.9417 15.2751 11.4471 14.7446C11.1222 14.3982 10.5391 14.2435 10.2511 14.1919C8.92235 13.9561 8.84853 13.1972 8.84853 13.1972C8.92235 12.9835 9.77868 12.1877 10.4578 11.7235C10.3693 11.6204 10.2142 11.2372 10.2142 11.2372C9.19549 11.3109 8.96664 10.4709 9.11429 10.1909C9.37266 11.2298 10.3102 10.9646 10.3914 10.8835C10.3914 10.8835 10.3545 10.9351 10.4726 11.2593C10.5981 11.5761 11.078 12.1656 11.078 12.1656C11.5209 11.7309 11.3732 11.0088 11.3732 11.0088C11.543 11.1635 12.5913 12.0625 12.5913 12.0625C12.5249 12.0625 12.0598 12.114 12.0598 12.114C11.794 12.1656 11.7645 12.2909 11.7793 12.3646C12.0819 12.2688 12.3108 12.6225 12.1631 12.954C12.2517 13.0277 12.3477 12.9688 12.4879 12.8509C12.6651 12.7035 12.9678 12.7625 13.0416 12.7846C13.0638 12.7846 13.2557 12.8582 13.2557 12.8582C13.3738 13.013 13.2262 13.0351 13.2336 13.3372C13.2336 13.3372 13.1376 13.433 13.1228 13.5509C13.1007 13.7056 13.2557 13.8825 13.2631 13.8825C13.5141 13.4698 14.0604 13.6982 13.8758 14.214V14.2361C13.9718 14.1109 14.0751 14.0814 14.1268 14.0667L14.1342 14.1182ZM20.0768 12.4382C20.0768 12.3204 20.1876 12.0477 20.5272 12.1361C20.4238 12.5267 20.2393 12.3056 20.0768 12.4382ZM17.7219 12.0182C18.0763 12.0182 18.1206 12.3204 18.091 12.4309C17.9803 12.2982 17.7367 12.4972 17.7219 12.0182ZM19.346 12.4825C19.3017 12.3793 19.346 12.3572 19.346 12.3572C19.346 12.3572 19.4641 12.4309 19.5379 12.4088C19.7225 12.3498 19.9144 12.4088 19.9144 12.4088C19.9144 12.4382 19.8997 12.453 19.8997 12.453C19.7816 12.453 19.6856 12.5046 19.6561 12.5561C19.6044 12.6814 19.5822 12.6519 19.5379 12.6593C19.501 12.6593 19.4863 12.6814 19.4863 12.7625C19.4863 12.8656 19.4567 12.9172 19.3977 12.9172C19.3977 12.9172 19.3829 12.5782 19.3386 12.4825H19.346ZM21.6123 10.8614H20.8815V10.3161C20.8815 10.1246 21.007 9.90351 21.2506 9.90351C21.4942 9.90351 21.6197 10.1246 21.6197 10.3161V10.8614H21.6123ZM20.1211 7.61193L20.2393 8.13509C20.3943 8.11299 20.5493 8.09088 20.7043 8.08351V7.55299C21.007 7.53825 21.4721 7.53825 21.7747 7.55299V8.08351C21.9372 8.09088 22.0922 8.11299 22.2398 8.13509L22.3579 7.61193C22.6754 7.65614 23.0002 7.7372 23.3029 7.84035L22.9337 8.98246L22.5794 9.36562C21.6788 9.05614 20.7782 9.05614 19.8775 9.36562L19.5232 8.98246L19.1541 7.84035C19.4567 7.7372 19.7742 7.65614 20.099 7.61193H20.1211ZM17.6776 11.8561C17.7662 11.834 17.9508 11.9004 18.1427 12.0404C18.187 11.9814 18.1944 11.9298 18.2018 11.8782C18.2165 11.7161 17.9582 11.5909 17.9582 11.5909C18.0984 11.4877 18.3273 11.4582 18.5266 11.6498C18.6078 11.4509 18.283 11.2225 18.2091 11.2225C18.2091 11.2225 18.4971 11.0014 18.7628 11.1856C18.844 11.2446 18.9252 11.3698 18.9252 11.3698C18.8883 11.1561 19.0138 10.9351 19.2353 10.8614C19.2353 10.8614 19.1836 11.0751 19.3165 11.2519C19.4198 11.3846 19.4863 11.4509 19.4863 11.4509C19.4863 11.4509 19.5453 11.1635 19.7299 11.1488C19.8997 11.134 19.9883 11.2004 19.9883 11.2004C19.9883 11.2004 19.7889 11.4361 19.944 11.7677C19.944 11.7677 20.0768 11.473 20.4607 11.5467C20.409 11.6425 20.3131 11.7825 20.2835 11.9961C20.4533 11.9667 20.6231 11.9814 20.6969 12.0477C20.6969 12.0993 20.6453 12.3425 20.5862 12.4088C20.409 12.6004 20.195 12.4898 20.1654 12.6372C20.1654 12.6372 20.1654 12.8067 20.099 12.9098C20.0325 13.013 19.7373 12.9393 19.7373 12.9393C19.7225 12.9835 19.7373 13.0204 19.7594 13.0572C19.8628 13.0867 19.9292 13.1235 19.9587 13.1825C19.9587 13.1972 19.9661 13.2119 19.9661 13.2488C19.9661 13.3888 19.7594 13.5067 19.6708 13.5067C19.4641 13.5067 19.2869 13.4256 19.2869 13.3004C19.2869 13.1751 19.5601 13.2488 19.5306 13.1088C19.5158 13.0425 19.442 13.0425 19.442 13.0425C19.3755 13.1898 18.9252 13.1604 18.9252 13.0572C18.9252 13.0204 18.94 12.5046 19.0138 12.313C19.0138 12.313 18.9252 12.3498 18.8735 12.3793C18.8071 12.4161 18.4158 12.3056 18.3642 12.4088C18.3642 12.4088 18.6521 12.453 18.689 12.6372C18.689 12.674 18.7776 12.6593 18.7923 12.6667C18.7997 12.6667 18.8735 12.7698 18.8071 13.0498C18.748 13.293 19.0433 13.153 19.0433 13.2856C19.0433 13.4182 18.7628 13.4993 18.6595 13.4993C18.4306 13.4993 18.2018 13.1456 18.5709 13.0498C18.6004 13.0204 18.6078 12.9761 18.593 12.9319C18.593 12.9319 18.2904 13.0056 18.2313 12.9025C18.1722 12.7993 18.1796 12.7109 18.1501 12.6519C18.1206 12.593 17.9286 12.5709 17.84 12.4972C17.5226 12.2172 17.6629 11.9004 17.6924 11.8488L17.6776 11.8561ZM19.1467 14.0519C19.3165 14.0519 19.5306 13.7572 19.5084 13.5804C19.5084 13.5804 19.5749 13.6246 19.6487 13.6172C19.3829 14.3393 18.9105 14.3467 18.6447 13.6172C18.7185 13.6172 18.785 13.5804 18.785 13.5804C18.7628 13.7498 18.9769 14.0519 19.1467 14.0519ZM19.1467 13.5656C19.5232 13.5656 19.2869 13.8898 19.1467 13.8898C18.999 13.8898 18.7776 13.5656 19.1467 13.5656ZM17.6186 12.7035C17.7145 12.6593 17.8696 12.7035 17.936 12.7625C18.0024 12.8214 17.9877 13.0056 18.1427 13.094C18.1427 13.094 18.1353 13.4256 18.3716 13.5804C18.6004 13.8088 18.7702 14.3246 19.1467 14.3246C19.5232 14.3246 19.693 13.8604 19.8923 13.5951C20.1876 13.4698 20.1433 13.094 20.1433 13.094C20.2762 13.0056 20.2835 12.8435 20.2983 12.7698C20.2983 12.7698 20.446 12.7109 20.4829 12.6961C20.5198 12.6814 20.5493 12.7109 20.5714 12.7404C20.6084 12.7772 20.6969 12.8582 20.8003 12.9172C20.7412 13.013 20.5936 13.0204 20.4386 12.9835C20.4681 13.2046 20.601 13.6835 20.7634 13.8382C20.7117 13.8825 20.5788 13.8825 20.4312 13.8235C20.7117 14.0004 20.66 14.7151 20.3943 15.0467C20.4017 14.8109 20.35 14.4425 20.0768 14.3246C20.4312 14.8035 20.0399 15.5698 19.5232 15.6656C19.6044 15.533 19.8258 15.0835 19.4641 14.6267C19.9587 15.4961 18.8145 15.5993 19.1098 16.2698C18.9547 16.2182 18.8514 16.1519 18.8514 16.1519C18.6226 15.4593 18.9917 14.7446 18.9917 14.7446C18.9917 14.7446 18.438 15.3488 18.6816 16.034C18.3051 15.6951 18.3642 15.1425 18.6152 14.8256C18.3346 14.914 18.2387 15.2677 18.2461 15.5993C17.6333 14.8551 18.1206 14.3614 18.3346 14.1625C18.1132 14.1846 17.8843 14.4867 17.7588 14.7298C17.4857 14.2656 17.6038 13.8751 17.8917 13.654C17.6998 13.7277 17.5226 13.7204 17.4635 13.6614C17.8105 13.2414 17.8105 13.0425 17.8253 12.9393C17.6702 12.954 17.5817 12.8509 17.53 12.7404C17.5595 12.7256 17.5669 12.7182 17.6038 12.7035H17.6186ZM17.279 12.9246C17.279 13.013 17.2273 13.1309 17.124 13.1309C17.0871 13.1309 17.0944 13.1309 17.0797 13.1014C17.0501 13.0056 16.8287 12.9098 16.7401 12.9025C16.932 12.7846 17.1609 12.8214 17.2716 12.9246H17.279ZM16.9837 13.2561C16.932 13.3151 16.8656 13.3225 16.7844 13.3151C16.7179 13.1898 16.5482 13.1161 16.371 13.1677C16.6146 12.8509 17.124 13.1088 16.9763 13.2561H16.9837ZM16.2307 13.5804C16.2898 13.3225 16.5482 13.3151 16.7401 13.4256C16.7844 13.4772 16.777 13.5435 16.7401 13.5877C16.7179 13.6098 16.6146 13.6246 16.5408 13.5877C16.4522 13.514 16.3193 13.4993 16.2381 13.5877L16.2307 13.5804ZM17.0871 14.9214C17.1461 14.9509 17.2126 14.9435 17.2716 14.9214C17.0428 14.774 16.9394 14.2804 16.8877 14.0667C16.8361 13.8604 16.7032 13.9414 16.5851 13.7204C16.8139 13.7498 16.9246 13.5951 16.8804 13.4404C16.9763 13.4256 17.0871 13.3667 17.124 13.2561C17.2716 13.2561 17.375 13.1382 17.3971 12.9909C17.4414 13.0793 17.5078 13.234 17.4931 13.2635C17.4045 13.4109 17.2864 13.573 17.2052 13.6688C17.2052 13.6688 17.2938 13.8235 17.4709 13.8235C17.3159 14.1256 17.375 14.7004 17.7367 15.0098C17.7662 15.2382 17.8917 15.5625 18.2239 15.7982C18.2534 15.8204 18.2904 15.8277 18.2608 15.8867C18.1132 16.1446 17.9139 15.754 17.6407 15.6067C17.5078 15.5404 17.434 15.4888 17.3159 15.3267C17.4045 15.3561 17.4562 15.3414 17.5521 15.3046C17.4045 15.3046 17.1756 15.0909 17.0871 14.9067V14.9214ZM17.6112 17.5814C17.6112 17.5814 17.6038 17.6919 17.6112 17.7435C17.5743 17.8688 17.5521 17.9867 17.6112 18.0972C17.5005 18.0751 17.2938 17.8614 17.3676 17.633C17.4488 17.3972 17.6186 17.5519 17.6112 17.5814ZM17.9877 17.8246C17.9582 17.9277 17.9434 18.053 17.9877 18.1635C17.7219 18.0898 17.6112 17.4782 17.8769 17.4635C17.9286 17.4635 17.9877 17.5077 18.0172 17.5519C17.9877 17.633 17.9803 17.7435 17.9877 17.8172V17.8246ZM18.2461 18.0677C18.0541 17.9425 18.0467 17.5151 18.2461 17.5151C18.4158 17.5151 18.4675 17.6772 18.4158 17.7582C18.2461 17.9277 18.2461 18.0456 18.2534 18.0677H18.2461ZM20.3869 17.6256C20.3869 17.6256 20.2614 17.3825 20.2762 17.294C20.2983 17.1909 20.505 17.0067 20.5567 17.1835C20.4017 17.2646 20.3278 17.4267 20.3869 17.6256ZM20.66 17.6993C20.66 17.6993 20.6453 17.7877 20.6453 17.8172C20.6231 17.8025 20.5936 17.7804 20.5788 17.7509C20.3426 17.3825 20.6379 17.2572 20.6969 17.2572C20.7265 17.2572 20.756 17.2867 20.7708 17.3309C20.6896 17.3972 20.6305 17.5446 20.6674 17.6993H20.66ZM20.6157 17.0509C20.6527 16.8888 20.8741 17.014 21.0365 17.2351C21.0808 17.353 21.0513 17.2351 20.8815 17.2793C20.8446 17.1909 20.7634 17.1319 20.6748 17.1467C20.66 17.1098 20.6453 17.0804 20.6231 17.0582L20.6157 17.0509ZM21.103 17.633C21.103 17.633 20.9184 17.8319 20.9406 17.9498C20.9036 17.9351 20.6674 17.6698 20.8151 17.4488C20.8741 17.3604 21.007 17.3825 21.0513 17.4193C21.0808 17.4488 21.1473 17.5372 21.103 17.6256V17.633ZM23.0223 17.014C22.7566 17.154 22.4982 17.3309 22.2472 17.5077C22.1291 17.5888 22.0184 17.8467 21.7747 17.8319C21.5311 17.8172 21.3761 17.7804 21.1251 17.8467L21.1989 17.6919C21.258 17.5667 21.2137 17.4193 21.1177 17.3382C21.5164 17.3677 21.7231 17.1909 22.0996 16.9109C22.2398 16.8004 22.3063 16.7119 22.3136 16.6604C22.3506 16.4982 22.1512 16.4761 22.0036 15.8425C22.2841 15.7909 22.4908 15.7614 22.8673 15.813C23.015 15.9382 22.9633 15.8867 23.0962 16.0119C23.1035 16.0561 23.1109 16.1004 23.1257 16.1519C23.17 16.373 23.3914 16.4982 23.3988 16.6161C23.4284 16.9404 23.2438 16.8667 23.1847 16.8888C23.1331 16.9035 23.0666 16.9772 23.0076 17.0067L23.0223 17.014ZM23.3545 17.1909C23.3545 17.1909 23.4431 17.1467 23.4874 17.2056C23.576 17.3088 23.5317 17.2351 23.4357 17.3235C23.3545 17.3972 23.3102 17.493 23.2881 17.5814C23.2733 17.5593 23.1626 17.4267 23.3619 17.1909H23.3545ZM23.4136 17.9719C23.4136 17.9719 23.2955 17.5961 23.5096 17.4046C23.5908 17.3309 23.6867 17.4267 23.7089 17.5372C23.6351 17.5814 23.5612 17.6698 23.5317 17.773C23.48 17.8246 23.4874 17.8172 23.4062 17.9646L23.4136 17.9719ZM23.731 18.0898L23.7089 18.1488C23.7089 18.1488 23.5317 17.8614 23.7384 17.6625C23.8713 17.5372 23.9968 17.6551 24.0042 17.714C24.0189 17.9277 23.7975 17.9498 23.7384 18.0825L23.731 18.0898ZM25.547 17.0214C25.4954 16.9109 25.3699 16.7635 25.2591 16.7782C25.5323 17.1025 25.4068 17.5961 25.1853 17.7361C25.1853 17.6109 25.1706 17.4635 25.1189 17.353C25.1632 17.5961 24.9934 18.0309 24.6169 18.0309C23.827 18.0309 23.9451 18.0309 23.9894 18.0014C24.1149 17.8982 24.1149 17.7582 24.1149 17.7067C24.1149 17.6035 23.9968 17.4856 23.8565 17.4856C23.7975 17.4856 23.8344 17.5077 23.7975 17.4267C23.7679 17.3604 23.7236 17.3088 23.672 17.2793C23.6646 17.2277 23.6277 17.1761 23.576 17.1172C23.5612 16.9846 23.8196 17.0361 24.1149 17.3309C24.1813 17.3972 24.425 17.3604 24.5357 17.3604C24.6464 17.3604 24.6464 17.2351 24.6907 17.0067C24.7202 16.8372 24.6981 16.7488 24.6021 16.4246C24.5062 16.1004 23.7236 16.3877 23.4136 16.0635C23.3176 15.9604 23.0888 15.7319 22.9485 15.6361C22.3653 15.5477 22.1291 15.6361 21.6271 15.7246C20.8298 15.9309 20.2319 16.0709 20.2319 16.0635C20.2319 16.0635 20.2319 16.3214 20.0547 16.4614C20.0547 16.2993 19.9513 16.2182 19.9513 16.2182C19.9809 16.6677 19.7742 17.0509 19.5527 17.1761C19.597 17.1098 19.6782 17.0067 19.597 16.8961C19.5896 16.9698 18.8514 17.6477 18.7111 17.7067C18.6668 17.9425 18.4675 17.913 18.4232 17.9056C18.4528 17.8688 18.4749 17.8467 18.5044 17.8172C18.6816 17.5151 18.2904 17.2646 18.0837 17.434C17.9508 17.2867 17.7736 17.294 17.6629 17.434C17.5448 17.3161 17.3823 17.3235 17.2864 17.4856C17.2864 17.2793 17.3528 17.154 17.6481 17.1835C17.8769 17.014 18.1501 17.0656 18.2977 17.1172C18.5118 16.9846 18.7628 16.4835 18.8735 16.3582C18.8735 16.3582 19.1762 16.4761 19.346 16.4467C19.2353 16.1151 19.2279 15.9751 19.3386 15.8277C19.6856 15.8867 20.0399 15.6361 20.1802 15.4372C20.6822 15.1646 20.852 14.6119 20.7634 14.1404C20.9184 14.133 21.1473 14.2804 21.568 14.3246C21.9888 14.3688 23.1405 14.2361 23.6203 14.4572C24.0928 14.6635 25.0303 14.6782 25.0303 13.9561C25.0303 13.6761 24.7645 13.4698 24.4766 13.4698C24.3733 13.4698 23.731 13.5288 23.7606 13.8751C23.6129 13.8456 23.5539 13.6982 23.5539 13.5877C23.1552 13.6761 22.7787 13.794 22.2177 13.794C21.7305 13.794 21.3097 13.5656 21.3097 13.1235C21.3097 12.6814 21.6345 12.4456 22.1586 12.4456C22.572 12.4456 22.8673 12.6077 23.1626 12.6077C23.7015 12.6077 23.4579 12.0477 23.3176 11.9961C23.7606 11.7677 24.0263 12.3351 23.9156 12.4972C24.6021 12.0109 25.3699 12.7404 25.3256 13.1161C25.1484 12.954 24.8753 12.8951 24.735 12.8951C24.4176 12.8951 24.2699 13.2635 23.5243 12.8951C23.5686 13.0793 23.8344 13.1677 23.8344 13.1677C23.0666 13.3519 23.1109 12.8509 22.2103 12.8656C21.8855 12.8656 21.7969 12.9688 21.7969 13.1309C21.7969 13.4109 22.3284 13.5067 22.919 13.2635C23.2438 13.4109 23.827 13.4625 24.1961 13.2119C24.1961 13.2119 24.4028 13.2414 24.5874 13.0793C25.2591 13.1382 25.5323 13.5509 25.4806 14.0372C25.4289 14.5088 25.082 14.9288 24.4028 14.9288C24.1297 14.9288 23.9303 14.9067 23.7015 14.8404C24.1075 14.9951 24.1444 15.6656 24.7793 15.6656C25.4142 15.6656 25.4658 16.0561 25.4954 16.2993C25.4363 16.2109 25.2222 16.1372 25.1041 16.1446C25.4142 16.3214 25.547 16.6751 25.5323 17.014L25.547 17.0214ZM22.7197 13.1456C22.513 13.2193 22.3875 13.2193 22.2472 13.2193C22.1217 13.2193 22.0036 13.1751 22.0036 13.1309C22.0036 13.0425 22.4908 13.0646 22.7197 13.1456ZM19.9587 9.56456C20.8077 9.29193 21.6566 9.29193 22.5056 9.56456L22.9411 12.394C22.7123 12.3425 22.4687 12.2614 22.1586 12.2614C21.5164 12.2614 21.1103 12.6004 21.1103 13.1382C21.1103 13.6761 21.5533 14.0077 22.2103 14.0077C22.5942 14.0077 22.8968 13.9561 23.17 13.8972L23.2143 14.1772C22.6458 14.1109 21.8855 14.1772 21.5754 14.1477C21.258 14.1109 21.0808 14.0225 20.9036 13.9782L21.0587 13.853C20.9036 13.6982 20.8077 13.6467 20.6896 13.1898C20.9184 13.153 20.9701 13.0204 21.0808 12.8435C20.8815 12.7256 20.8963 12.7256 20.8372 12.6961C20.7412 12.6446 20.7708 12.6225 20.6896 12.5561C20.8372 12.4088 20.8741 12.173 20.8963 11.9446C20.8077 11.8709 20.7339 11.7972 20.5419 11.7751C20.5788 11.7014 20.5198 11.8119 20.756 11.3846C20.5198 11.3404 20.3278 11.2814 20.1064 11.3551C20.1285 11.3109 20.1211 11.3182 20.2688 11.1414C20.099 11.0235 20.0104 10.9351 19.7742 10.9277L19.9883 9.54246L19.9587 9.56456Z" fill="#162042"/>
</g>
<defs>
<clipPath id="clip0_298_4508">
<rect width="180" height="28" fill="white" transform="translate(0.5)"/>
</clipPath>
</defs>
</svg>
