<svg width="123" height="24" viewBox="0 0 123 24" fill="none" xmlns="http://www.w3.org/2000/svg">
<g clip-path="url(#clip0_298_4497)">
<mask id="mask0_298_4497" style="mask-type:luminance" maskUnits="userSpaceOnUse" x="0" y="0" width="123" height="24">
<path d="M123 0H0V24H123V0Z" fill="white"/>
</mask>
<g mask="url(#mask0_298_4497)">
<path opacity="0.7" d="M119.543 1.62C119.543 2.496 120.322 3.228 121.272 3.228C122.221 3.228 123 2.496 123 1.62C123 0.744 122.221 0 121.272 0C120.322 0 119.543 0.72 119.543 1.62ZM119.884 19.236H122.623V5.364H119.884V19.236ZM109.171 15.348C109.171 14.388 109.719 13.848 110.607 13.524C111.033 13.368 111.557 13.248 112.044 13.188C112.932 13.068 114.941 12.948 115.441 12.444V14.232C115.441 15.312 114.868 16.344 113.797 16.92C113.249 17.22 112.616 17.376 111.849 17.376C110.266 17.376 109.171 16.692 109.171 15.348ZM111.24 19.548C112.787 19.548 113.845 19.068 114.588 18.372C114.941 18.036 115.209 17.7 115.38 17.34H115.489V19.236H118.167V10.032C118.167 6.528 115.72 5.196 112.628 5.196C109.536 5.196 107.187 6.6 107.065 9.576H109.828C109.975 8.136 110.827 7.368 112.604 7.368C114.54 7.368 115.441 8.268 115.441 9.852V9.912C115.441 10.56 114.99 10.8 113.943 10.92L111.886 11.16C109.049 11.496 106.493 12.228 106.493 15.312C106.493 17.148 107.406 18.372 108.83 19.032C109.536 19.38 110.352 19.548 111.24 19.548ZM89.3652 19.416C90.022 19.416 90.4481 19.32 90.5578 19.236V16.896C90.4608 16.932 90.1076 16.992 89.7177 16.992C88.4516 16.992 88.0014 16.428 88.0014 15.204V7.536H90.5217V5.364H88.0014V2.04H85.2625V5.364H82.8278V7.536H85.2625V15.768C85.2625 18.324 87.1125 19.428 89.3652 19.416ZM70.7637 19.236H73.5033V11.004C73.5033 9.528 74.1119 8.472 75.0978 7.932C75.5848 7.656 76.1567 7.524 76.7774 7.524C78.6401 7.524 79.7598 8.724 79.7598 10.74V19.236H82.4994V10.416C82.4994 8.136 81.6714 6.564 80.2226 5.772C79.4922 5.388 78.6642 5.184 77.703 5.184C75.5848 5.184 74.1969 6.144 73.5515 7.62H73.3815V5.364H70.7516L70.7637 19.236ZM60.027 15.348C60.027 14.388 60.5748 13.848 61.4635 13.524C61.8895 13.368 62.413 13.248 62.8999 13.188C63.7888 13.068 65.7974 12.948 66.2964 12.444V14.232C66.2964 15.312 65.7238 16.344 64.653 16.92C64.1052 17.22 63.4718 17.376 62.7052 17.376C61.1226 17.376 60.027 16.692 60.027 15.348ZM62.1087 19.548C63.6424 19.548 64.7139 19.068 65.4683 18.372C65.8215 18.036 66.0897 17.7 66.2596 17.34H66.3693V19.236H69.0474V10.032C69.0474 6.528 66.6007 5.196 63.5086 5.196C60.4166 5.196 58.0427 6.6 57.9332 9.576H60.6966C60.8427 8.136 61.6948 7.368 63.4718 7.368C65.4075 7.368 66.3084 8.268 66.3084 9.852V9.912C66.3084 10.56 65.8583 10.8 64.8109 10.92L62.7538 11.16C59.9175 11.496 57.361 12.228 57.361 15.312C57.361 17.148 58.274 18.372 59.6983 19.032C60.4044 19.38 61.2078 19.548 62.1087 19.548ZM55.2672 19.416C55.9246 19.416 56.3507 19.32 56.4602 19.236V16.896C56.3629 16.932 56.0098 16.992 55.6202 16.992C54.3542 16.992 53.9038 16.428 53.9038 15.204V7.536H56.4237V5.364H53.9038V2.04H51.1648V5.364H48.7301V7.536H51.1648V15.768C51.1526 18.324 53.0152 19.428 55.2672 19.416ZM43.1912 19.524C46.1615 19.524 48.8397 18.072 48.8397 15.228C48.8397 13.272 47.5858 12.072 44.9929 11.484L42.753 10.98C41.2313 10.62 40.5374 10.08 40.5374 9.18C40.5374 8.064 41.6209 7.32 43.106 7.32C44.4938 7.32 45.5407 7.968 45.6746 9.36H48.4136C48.1702 6.708 46.1737 5.184 43.1547 5.184C40.3183 5.184 37.7984 6.54 37.7984 9.324C37.7984 11.268 39.0157 12.588 41.6452 13.152L44.0311 13.668C45.3703 13.956 46.0154 14.556 46.0154 15.408C46.0154 16.512 45.0294 17.328 43.179 17.328C41.3287 17.328 40.3913 16.5 40.2939 15.06H37.4941C37.6036 17.952 39.9287 19.524 43.1912 19.524ZM33.2456 1.62C33.2456 2.496 34.0247 3.228 34.9742 3.228C35.9237 3.228 36.7028 2.496 36.7028 1.62C36.7028 0.744 35.9358 0 34.9742 0C34.0125 0 33.2456 0.72 33.2456 1.62ZM33.5986 19.236H36.3376V5.364H33.5986V19.236ZM26.6232 19.524C29.5935 19.524 32.2717 18.072 32.2717 15.228C32.2717 13.272 31.0178 12.072 28.4249 11.484L26.185 10.98C24.6754 10.62 23.9816 10.08 23.9816 9.18C23.9816 8.064 25.0651 7.32 26.5502 7.32C27.9379 7.32 28.9727 7.968 29.1188 9.36H31.8578C31.6143 6.708 29.6179 5.184 26.5989 5.184C23.7625 5.184 21.2426 6.54 21.2426 9.324C21.2426 11.268 22.4599 12.588 25.0894 13.152L27.4753 13.668C28.8144 13.956 29.4596 14.556 29.4596 15.408C29.4596 16.512 28.4735 17.328 26.6232 17.328C24.7728 17.328 23.8355 16.5 23.7381 15.06H20.9382C21.0478 17.952 23.3729 19.524 26.6232 19.524ZM9.99438 11.088C10.0674 9.804 10.7004 8.664 11.7717 7.968C12.3438 7.596 13.0133 7.416 13.7803 7.416C15.2046 7.416 16.288 8.088 16.8723 9.192C17.1645 9.744 17.3105 10.38 17.3105 11.088H9.99438ZM13.9507 19.524C17.4323 19.524 19.4409 17.616 19.7696 15.072H17.0062C16.7749 16.404 15.7524 17.292 13.8899 17.292C11.4917 17.292 10.0674 15.672 9.98221 13.116H19.9887V12.156C19.9887 9.636 19.2583 7.896 18.0775 6.792C16.8967 5.676 15.3507 5.184 13.7681 5.184C11.163 5.184 9.15437 6.468 8.08313 8.64C7.54751 9.72 7.26752 10.98 7.26752 12.396C7.25535 16.56 9.67788 19.512 13.9507 19.524ZM0 19.236H2.73901V10.764C2.73901 9.564 3.37203 8.58 4.38242 8.04C4.88153 7.776 5.45368 7.644 6.09887 7.644C6.65886 7.644 7.30404 7.74 7.52316 7.812V5.22C7.25535 5.184 6.69538 5.16 6.35454 5.16C4.7111 5.16 3.29899 6.084 2.77553 7.572H2.62945V5.364H0V19.236Z" fill="#162042"/>
<path opacity="0.7" d="M98.4707 15.7916C99.3476 15.8516 100.102 16.5716 100.163 17.4476L104.838 12.8396L103.158 11.1836L98.4707 15.7916Z" fill="#162042"/>
<path opacity="0.7" d="M98.4219 19.3685L103.121 24.0006L104.862 22.2846L100.175 17.6646C100.139 18.5766 99.3475 19.3325 98.4219 19.3685Z" fill="#162042"/>
<path opacity="0.7" d="M91.8359 22.3314L93.5281 23.9994L98.2148 19.3794C97.3266 19.3194 96.5835 18.5874 96.5226 17.7114L91.8359 22.3314Z" fill="#162042"/>
<path opacity="0.7" d="M91.8008 12.8398L96.5116 17.4838C96.5724 16.5838 97.3396 15.8278 98.2767 15.7918L93.5291 11.1118L91.8008 12.8398Z" fill="#162042"/>
</g>
</g>
<defs>
<clipPath id="clip0_298_4497">
<rect width="123" height="24" fill="white"/>
</clipPath>
</defs>
</svg>
