<svg width="132" height="30" viewBox="0 0 132 30" fill="none" xmlns="http://www.w3.org/2000/svg">
<g clip-path="url(#clip0_298_4492)">
<path opacity="0.7" fill-rule="evenodd" clip-rule="evenodd" d="M5.44677 18.6382C5.44677 18.8927 5.65294 19.099 5.90718 19.099H10.4331C10.6874 19.099 10.8936 18.8927 10.8936 18.6382V16.3737H13.1566C13.4107 16.3737 13.617 16.1673 13.617 15.9129V14.1091C13.617 13.8546 13.4107 13.6484 13.1566 13.6484H5.90718C5.65294 13.6484 5.44677 13.8546 5.44677 14.1091V18.6382ZM5.44677 8.64285C5.44677 8.38843 5.24061 8.18213 4.98637 8.18213H0.460401C0.206166 8.18213 0 8.38843 0 8.64285V13.172C0 13.4265 0.206166 13.6327 0.460401 13.6327H2.26299C2.51722 13.6327 2.72338 13.4265 2.72338 13.172V10.9074H4.98637C5.24061 10.9074 5.44677 10.7012 5.44677 10.4467V8.64285ZM8.17016 24.9947C8.17016 24.7402 7.96399 24.534 7.70975 24.534H5.90718C5.65294 24.534 5.44677 24.7402 5.44677 24.9947V26.7985C5.44677 27.0529 5.65294 27.2593 5.90718 27.2593H7.70975C7.96399 27.2593 8.17016 27.0529 8.17016 26.7985V24.9947ZM40.3904 8.18213H35.8644C35.6102 8.18213 35.404 8.38843 35.404 8.64285V10.4467C35.404 10.7012 35.6102 10.9074 35.8644 10.9074H38.1274V13.172C38.1274 13.4265 38.3335 13.6327 38.5878 13.6327H40.3904C40.6447 13.6327 40.8508 13.4265 40.8508 13.172V8.64285C40.8508 8.38843 40.6447 8.18213 40.3904 8.18213ZM34.9436 13.6327H27.6943C27.44 13.6327 27.2338 13.8391 27.2338 14.0935V15.8973C27.2338 16.1517 27.44 16.358 27.6943 16.358H29.9573V18.6227C29.9573 18.877 30.1634 19.0833 30.4177 19.0833H34.9436C35.1978 19.0833 35.404 18.877 35.404 18.6227V14.0935C35.404 13.8391 35.1978 13.6327 34.9436 13.6327ZM32.2203 27.2748H29.9573V25.0103C29.9573 24.7559 29.7511 24.5495 29.4969 24.5495H27.2338V19.5597C27.2338 19.3052 27.0277 19.099 26.7734 19.099H24.5105V14.1091C24.5105 13.8546 24.3043 13.6484 24.0501 13.6484H16.8007C16.5465 13.6484 16.3403 13.8546 16.3403 14.1091V19.099H14.0774C13.823 19.099 13.617 19.3052 13.617 19.5597V24.5495H11.354C11.0997 24.5495 10.8936 24.7559 10.8936 25.0103V27.2748H8.63056C8.37633 27.2748 8.17016 27.4812 8.17016 27.7356V29.5395C8.17016 29.7939 8.37633 30.0002 8.63056 30.0002H13.1566C13.4107 30.0002 13.617 29.7939 13.617 29.5395V27.2748H15.8799C16.1341 27.2748 16.3403 27.0686 16.3403 26.8142V21.8242H24.5105V26.8142C24.5105 27.0686 24.7167 27.2748 24.9708 27.2748H27.2338V29.5395C27.2338 29.7939 27.44 30.0002 27.6943 30.0002H32.2203C32.4744 30.0002 32.6807 29.7939 32.6807 29.5395V27.7356C32.6807 27.4812 32.4744 27.2748 32.2203 27.2748ZM34.9436 24.534H33.1411C32.8868 24.534 32.6807 24.7402 32.6807 24.9947V26.7985C32.6807 27.0529 32.8868 27.2593 33.1411 27.2593H34.9436C35.1978 27.2593 35.404 27.0529 35.404 26.7985V24.9947C35.404 24.7402 35.1978 24.534 34.9436 24.534Z" fill="#162042"/>
<path opacity="0.7" fill-rule="evenodd" clip-rule="evenodd" d="M11.353 8.18177H29.496C29.7501 8.18177 29.9563 7.97531 29.9563 7.72071V5.91557C29.9563 5.66089 29.7501 5.45451 29.496 5.45451H27.233V3.18831C27.233 2.93372 27.0268 2.72725 26.7726 2.72725H24.5095V0.461055C24.5095 0.206459 24.3034 0 24.0491 0H16.7998C16.5455 0 16.3394 0.206459 16.3394 0.461055V2.72725H14.0764C13.8221 2.72725 13.616 2.93372 13.616 3.18831V5.45451H11.353C11.0988 5.45451 10.8926 5.66089 10.8926 5.91557V7.72071C10.8926 7.97531 11.0988 8.18177 11.353 8.18177Z" fill="#162042"/>
<path opacity="0.7" fill-rule="evenodd" clip-rule="evenodd" d="M87.8623 11.3613C86.4296 11.3613 85.1353 11.9516 84.2247 12.8981C83.3349 11.9479 82.0677 11.354 80.6631 11.354C79.875 11.354 79.071 11.643 78.4509 12.0605V11.9222C78.4509 11.7226 78.2854 11.5708 78.093 11.5708H76.095C75.9038 11.5708 75.7371 11.7226 75.7371 11.9222V21.8898C75.7371 22.0894 75.9026 22.2412 76.095 22.2412H78.0978C78.2891 22.2412 78.4557 22.0894 78.4557 21.8898V16.2301C78.4557 15.0105 79.4448 14.0235 80.6631 14.0235C81.8826 14.0235 82.8704 15.0117 82.8704 16.2301V21.8898C82.8704 22.0894 83.0358 22.2412 83.2283 22.2412H85.1843C85.1892 22.2412 85.193 22.2412 85.1954 22.2412H85.2395C85.4307 22.2412 85.5974 22.0894 85.5974 21.8898V16.2337C85.5974 15.0202 86.6072 14.0283 87.8623 14.0283C89.1173 14.0283 90.1272 15.0202 90.1272 16.2337V21.8886C90.1272 22.0882 90.2927 22.24 90.4851 22.24H92.4951C92.6876 22.24 92.853 22.0882 92.853 21.8886V16.2337C92.8518 13.5386 90.6138 11.3613 87.8623 11.3613ZM102.846 16.7149C102.083 16.2509 101.104 16.028 100.25 15.8345L100.233 15.8309C99.6137 15.6901 99.0689 15.5652 98.6766 15.3814C98.2881 15.2002 98.1121 14.9921 98.1121 14.7055C98.1121 14.4582 98.2048 14.239 98.4257 14.0663C98.6523 13.8888 99.0277 13.7516 99.6072 13.7174C100.595 13.7174 101.36 13.7406 101.877 13.7639C102.137 13.7749 102.334 13.7871 102.465 13.7958C102.532 13.8006 102.581 13.8031 102.615 13.8055C102.632 13.8067 102.644 13.8079 102.652 13.8079L102.66 13.8092H102.663L102.671 13.8104H102.68C102.833 13.8104 102.973 13.781 103.068 13.6818C103.152 13.5936 103.17 13.481 103.178 13.4259C103.178 13.4223 103.179 13.4186 103.179 13.4162C103.182 13.3928 103.185 13.3757 103.188 13.3598L103.194 13.339V12.1108C103.194 11.9613 103.183 11.8242 103.126 11.7189C103.055 11.5879 102.936 11.5462 102.841 11.5254L102.831 11.5242L102.823 11.523H102.819L102.81 11.5218C102.801 11.5205 102.789 11.5193 102.773 11.5181C102.74 11.5144 102.691 11.5096 102.626 11.5034C102.494 11.4912 102.299 11.4753 102.034 11.4593C101.505 11.4274 100.701 11.3957 99.5997 11.3957H99.5959H99.5922C98.1833 11.4483 97.1142 11.8401 96.3952 12.4597C95.6734 13.0806 95.3176 13.9182 95.3176 14.8243C95.3176 15.4206 95.4553 15.9093 95.6977 16.3121C95.9393 16.7137 96.2782 17.0187 96.6657 17.2575C97.4296 17.7264 98.407 17.953 99.2589 18.1502L99.2767 18.1538C99.8974 18.2971 100.443 18.4244 100.835 18.6106C101.223 18.7942 101.403 19.0061 101.403 19.3012C101.403 19.5473 101.289 19.7665 101.013 19.9342C100.726 20.1081 100.262 20.2245 99.5782 20.2245C98.8011 20.2245 97.953 20.1412 97.2958 20.0568C96.9672 20.0151 96.6891 19.9722 96.4916 19.9404C96.3933 19.9245 96.3156 19.911 96.2622 19.9024C96.2482 19.9 96.2351 19.8976 96.2248 19.8963C96.2164 19.895 96.207 19.8938 96.2014 19.8926L96.1864 19.8902L96.1817 19.8889L96.1649 19.8853H96.1471C96.0076 19.8853 95.8756 19.911 95.782 20.0053C95.6996 20.0873 95.6818 20.1963 95.6743 20.2465C95.6734 20.2502 95.6734 20.2539 95.6734 20.2563C95.6678 20.2833 95.664 20.3004 95.6603 20.3176L95.6556 20.3372L95.5788 21.7233V21.7282C95.5788 21.8188 95.5919 21.9266 95.6416 22.0233C95.6912 22.1262 95.782 22.218 95.9205 22.2535L95.9252 22.2547L95.9308 22.2559L95.9365 22.2242C95.9308 22.2559 95.9308 22.2559 95.9308 22.2559L95.9355 22.2572C95.9374 22.2584 95.943 22.2584 95.9486 22.2596C95.9599 22.2621 95.9767 22.2646 95.9992 22.2694C96.0432 22.278 96.1068 22.289 96.1911 22.3025C96.3605 22.3294 96.6067 22.365 96.926 22.4017C97.5607 22.4739 98.4772 22.545 99.6044 22.545H99.6137C99.7523 22.5462 100.878 22.5547 101.978 22.142C102.529 21.9351 103.085 21.618 103.504 21.1307C103.928 20.6396 104.201 19.9845 104.201 19.1249C104.201 18.5346 104.062 18.0498 103.82 17.6506C103.575 17.2513 103.235 16.9501 102.846 16.7149ZM125.433 11.5769C124.315 11.5769 123.269 11.8916 122.391 12.4365V7.86954C122.391 7.66994 122.225 7.51807 122.032 7.51807H120.027C119.836 7.51807 119.669 7.66994 119.669 7.86954V21.8923C119.669 22.0919 119.835 22.2438 120.027 22.2438H122.032C122.224 22.2438 122.391 22.0919 122.391 21.8923V21.4257C123.219 22.0723 124.317 22.5438 125.433 22.5438C128.554 22.5438 131.093 20.0946 131.093 17.0603C131.093 14.0259 128.554 11.5769 125.433 11.5769ZM125.433 19.8963C123.816 19.8963 122.503 18.6265 122.503 17.0603C122.503 15.4941 123.815 14.2243 125.433 14.2243C127.051 14.2243 128.364 15.4941 128.364 17.0603C128.364 18.6265 127.053 19.8963 125.433 19.8963ZM116.585 11.5769H114.575C114.382 11.5769 114.216 11.7288 114.216 11.9283V17.7252C114.216 18.9215 113.209 19.9024 111.952 19.9024C111.946 19.9024 111.94 19.9024 111.935 19.9024C111.928 19.9024 111.923 19.9024 111.917 19.9024C110.66 19.9024 109.652 18.9215 109.652 17.7252V11.9283C109.652 11.7288 109.487 11.5769 109.295 11.5769H107.285C107.092 11.5769 106.926 11.7288 106.926 11.9283V17.7252C106.926 20.3922 109.167 22.5425 111.917 22.5425C111.923 22.5425 111.928 22.5425 111.935 22.5425C111.94 22.5425 111.946 22.5425 111.952 22.5425C114.701 22.5425 116.942 20.3922 116.942 17.7252V11.9283C116.942 11.7288 116.777 11.5769 116.585 11.5769ZM58.9262 16.7149C58.1626 16.2509 57.1834 16.028 56.3304 15.8345L56.3131 15.8309C55.693 15.6901 55.1488 15.5652 54.7567 15.3814C54.3682 15.2002 54.1917 14.9921 54.1917 14.7055C54.1917 14.4582 54.2848 14.239 54.5054 14.0663C54.7321 13.8888 55.1072 13.7516 55.6868 13.7174C56.6747 13.7174 57.4395 13.7406 57.9567 13.7639C58.2166 13.7749 58.4139 13.7871 58.545 13.7958C58.6112 13.8006 58.6614 13.8031 58.6946 13.8055C58.7117 13.8067 58.724 13.8079 58.7313 13.8079L58.7399 13.8092H58.7423L58.7509 13.8104H58.7595C58.9127 13.8104 59.0524 13.781 59.1481 13.6818C59.2326 13.5936 59.2497 13.481 59.2571 13.4259C59.2571 13.4223 59.2583 13.4186 59.2583 13.4162C59.262 13.3928 59.2644 13.3757 59.2682 13.3598L59.273 13.339V12.1108C59.273 11.9613 59.2632 11.8242 59.2056 11.7189C59.1346 11.5879 59.0157 11.5462 58.9201 11.5254L58.9115 11.5242L58.9029 11.523H58.8992L58.8894 11.5218C58.8809 11.5205 58.8686 11.5193 58.8526 11.5181C58.8196 11.5144 58.7705 11.5096 58.7055 11.5034C58.5745 11.4912 58.3783 11.4753 58.1136 11.4593C57.5842 11.4274 56.7801 11.3957 55.6795 11.3957H55.6759H55.6721C54.2627 11.4483 53.194 11.8401 52.4746 12.4597C51.7539 13.0806 51.3984 13.9182 51.3984 14.8243C51.3984 15.4206 51.5358 15.9093 51.7784 16.3121C52.0199 16.7137 52.3593 17.0187 52.7466 17.2575C53.5102 17.7264 54.4883 17.953 55.3401 18.1502L55.3572 18.1538C55.9786 18.2971 56.524 18.4244 56.9162 18.6106C57.3035 18.7942 57.4836 19.0061 57.4836 19.3012C57.4836 19.5473 57.3696 19.7665 57.0939 19.9342C56.8071 20.1081 56.3426 20.2245 55.6587 20.2245C54.8816 20.2245 54.0336 20.1412 53.3767 20.0568C53.0482 20.0151 52.7699 19.9722 52.5726 19.9404C52.4746 19.9245 52.3961 19.911 52.3434 19.9024C52.3287 19.9 52.3164 19.8976 52.3054 19.8963C52.2969 19.895 52.2883 19.8938 52.2822 19.8926L52.2674 19.8902L52.2625 19.8889L52.2454 19.8853H52.2269C52.0873 19.8853 51.9549 19.911 51.8617 20.0053C51.7796 20.0873 51.7613 20.1963 51.7539 20.2465C51.7527 20.2502 51.7527 20.2539 51.7527 20.2563C51.7478 20.2833 51.7441 20.3004 51.7404 20.3176L51.7356 20.3372L51.6559 21.722V21.727C51.6559 21.8176 51.6694 21.9254 51.7183 22.022C51.7686 22.125 51.8593 22.2168 51.9978 22.2523L52.0027 22.2535L52.0076 22.2547L52.0137 22.2229C52.0076 22.2547 52.0076 22.2547 52.0076 22.2547H52.0088L52.0125 22.2559C52.015 22.2572 52.0199 22.2572 52.026 22.2584C52.037 22.2608 52.0542 22.2633 52.0762 22.2682C52.1203 22.2768 52.1841 22.2878 52.2687 22.3012C52.4378 22.3282 52.6842 22.3638 53.0028 22.4004C53.6377 22.4727 54.5545 22.5438 55.682 22.5438H55.6906C55.829 22.545 56.9554 22.5535 58.0548 22.1408C58.6063 21.9339 59.1628 21.6168 59.5819 21.1294C60.0047 20.6384 60.278 19.9833 60.278 19.1237C60.278 18.5334 60.1396 18.0485 59.8969 17.6493C59.6541 17.2513 59.3147 16.9501 58.9262 16.7149ZM72.6562 11.5769H70.6463C70.4538 11.5769 70.2884 11.7288 70.2884 11.9283V17.7252C70.2884 18.9215 69.281 19.9024 68.0234 19.9024C68.0173 19.9024 68.0125 19.9024 68.0063 19.9024C68.0002 19.9024 67.9952 19.9024 67.9891 19.9024C66.7317 19.9024 65.7242 18.9215 65.7242 17.7252V11.9283C65.7242 11.7288 65.5588 11.5769 65.3663 11.5769H63.3563C63.1639 11.5769 62.9984 11.7288 62.9984 11.9283V17.7252C62.9984 20.3922 65.2389 22.5425 67.9891 22.5425C67.9952 22.5425 68.0002 22.5425 68.0063 22.5425C68.0125 22.5425 68.0173 22.5425 68.0234 22.5425C70.7725 22.5425 73.0141 20.3922 73.0141 17.7252V11.9283C73.0141 11.7288 72.8487 11.5769 72.6562 11.5769Z" fill="#162042"/>
</g>
<defs>
<clipPath id="clip0_298_4492">
<rect width="132" height="30" fill="white"/>
</clipPath>
</defs>
</svg>
