<svg width="96" height="24" viewBox="0 0 96 24" fill="none" xmlns="http://www.w3.org/2000/svg">
<path fill-rule="evenodd" clip-rule="evenodd" d="M61.5261 13.6535C61.6941 12.5513 62.2181 11.6655 63.0981 10.9968C63.9771 10.3282 65.0433 9.99383 66.296 9.99383C67.5008 9.99383 68.5064 10.323 69.3137 10.9793C70.1207 11.6363 70.6205 12.5278 70.8135 13.6535H61.5261ZM66.296 6.65051C63.7424 6.65051 61.6344 7.47787 59.9719 9.13123C58.3096 10.7854 57.4785 12.8441 57.4785 15.3076C57.4785 17.8184 58.3332 19.8949 60.0443 21.5362C61.7545 23.1786 63.8986 24 66.4767 24C68.3319 24 69.9941 23.5307 71.464 22.5925C72.9329 21.6539 73.9812 20.3748 74.6081 18.7564H70.4519C69.6329 19.9528 68.3075 20.5512 66.4767 20.5512C65.1996 20.5512 64.0975 20.1934 63.1701 19.478C62.2425 18.7624 61.6706 17.8184 61.4538 16.645H74.7885C74.8367 16.4109 74.8611 15.9181 74.8611 15.1667C74.8611 12.751 74.0535 10.7275 72.4395 9.09627C70.8253 7.4664 68.7773 6.65051 66.296 6.65051Z" fill="#162042"/>
<path fill-rule="evenodd" clip-rule="evenodd" d="M90.7777 19.1961C89.7533 20.0997 88.5309 20.5512 87.1098 20.5512C85.6397 20.5512 84.4353 20.041 83.4959 19.0202C82.5562 17.9998 82.0864 16.7744 82.0864 15.3431C82.0864 13.8884 82.5562 12.651 83.4959 11.6305C84.4353 10.6095 85.6397 10.0993 87.1098 10.0993C88.5309 10.0993 89.7533 10.5571 90.7777 11.4721C91.8015 12.3869 92.3137 13.6775 92.3137 15.3431C92.3137 17.0091 91.8015 18.2931 90.7777 19.1961ZM92.1692 8.62154C90.8918 7.3077 89.1213 6.65051 86.8568 6.65051C84.2305 6.65051 82.1405 7.50164 80.5868 9.20198C79.0326 10.9034 78.2559 12.9498 78.2559 15.3431C78.2559 17.7127 79.0326 19.7482 80.5868 21.4485C82.1405 23.1499 84.2305 24 86.8568 24C89.1213 24 90.8918 23.3436 92.1692 22.029V23.5422H96V7.10831H92.1692V8.62154Z" fill="#162042"/>
<path fill-rule="evenodd" clip-rule="evenodd" d="M54.3789 7.1234H50.7324C50.7324 10.73 47.7299 13.6535 44.0265 13.6535H42.8406V3.44602V0H39.0098V23.5423H42.8406V17.173V17.0121H44.0265C47.7299 17.0121 50.7324 19.9359 50.7324 23.5423H54.3789C54.3764 20.0432 52.4359 16.9878 49.5476 15.3331C52.4359 13.6781 54.3764 10.6227 54.3789 7.1234Z" fill="#162042"/>
<path fill-rule="evenodd" clip-rule="evenodd" d="M11.7577 0V2.37501C11.7577 4.8317 9.71258 6.82321 7.18977 6.82321H0V8.38315H14.0603C16.5904 8.38315 18.6412 6.38618 18.6412 3.92266V0H11.7577Z" fill="#FF7F1F"/>
<path fill-rule="evenodd" clip-rule="evenodd" d="M20.1618 0V4.02018C20.1618 7.10292 17.5955 9.60194 14.4298 9.60194H0V11.1619H21.5385C24.5796 11.1619 27.0452 8.76119 27.0452 5.79946V0H20.1618Z" fill="#FFC501"/>
<path fill-rule="evenodd" clip-rule="evenodd" d="M11.7577 23.5421V21.1671C11.7577 18.7104 9.71258 16.7189 7.18977 16.7189H0V15.1589H14.0603C16.5904 15.1589 18.6412 17.1559 18.6412 19.6194V23.5421H11.7577Z" fill="#162042"/>
<path fill-rule="evenodd" clip-rule="evenodd" d="M20.1618 23.542V19.5218C20.1618 16.4391 17.5955 13.9401 14.4298 13.9401H0V12.3801H21.5385C24.5796 12.3801 27.0452 14.7811 27.0452 17.7425V23.542H20.1618Z" fill="#13D3B7"/>
</svg>
